<?xml version="1.0" encoding="utf-8"?>
<!-- Generator: Adobe Illustrator 26.0.1, SVG Export Plug-In . SVG Version: 6.00 Build 0)  -->
<svg version="1.1" xmlns="http://www.w3.org/2000/svg" xmlns:xlink="http://www.w3.org/1999/xlink" x="0px" y="0px"
	 viewBox="0 0 1920 1080" style="enable-background:new 0 0 1920 1080;" xml:space="preserve">
<style type="text/css">
	.st0{fill:#0C9648;}
</style>
<g id="Layer_1">
</g>
<g id="Layer_8">
</g>
<g id="Layer_7">
</g>
<g id="Layer_4">
</g>
<g id="Layer_9">
</g>
<g id="Layer_3">
</g>
<g id="Layer_5">
</g>
<g id="Layer_6">
</g>
<g id="Layer_2">
	<g>
		<g>
			<path class="st0" d="M1325.93,865.79c1.88,26.5,2.81,42,2.81,46.51c0,5.02-0.21,9.4-0.63,13.16c-0.33,2.72-0.4,4.48-0.21,5.28
				c0.14,0.8,0.54,0.66,1.2-0.42c0.42-0.8,0.98-2.04,1.69-3.73c3.33-8.3,5-17.92,5-28.85c0-3.56-0.82-16.53-2.46-38.91
				c-1.64-22.37-2.46-33.77-2.46-34.19c0-1.17,0.23-1.48,0.7-0.91c3.99,4.64,5.98,5.91,5.98,3.8c0-0.66-0.19-1.64-0.56-2.95
				c-0.47-1.73-2.14-6.36-5-13.86c-2.72-7.18-4.46-11.59-5.21-13.23c-0.38-0.8-0.68-1.2-0.91-1.2c-0.28,0-0.59,0.38-0.91,1.13
				c-2.63,6.15-3.94,10.04-3.94,11.68c1.41,2.91,2.11,6.61,2.11,11.12C1323.12,824.1,1324.06,839.29,1325.93,865.79z"/>
			<path class="st0" d="M1316.08,904.46c-1.86-4.68-4.24-7.04-7.04-7.04c-4.03,0-7.84,3.8-11.36,11.43
				c-3.59,7.68-5.4,15.88-5.4,24.58v4.11c-3.02,0.93-6.68,1.37-10.35,1.37c-3.46,0-6.05-0.51-7.63-1.52
				c-3.23-2.07-5.38-6.39-6.47-12.93c-0.44-2.23-0.93-15.54-1.58-39.91c-0.72-25.81-1.52-43.07-2.45-51.7
				c-1.5-14.02-3.73-23.87-6.75-29.69c-0.49-0.93-0.86-1.45-1.14-1.45c-0.3,0-0.65,0.59-1.08,1.73c-1.94,4.53-2.87,7.99-2.87,10.21
				c2.72,8.69,4.6,17.75,5.59,27.32c0.59,5.97,1.31,22.14,2.09,48.54c0.8,24.29,1.58,38.96,2.45,43.92
				c1.43,7.99,4.09,13.52,8.12,16.47c2.72,2.09,6.68,3.08,11.72,3.08c3.67,0,7.91-0.99,11.93-2.95c0.36,2.89,0.87,4.39,1.52,4.39
				c0.86,0,1.29-1.79,1.29-5.38c7.68-3.82,13.3-8.2,16.89-13.09c3.31-4.6,4.89-11.01,4.89-19.27
				C1318.45,912.45,1317.67,908.42,1316.08,904.46z M1312.84,926.24c-1.14,1.52-3.8,3.46-8.12,5.9c-3.88,2.17-6.96,3.67-9.34,4.53
				c-0.15-6.83,1.22-13.09,4.09-18.68c2.53-4.76,4.68-7.06,6.47-7.06c3.39,0,5.9,3.67,7.49,11.07l0.13,1.01
				C1313.85,924.23,1313.64,925.31,1312.84,926.24z"/>
			<path class="st0" d="M1242.33,898.18c2.72,5.91,4.08,9.17,4.08,9.78c0,1.69-2.7,4.64-8.09,8.87
				c-7.04,5.44-17.36,11.84-30.96,19.21c-9.05,4.88-20.36,10.2-33.91,15.97c-19.56,8.3-30.25,12.88-32.08,13.72
				c-5.07,2.34-7.6,3.68-7.6,4.01l0.63,0.14c0.84,0,3.12-0.28,6.82-0.84c3.52-0.56,12.22-2.53,26.1-5.91
				c13.09-3.19,19.86-4.78,20.33-4.78c2.49,0,10.62-3.96,24.41-11.89c15.9-9.1,27.2-17.45,33.91-25.05
				c1.73-1.97,3.17-4.97,4.29-9.01c0.89-3.28,1.34-6.1,1.34-8.44c0-4.74-1.29-10.23-3.87-16.46c-1.64-3.85-3.31-7.72-5-11.61
				c2.81,0.75,4.55,1.13,5.21,1.13l0.77-0.42c0-0.47-0.8-1.5-2.39-3.1c-3.94-3.85-7.41-7.57-10.41-11.19l-1.06-0.84
				c-0.38,0-0.7,0.59-0.98,1.76c-0.28,1.17-0.63,3.24-1.06,6.19c-0.42,3.1-0.56,4.88-0.42,5.35c0.09,0.33,0.55,1.14,1.37,2.43
				c0.82,1.29,1.51,2.9,2.08,4.82C1237.03,886.03,1239.19,891.43,1242.33,898.18z"/>
			<path class="st0" d="M1212.08,876.77c4.6-6.75,8.07-12.1,10.42-16.04c3.65-6.3,5.48-11.3,5.48-15.07c0-3.1-0.19-4.64-0.55-4.64
				c-0.38,0-1.12,1.33-2.19,4.01c-1.08,2.66-3.79,7.34-8.1,14c-5.06,7.97-8.16,12.57-9.28,13.79c-3.75-2.63-7.46-6.2-11.11-10.69
				c-0.95-1.12-1.41-1.79-1.41-1.98c0-0.29,1.5-0.42,4.51-0.42c1.58,0,2.38-0.13,2.38-0.42v-0.15c0-0.17-0.51-0.7-1.54-1.54
				c-1.98-1.5-4.85-3.5-8.66-5.97c-3.8-2.49-5.97-3.73-6.54-3.73c-0.38,0-0.84,1.33-1.41,3.99c-0.57,2.68-0.84,5.06-0.84,7.11
				c0,1.31,0.51,2.49,1.54,3.52c1.79,1.79,2.95,3.01,3.52,3.65c4.7,6.85,9.09,12.35,13.22,16.47c-4.68,7.4-7.87,13.32-9.57,17.73
				c-1.96,5.06-2.95,10.46-2.95,16.19c0,8.16,2.76,12.23,8.29,12.23c3.48,0,7.65-1.54,12.54-4.64c4.51-2.82,7.65-5.63,9.42-8.45
				c0.95-1.31,1.81-3.39,2.61-6.26c0.8-2.85,1.2-5.17,1.2-6.96c0-4.6-0.51-8.39-1.54-11.39
				C1219.92,886.91,1216.78,882.11,1212.08,876.77z M1217.43,905.34c-3.37,3.29-7.17,5.82-11.39,7.59
				c-2.91,1.22-5.25,1.83-7.04,1.83c-4.13,0-6.18-1.35-6.18-4.07c0-1.98,1.77-6.01,5.35-12.1c3.27-5.63,5.95-9.53,8.01-11.68
				c5.92,5.15,10.23,10.37,12.95,15.62C1219.31,903.08,1218.74,904.03,1217.43,905.34z"/>
			<path class="st0" d="M1170.27,897.56c-1.88-4.68-4.24-7.04-7.06-7.04c-4.03,0-7.84,3.8-11.36,11.43
				c-3.6,7.68-5.4,15.88-5.4,24.58v4.11c-3.01,0.93-6.11,2.38-9.78,2.38c-3.44,0-6.39-1.24-8.69-3.67
				c-2.02-2.09-3.02-4.17-3.02-6.33c0-0.57,0.15-1.5,0.29-2.8c0.23-1.29,0.29-2.23,0.29-2.66c0-1.08-0.29-1.58-0.93-1.58
				c-0.49,0-1.22,0.36-2.3,1.01c-6.54,4.3-12.15,6.68-16.89,8.77c-6.05,2.51-14.82,4.68-26.33,6.39
				c5.97-3.67,10.79-7.97,14.38-12.93c3.25-4.39,4.83-8.27,4.83-11.66c0-3.37-1.73-7.48-5.17-12.36c-4.32-5.95-9.28-8.98-14.97-8.98
				c-11.93,0-27.24,9.34-46.01,28.04c2.09-14.1,3.1-23.8,3.1-29.2c0-2.51-0.87-13.51-2.53-33c-1.65-19.27-2.51-29.05-2.51-29.33
				c0-1.08,0.29-1.45,0.72-0.93c3.96,4.6,5.97,5.9,5.97,3.8c0-0.65-0.23-1.65-0.59-2.95c-0.49-1.79-2.15-6.47-5.02-13.94
				c-2.66-7.19-4.47-11.58-5.17-13.16c-0.36-0.78-0.72-1.22-1.01-1.22c-0.23,0-0.51,0.36-0.8,1.14c-2.66,6.12-3.96,10.08-3.96,11.66
				c1.58,3.23,2.3,6.96,2.09,11.15c-0.08,2.59,0.86,16.17,2.72,40.76c1.94,25.01,2.89,38.33,2.89,39.98c0,10.27,0,15.31,0,15.31
				c-0.08,2.66-0.59,4.6-1.6,5.9c-2.95,3.88-6.39,8.12-10.48,12.8c-3.31,0-8.27-0.65-14.38-3.6c-1.65-0.8-2.95-1.45-4.03-1.81
				c1.5-1.86,2.87-4.68,4.17-8.41c1.52-4.47,2.23-9,2.23-13.45c0-3.8-0.65-7.48-1.86-10.86c-1.73-4.45-4.03-6.62-7.04-6.62
				c-3.23,0-7.13,3.02-11.58,9.07c-4.89,6.6-7.34,13.14-7.34,19.69c0,4.24,0.59,7.55,1.65,10.08c-6.03,3.23-13.73,4.89-23.28,4.89
				h-0.23c-4.24,0-7.61-0.65-10.27-1.94c-2.66-1.29-5.25-3.75-7.76-7.34c-1.81-2.87-3.6-5.82-5.4-8.69
				c-2.15-3.23-4.45-4.83-6.98-4.83c-3.37,0-7.11,2.02-11.2,6.05c-4.11,4.03-7.55,8.92-10.37,14.53
				c-3.16,6.83-6.32,13.66-9.42,20.56c-3.08,5.67-6.47,8.54-10.14,8.54c-9.05,0-13.66-9.78-13.66-29.41c0-4.09,0.44-9.13,1.14-15.03
				c0.15-1.35,0.23-2.36,0.08-2.95c-0.57,0.3-1.07,0.51-1.58,0.72c-0.13,0.44-0.29,0.93-0.44,1.52c-1.94,5.54-2.87,12.93-2.87,22.22
				c0,7.68,1.65,15.08,4.81,22.22c3.6,8.05,7.91,12.14,13.09,12.14c3.46,0,6.77-2.3,9.85-6.89c1.94-3.02,4.32-7.91,6.98-14.61
				c2.66-6.68,4.53-10.86,5.54-12.44c5.82-8.9,11.36-13.37,16.61-13.37c1.73,0,3.39,1.29,5.12,3.96c1.86,3.16,3.73,6.33,5.59,9.42
				c3.02,4.6,6.77,7.55,11.22,8.85c2.09,0.57,5.4,0.88,10.06,0.88h0.23c10.99-0.08,21.49-3.46,31.48-10.08
				c3.6,2.3,8.77,4.83,15.62,7.48c7.19,2.89,18.68,3.54,34.14,3.54c18.55,0,35.46-1.37,50.85-4.11c9.13-1.58,15.37-3.08,18.83-4.53
				c3.73-1.58,8.56-3.73,14.51-8.05v3.08c0,3.82,1.24,6.98,3.67,9.42c2.87,2.82,7.27,4.24,13.09,4.24c3.67,0,7.34-2,11.38-3.94
				c0.34,2.87,0.86,4.38,1.5,4.38c0.86,0,1.29-1.79,1.29-5.38c7.68-3.82,13.3-8.2,16.89-13.09c3.31-4.6,4.89-11.01,4.89-19.27
				C1172.63,905.55,1171.85,901.52,1170.27,897.56z M994.45,920.06c-1.94,1.37-3.65,2.45-5.17,3.18c-5.9-3.39-8.92-6.41-8.92-9
				c0-1.94,1.65-4.53,4.91-7.76c3.23-3.31,5.59-4.89,7.19-4.89c1.07,0,2.43,1.79,4.01,5.38c1.45,3.46,2.17,6.12,2.17,7.99
				C998.64,916.33,997.27,918.05,994.45,920.06z M1020.99,933.43c19.99-22.5,37.17-33.73,51.49-33.73c6.83,0,12.65,4.83,17.39,14.53
				c0.51,1.01,0.15,1.86-1.07,2.51C1068.16,927.82,1045.59,933.43,1020.99,933.43z M1167.02,919.34c-1.14,1.52-3.8,3.46-8.12,5.9
				c-3.88,2.17-6.96,3.67-9.34,4.55c-0.15-6.85,1.22-13.09,4.09-18.7c2.53-4.76,4.68-7.06,6.49-7.06c3.37,0,5.9,3.67,7.48,11.07
				l0.13,1.01C1168.03,917.34,1167.82,918.41,1167.02,919.34z"/>
			<path class="st0" d="M870.28,911.51c-0.58,0.29-1.08,0.5-1.58,0.72c0.43-1.01,0.79-1.44,1.08-1.44
				C870,910.79,870.21,911.01,870.28,911.51z"/>
			<path class="st0" d="M870.28,911.51c-0.58,0.29-1.08,0.5-1.58,0.72c0.43-1.01,0.79-1.44,1.08-1.44
				C870,910.79,870.21,911.01,870.28,911.51z"/>
			<path class="st0" d="M915.15,883.04l-4.6,9.56c-0.5,1.01-1.29,1.73-2.52,2.23c-6.47,2.59-15.03,6.33-25.67,11.22
				c-4.67,2.09-8.7,3.96-12.08,5.46c-0.07-0.5-0.29-0.72-0.5-0.72c-0.29,0-0.65,0.43-1.08,1.44c-7.62,3.52-11.72,5.39-12.08,5.61
				c-12.58,5.61-23.3,8.41-31.28,8.41c-7.05,0-12.15-4.46-15.17-13.45c-0.36-1.15-0.79-1.15-1.29,0
				c-4.03,10.35-9.71,15.53-17.11,15.53c-7.48,0-11.94-4.67-13.3-14.17c-0.14-0.79-0.22-1.22-0.36-1.22
				c-0.14,0.07-0.43,0.5-0.86,1.22c-1.8,2.95-4.46,5.97-7.98,9.06c-5.54,4.96-11.07,7.48-16.61,7.48c-6.04,0-10.28-1.87-12.73-5.54
				c-1.44-2.3-2.23-5.68-2.44-10.14l-0.72-0.79c-0.72,0-1.51,0.43-2.23,1.29c-4.67,5.46-7.69,8.77-9.06,9.92
				c-5.82,5.03-12.01,7.62-18.48,7.69h-0.36c-6.54-0.07-11.22-2.37-14.02-6.76c-1.87-3.24-3.31-8.7-4.1-16.47
				c-1.15-10.28-2.16-17.04-2.95-20.2c-0.86-3.02-1.65-4.6-2.44-4.6c-0.65,0-1.22,1.01-1.51,3.02
				c-2.16,12.15-5.75,18.12-11.65,18.12v-14.09c6.69,0,9.92-5.39,10.43-16.61c0.22-4.24,1.22-6.4,3.02-6.4
				c1.87,0,3.45,1.65,4.67,5.03c2.01,5.39,3.6,12.73,4.67,21.86c1.08,8.48,2.23,14.02,3.31,16.47c1.94,4.31,5.46,6.47,10.57,6.54
				h0.36c6.76-0.07,12.66-1.87,17.76-5.39c2.09-1.44,6.76-5.82,14.02-13.09c0.86-0.86,1.73-1.37,2.52-1.37
				c1.22,0,1.58,0.86,1.08,2.59c-0.58,1.65-0.86,3.24-0.86,4.67c0,3.24,1.29,5.75,4.03,7.55c2.52,1.65,5.75,2.52,9.85,2.52
				c5.68,0,11.14-2.09,16.47-6.26c0.43-0.36,2.59-2.59,6.47-6.69c3.52-3.81,5.46-5.68,5.75-5.68c0.86,0,1.01,0.79,0.43,2.52
				c-0.79,2.23-1.15,3.67-1.15,4.31c0,1.58,0.65,3.38,2.01,5.46c1.8,2.73,4.17,4.1,7.05,4.1c7.69,0,14.31-5.54,19.77-16.61
				c0.58-1.15,1.22-1.73,2.01-1.73c0.57,0,0.86,0.5,0.86,1.58c0,0.36,0,1.01-0.14,1.8c-0.14,0.86-0.22,1.51-0.22,1.94
				c0,3.24,1.01,5.82,3.02,7.84c2.01,2.01,4.53,3.02,7.62,3.02c9.71,0,18.34-1.58,25.24-4.82c-5.68-3.09-10.5-7.19-14.52-12.44
				c-5.03-6.69-7.55-13.95-7.55-21.71c0-7.84,2.73-14.31,8.2-19.27c6.4-5.82,14.02-8.7,22.87-8.7c5.61,0,11.29,1.15,17.18,3.45
				c4.6,1.73,8.41,3.74,11.22,6.04c2.37,1.87,3.52,3.02,3.52,3.38l-0.43,0.29c-0.43,0-1.44-0.29-3.09-0.72
				c-4.75-1.37-10.21-2.01-16.39-2.01c-8.56,0-16.83,1.15-24.73,3.45c-7.62,2.3-11.72,4.6-12.37,6.9
				c0.86,6.18,4.53,12.73,11.14,19.7c7.77,8.13,15.96,12.22,24.73,12.22c2.59,0,8.2-1.87,16.75-5.68
				c16.47-7.26,25.09-11,25.81-11.29c1.51-0.65,2.37-0.79,2.73-0.5C916.01,880.81,915.87,881.67,915.15,883.04z"/>
			<path class="st0" d="M669.96,892.17v14.09c-1.58,0-2.73-0.22-3.6-0.5c0,17.04-2.52,28.47-7.55,34.37
				c-5.1,6.11-12.51,12.3-22.22,18.62c-12.22,7.91-22.72,11.86-31.49,11.86c-8.05,0-14.02-3.6-17.83-10.71
				c-2.66-4.89-4.03-10.57-4.03-16.9c0-9.85,2.09-19.85,6.26-29.98c0.86-2.23,1.51-3.31,1.94-3.31l0.29,0.65
				c0,0.72-0.22,1.8-0.65,3.24c-2.88,10.14-4.31,17.76-4.31,23.01c0,4.6,1.51,8.92,4.46,13.01c3.45,4.89,7.98,7.33,13.45,7.33
				c6.4,0,14.31-2.52,23.8-7.69c7.55-4.03,15.03-9.13,22.51-15.24c6.54-5.39,10.28-9.06,11.22-11.07c0-7.91-2.23-16.25-6.69-25.09
				c-0.79-1.65-1.22-3.02-1.22-3.96c0-0.65,0.86-3.95,2.73-9.92c0.29-1.08,0.72-1.65,1.15-1.65s1.01,0.79,1.73,2.3
				c1.29,2.8,2.23,4.46,2.8,5.11C664.28,891.38,666.65,892.17,669.96,892.17z"/>
			<path class="st0" d="M1336.88,941.14c-0.24-0.09-0.92,0.16-2.04,0.77c-1.36,0.84-2.72,1.71-4.08,2.6
				c-1.92,1.17-3.28,1.76-4.08,1.76c-0.84,0-1.97-0.38-3.38-1.13c-1.41-0.75-2.11-1.48-2.11-2.18c0-0.61,0.57-1.31,1.72-2.11
				c1.15-0.8,2.15-1.2,2.99-1.2c1.03,0,1.88,0.68,2.53,2.04l0.77,0.21c1.13-1.83,1.69-3.4,1.69-4.71c0-2.35-1.03-3.52-3.1-3.52
				c-2.3,0-5.18,2.09-8.65,6.26c-1.78,2.16-2.67,4.27-2.67,6.33c0,1.83,1.69,3.35,5.07,4.57c-2.72,2.11-4.15,3.54-4.29,4.29
				l-0.49,3.03l0.21,0.49l1.34-0.91c8.68-5.91,14.31-9.66,16.89-11.26c0.66-0.61,1.22-1.9,1.69-3.87
				C1337.07,941.73,1337.07,941.24,1336.88,941.14z"/>
			<path class="st0" d="M1197.6,830.74c-3-2.02-4.71-3.03-5.14-3.03l-0.91,0.84l-4.5,9.22v0.84c3.75,2.34,7.39,4.85,10.91,7.53
				c0.42,0.33,0.82,0.16,1.2-0.49c1.27-2.06,2.56-4.57,3.87-7.53c3.89,2.53,7.39,4.95,10.48,7.25l1.2-0.49
				c3.14-5.07,4.71-8.4,4.71-9.99c0-0.42-1.78-1.85-5.35-4.29c-3.57-2.44-5.58-3.66-6.05-3.66l-0.91,0.84l-3.59,7.39
				C1202.57,834.24,1200.6,832.76,1197.6,830.74z"/>
			<path class="st0" d="M886.51,923.26c0-0.36-1.53-1.58-4.57-3.67c-3.05-2.09-4.77-3.13-5.18-3.13l-0.78,0.72l-3.85,7.88v0.72
				c2.73,1.77,5.46,3.63,8.19,5.6l-3.85,7.89V940c3.21,2.01,6.32,4.15,9.33,6.44c0.36,0.28,0.7,0.14,1.02-0.42
				c2.69-4.33,4.03-7.18,4.03-8.55c0-0.72-2.71-2.73-8.13-6.02C885.24,927.28,886.51,924.55,886.51,923.26z"/>
			<path class="st0" d="M677.88,951.83c-3-2.02-4.71-3.03-5.14-3.03l-0.91,0.84l-4.5,9.22v0.84c3.75,2.34,7.39,4.85,10.91,7.53
				c0.42,0.33,0.82,0.16,1.2-0.49c1.27-2.06,2.56-4.57,3.87-7.53c3.89,2.53,7.39,4.95,10.48,7.25l1.2-0.49
				c3.14-5.07,4.71-8.4,4.71-9.99c0-0.42-1.78-1.85-5.35-4.29c-3.57-2.44-5.58-3.66-6.05-3.66l-0.91,0.84l-3.59,7.39
				C682.85,955.32,680.88,953.84,677.88,951.83z"/>
			<path class="st0" d="M1124.36,900.74c0.42,0.33,0.82,0.16,1.2-0.49c3.14-5.07,4.71-8.4,4.71-9.99c0-0.42-1.78-1.85-5.35-4.29
				c-3.56-2.44-5.58-3.66-6.05-3.66l-0.91,0.84l-4.5,9.22v0.84C1117.21,895.56,1120.85,898.07,1124.36,900.74z"/>
			<path class="st0" d="M983.33,863.53c-3-2.02-4.71-3.03-5.14-3.03l-0.91,0.84l-4.5,9.22v0.84c3.75,2.34,7.39,4.85,10.91,7.53
				c0.42,0.33,0.82,0.16,1.2-0.49c1.27-2.06,2.56-4.57,3.87-7.53c3.89,2.53,7.39,4.95,10.48,7.25l1.2-0.49
				c3.14-5.07,4.71-8.4,4.71-9.99c0-0.42-1.78-1.85-5.35-4.29c-3.57-2.44-5.58-3.66-6.05-3.66l-0.91,0.84l-3.59,7.39
				C988.3,867.03,986.33,865.55,983.33,863.53z"/>
			<path class="st0" d="M1314.25,970.17c7.75-5.61,14.88-10.62,21.39-15.02c0.4-0.54,0.75-1.91,1.05-4.12
				c0.11-0.71,0.06-1.1-0.16-1.19c-0.16-0.06-0.57,0.15-1.23,0.6c-10.01,6.86-19.6,13.42-28.77,19.67L1314.25,970.17z"/>
			<path class="st0" d="M1114.84,969.37c21.81-8.82,40.81-16.21,56.99-22.16c0.52-0.42,1.2-1.66,2.04-3.73
				c0.28-0.66,0.33-1.06,0.14-1.2c-0.14-0.09-0.59,0-1.34,0.28c-19.28,7.13-37.76,13.98-55.44,20.54
				C1116.1,965.36,1115.31,967.45,1114.84,969.37z"/>
			<path class="st0" d="M1039.69,834.05c2.72-1.6,15.74-6.73,39.05-15.41c22.84-8.54,34.41-12.95,34.69-13.23
				c0.52-0.42,1.2-1.66,2.04-3.73c0.28-0.66,0.33-1.06,0.14-1.2c-0.14-0.09-0.59,0-1.34,0.28c-24.86,9.24-48.92,18.2-72.19,26.88
				C1040.96,829.99,1040.16,832.12,1039.69,834.05z"/>
			<path class="st0" d="M740.37,970.24c21.81-8.82,40.81-16.21,56.99-22.16c0.52-0.42,1.2-1.66,2.04-3.73
				c0.28-0.66,0.33-1.06,0.14-1.2c-0.14-0.09-0.59,0-1.34,0.28c-19.28,7.13-37.76,13.98-55.44,20.54
				C741.63,966.23,740.83,968.31,740.37,970.24z"/>
			<path class="st0" d="M1083.59,856.28c-1.31-0.76-2.4-1.12-3.23-1.12c-2.87,0-6.6,2.13-11.18,6.39
				c2.89-5.57,4.36-10.04,4.36-13.37c0-4.77-1.64-7.17-4.93-7.17c-1.41,0-2.83,0.76-4.3,2.24c-1.45,1.5-2.17,3.21-2.17,5.14
				c0,1.08,0.06,1.64,0.21,1.64l1.05-0.93c1.27-1.35,2.61-2.04,4.01-2.04c0.7,0,1.37,0.51,2.02,1.56c0.63,1.03,0.95,2.23,0.95,3.58
				c0,0.38-1.2,4.15-3.6,11.34c-1.64,2.21-3.23,3.79-4.79,4.77c-4.68,0.8-9.13,0.99-13.35,0.57c-1.14-0.1-1.79-0.11-1.98-0.08
				l0.29,0.67l1.05,0.95c0.8,0.67,2.47,1.48,5,2.47c2.72,1.03,4.76,1.54,6.12,1.54c8.26,0,15.77-2.42,22.58-7.25
				c0.89-0.61,1.85-1.92,2.89-3.94c0.93-1.88,1.41-3.2,1.41-3.94C1085.99,858.18,1085.19,857.18,1083.59,856.28z M1075.77,865.07
				c-3.46,1.5-6.41,2.4-8.86,2.68c1.08-1.31,2.87-2.82,5.35-4.47c2.49-1.67,4.28-2.51,5.35-2.51c0.7,0,1.39,0.21,2.05,0.61
				c0.65,0.4,0.99,0.74,0.99,1.01C1080.64,862.83,1079.01,863.7,1075.77,865.07z"/>
			<path class="st0" d="M752.21,878.21c3.52-3.42,7.01-6.85,10.48-10.27c4.78-4.41,9.5-6.61,14.14-6.61c0.61,0,1.54,0.21,2.78,0.63
				c1.24,0.42,2.26,0.63,3.06,0.63c2.72,0,5.49-1.48,8.3-4.43c3.38,1.64,5.86,1.92,7.46,0.84c0.61-0.42,1.25-1.59,1.93-3.52
				c0.68-1.92,1.02-3.61,1.02-5.07c0-1.73-0.42-3.03-1.27-3.87c-0.19-0.19-0.75,0.52-1.69,2.11c-0.56,0.89-0.77,1.57-0.63,2.04
				c0.47,1.69,0.68,2.58,0.63,2.67l-0.63,0.28c-3.57,0-5.21-0.35-4.93-1.06c0.56-1.41,0.84-2.42,0.84-3.03l-0.35-0.63
				c-0.47,0-1.01,0.47-1.62,1.41c-0.84,1.31-1.69,2.63-2.53,3.94c-1.08,1.31-2.49,1.97-4.22,1.97c-0.94,0-2.06-0.22-3.38-0.67
				c-1.31-0.45-2.37-0.67-3.17-0.67c-3.38,0-6.73,1.22-10.06,3.66c-2.72,2.02-5.28,4.43-7.67,7.25c-3.47,4.08-6.17,7.06-8.09,8.94
				c-3.8,2.91-6.61,4.85-8.44,5.84c-1.92,1.17-2.88,1.83-2.88,1.97l0.14,0.07c0.38,0,1.85-0.38,4.43-1.13
				C747.99,880.91,750.1,879.8,752.21,878.21z"/>
			<path class="st0" d="M594.87,903.28c-2.11,0-3.17-1.95-3.17-5.84c0-2.86,1.17-7.86,3.52-14.99c0.52-1.59,0.77-2.56,0.77-2.88
				l-0.07-0.07c-0.19,0.05-0.73,0.91-1.62,2.6c-3.61,6.85-5.42,13.39-5.42,19.63c0,5.07,1.52,7.6,4.57,7.6
				c2.86,0,4.93-3.45,6.19-10.34v-0.7l-0.21-0.07l-0.42,0.63C597.47,901.8,596.09,903.28,594.87,903.28z"/>
			<path class="st0" d="M711.35,822.17c-2.11,0-3.17-1.95-3.17-5.84c0-2.86,1.17-7.86,3.52-14.99c0.52-1.59,0.77-2.56,0.77-2.88
				l-0.07-0.07c-0.19,0.05-0.73,0.91-1.62,2.6c-3.61,6.85-5.42,13.39-5.42,19.63c0,5.07,1.52,7.6,4.57,7.6
				c2.86,0,4.93-3.45,6.19-10.34v-0.7l-0.21-0.07l-0.42,0.63C713.95,820.69,712.57,822.17,711.35,822.17z"/>
			<path class="st0" d="M628.52,877.39c-2.11,0-3.17-1.95-3.17-5.84c0-2.86,1.17-7.86,3.52-14.99c0.52-1.59,0.77-2.56,0.77-2.88
				l-0.07-0.07c-0.19,0.05-0.73,0.91-1.62,2.6c-3.61,6.85-5.42,13.39-5.42,19.63c0,5.07,1.52,7.6,4.57,7.6
				c2.86,0,4.93-3.45,6.19-10.34v-0.7l-0.21-0.07l-0.42,0.63C631.12,875.91,629.74,877.39,628.52,877.39z"/>
			<path class="st0" d="M783.83,821.31c-2.11,0-3.17-1.95-3.17-5.84c0-2.86,1.17-7.86,3.52-14.99c0.52-1.59,0.77-2.56,0.77-2.88
				l-0.07-0.07c-0.19,0.05-0.73,0.91-1.62,2.6c-3.61,6.85-5.42,13.39-5.42,19.63c0,5.07,1.52,7.6,4.57,7.6
				c2.86,0,4.93-3.45,6.19-10.34v-0.7l-0.21-0.07l-0.42,0.63C786.43,819.83,785.05,821.31,783.83,821.31z"/>
			<path class="st0" d="M1004.72,821.31c-2.11,0-3.17-1.95-3.17-5.84c0-2.86,1.17-7.86,3.52-14.99c0.52-1.59,0.77-2.56,0.77-2.88
				l-0.07-0.07c-0.19,0.05-0.73,0.91-1.62,2.6c-3.61,6.85-5.42,13.39-5.42,19.63c0,5.07,1.52,7.6,4.57,7.6
				c2.86,0,4.93-3.45,6.19-10.34v-0.7l-0.21-0.07l-0.42,0.63C1007.32,819.83,1005.93,821.31,1004.72,821.31z"/>
			<path class="st0" d="M1107.39,838.56c-2.11,0-3.17-1.95-3.17-5.84c0-2.86,1.17-7.86,3.52-14.99c0.52-1.59,0.77-2.56,0.77-2.88
				l-0.07-0.07c-0.19,0.05-0.73,0.91-1.62,2.6c-3.61,6.85-5.42,13.39-5.42,19.63c0,5.07,1.52,7.6,4.57,7.6
				c2.86,0,4.93-3.45,6.19-10.34v-0.7l-0.21-0.07l-0.42,0.63C1110,837.09,1108.61,838.56,1107.39,838.56z"/>
			<path class="st0" d="M1234.23,822.17c-2.11,0-3.17-1.95-3.17-5.84c0-2.86,1.17-7.86,3.52-14.99c0.52-1.59,0.77-2.56,0.77-2.88
				l-0.07-0.07c-0.19,0.05-0.73,0.91-1.62,2.6c-3.61,6.85-5.42,13.39-5.42,19.63c0,5.07,1.52,7.6,4.57,7.6
				c2.86,0,4.93-3.45,6.19-10.34v-0.7l-0.21-0.07l-0.42,0.63C1236.83,820.69,1235.45,822.17,1234.23,822.17z"/>
			<path class="st0" d="M724.29,965.4c-2.11,0-3.17-1.95-3.17-5.84c0-2.86,1.17-7.86,3.52-14.99c0.52-1.59,0.77-2.56,0.77-2.88
				l-0.07-0.07c-0.19,0.05-0.73,0.91-1.62,2.6c-3.61,6.85-5.42,13.39-5.42,19.63c0,5.07,1.52,7.6,4.57,7.6
				c2.86,0,4.93-3.45,6.19-10.34v-0.7l-0.21-0.07l-0.42,0.63C726.9,963.92,725.51,965.4,724.29,965.4z"/>
			<path class="st0" d="M716.53,900.69c-2.11,0-3.17-1.95-3.17-5.84c0-2.86,1.17-7.86,3.52-14.99c0.52-1.59,0.77-2.56,0.77-2.88
				l-0.07-0.07c-0.19,0.05-0.73,0.91-1.62,2.6c-3.61,6.85-5.42,13.39-5.42,19.63c0,5.07,1.52,7.6,4.57,7.6
				c2.86,0,4.93-3.45,6.19-10.34v-0.7l-0.21-0.07l-0.42,0.63C719.13,899.21,717.75,900.69,716.53,900.69z"/>
			<path class="st0" d="M957.26,904.14c-2.11,0-3.17-1.95-3.17-5.84c0-2.86,1.17-7.86,3.52-14.99c0.52-1.59,0.77-2.56,0.77-2.88
				l-0.07-0.07c-0.19,0.05-0.73,0.91-1.62,2.6c-3.61,6.85-5.42,13.39-5.42,19.63c0,5.07,1.52,7.6,4.57,7.6
				c2.86,0,4.93-3.45,6.19-10.34v-0.7l-0.21-0.07l-0.42,0.63C959.86,902.66,958.48,904.14,957.26,904.14z"/>
			<path class="st0" d="M918.43,967.13c-2.11,0-3.17-1.95-3.17-5.84c0-2.86,1.17-7.86,3.52-14.99c0.52-1.59,0.77-2.56,0.77-2.88
				l-0.07-0.07c-0.19,0.05-0.73,0.91-1.62,2.6c-3.61,6.85-5.42,13.39-5.42,19.63c0,5.07,1.52,7.6,4.57,7.6
				c2.86,0,4.93-3.45,6.19-10.34v-0.7l-0.21-0.07l-0.42,0.63C921.04,965.65,919.65,967.13,918.43,967.13z"/>
			<path class="st0" d="M984.87,965.4c-2.11,0-3.17-1.95-3.17-5.84c0-2.86,1.17-7.86,3.52-14.99c0.52-1.59,0.77-2.56,0.77-2.88
				l-0.07-0.07c-0.19,0.05-0.73,0.91-1.62,2.6c-3.61,6.85-5.42,13.39-5.42,19.63c0,5.07,1.52,7.6,4.57,7.6
				c2.86,0,4.93-3.45,6.19-10.34v-0.7l-0.21-0.07l-0.42,0.63C987.47,963.92,986.09,965.4,984.87,965.4z"/>
			<path class="st0" d="M1229.05,967.13c-2.11,0-3.17-1.95-3.17-5.84c0-2.86,1.17-7.86,3.52-14.99c0.52-1.59,0.77-2.56,0.77-2.88
				l-0.07-0.07c-0.19,0.05-0.73,0.91-1.62,2.6c-3.61,6.85-5.42,13.39-5.42,19.63c0,5.07,1.52,7.6,4.57,7.6
				c2.86,0,4.93-3.45,6.19-10.34v-0.7l-0.21-0.07l-0.42,0.63C1231.66,965.65,1230.27,967.13,1229.05,967.13z"/>
			<path class="st0" d="M765.71,901.55c-2.11,0-3.17-1.95-3.17-5.84c0-2.86,1.17-7.86,3.52-14.99c0.52-1.59,0.77-2.56,0.77-2.88
				l-0.07-0.07c-0.19,0.05-0.73,0.91-1.62,2.6c-3.61,6.85-5.42,13.39-5.42,19.63c0,5.07,1.52,7.6,4.57,7.6
				c2.86,0,4.93-3.45,6.19-10.34v-0.7l-0.21-0.07l-0.42,0.63C768.31,900.07,766.93,901.55,765.71,901.55z"/>
			<path class="st0" d="M701.8,833.93c-1.08,1.81-1.62,2.87-1.62,3.2c0,0.7,0.65,1.64,1.93,2.81c1.29,1.17,2.33,1.76,3.13,1.76
				c0.7,0,1.13-0.16,1.27-0.49l0.98-0.49c0.75,0,2.02,2.24,3.8,6.72c1.78,4.48,2.67,7.49,2.67,9.04c0,0.99,0.19,1.48,0.56,1.48
				c0.42,0,0.94-0.54,1.55-1.62c0.84-1.6,1.62-4.32,2.32-8.16c1.59-8.87,3.33-13.3,5.21-13.3c0.84,0,1.66,0.5,2.46,1.51
				c0.8,1.01,1.31,1.51,1.55,1.51c0.56,0,1.06-0.66,1.48-1.97c0.33-0.99,0.49-1.78,0.49-2.39c0-0.8-0.47-1.83-1.41-3.1
				c-1.08-1.45-2.16-2.18-3.24-2.18c-2.11,0-4.06,2.14-5.84,6.4c-1.64,5.96-2.67,10.44-3.1,13.44l-0.35,0.91h-0.21l-0.14-0.91
				c-0.84-5.02-2.31-9.09-4.4-12.21c-2.09-3.12-4.44-4.68-7.07-4.68C703.56,831.22,702.88,832.13,701.8,833.93z"/>
			<path class="st0" d="M612.93,911.59c-1.08,1.81-1.62,2.87-1.62,3.2c0,0.7,0.65,1.64,1.93,2.81c1.29,1.17,2.33,1.76,3.13,1.76
				c0.7,0,1.13-0.16,1.27-0.49l0.99-0.49c0.75,0,2.02,2.24,3.8,6.72c1.78,4.48,2.67,7.49,2.67,9.04c0,0.99,0.19,1.48,0.56,1.48
				c0.42,0,0.94-0.54,1.55-1.62c0.84-1.6,1.62-4.32,2.32-8.16c1.59-8.87,3.33-13.3,5.21-13.3c0.84,0,1.66,0.5,2.46,1.51
				c0.8,1.01,1.31,1.51,1.55,1.51c0.56,0,1.06-0.66,1.48-1.97c0.33-0.99,0.49-1.78,0.49-2.39c0-0.8-0.47-1.83-1.41-3.1
				c-1.08-1.45-2.16-2.18-3.24-2.18c-2.11,0-4.06,2.14-5.84,6.4c-1.64,5.96-2.67,10.44-3.1,13.44l-0.35,0.91h-0.21l-0.14-0.91
				c-0.84-5.02-2.31-9.09-4.4-12.21c-2.09-3.12-4.44-4.68-7.07-4.68C614.69,908.88,614.01,909.78,612.93,911.59z"/>
			<path class="st0" d="M955.48,805.46c-1.08,1.81-1.62,2.87-1.62,3.2c0,0.7,0.65,1.64,1.93,2.81c1.29,1.17,2.33,1.76,3.13,1.76
				c0.7,0,1.13-0.16,1.27-0.49l0.99-0.49c0.75,0,2.02,2.24,3.8,6.72c1.78,4.48,2.67,7.49,2.67,9.04c0,0.99,0.19,1.48,0.56,1.48
				c0.42,0,0.94-0.54,1.55-1.62c0.84-1.6,1.62-4.32,2.32-8.16c1.59-8.87,3.33-13.3,5.21-13.3c0.84,0,1.66,0.5,2.46,1.51
				c0.8,1.01,1.31,1.51,1.55,1.51c0.56,0,1.06-0.66,1.48-1.97c0.33-0.99,0.49-1.78,0.49-2.39c0-0.8-0.47-1.83-1.41-3.1
				c-1.08-1.45-2.16-2.18-3.24-2.18c-2.11,0-4.06,2.14-5.84,6.4c-1.64,5.96-2.67,10.44-3.1,13.44l-0.35,0.91h-0.21l-0.14-0.91
				c-0.84-5.02-2.31-9.09-4.4-12.21c-2.09-3.12-4.44-4.68-7.07-4.68C957.24,802.75,956.56,803.65,955.48,805.46z"/>
			<path class="st0" d="M1094.4,851.19c-1.08,1.81-1.62,2.87-1.62,3.2c0,0.7,0.65,1.64,1.93,2.81c1.29,1.17,2.33,1.76,3.13,1.76
				c0.7,0,1.13-0.16,1.27-0.49l0.98-0.49c0.75,0,2.02,2.24,3.8,6.72c1.78,4.48,2.67,7.49,2.67,9.04c0,0.99,0.19,1.48,0.56,1.48
				c0.42,0,0.94-0.54,1.55-1.62c0.84-1.6,1.62-4.32,2.32-8.16c1.59-8.87,3.33-13.3,5.21-13.3c0.84,0,1.66,0.5,2.46,1.51
				c0.8,1.01,1.31,1.51,1.55,1.51c0.56,0,1.06-0.66,1.48-1.97c0.33-0.99,0.49-1.78,0.49-2.39c0-0.8-0.47-1.83-1.41-3.1
				c-1.08-1.45-2.16-2.18-3.24-2.18c-2.11,0-4.06,2.14-5.84,6.4c-1.64,5.96-2.67,10.44-3.1,13.44l-0.35,0.91h-0.21l-0.14-0.91
				c-0.84-5.02-2.31-9.09-4.4-12.21c-2.09-3.12-4.44-4.68-7.07-4.68C1096.15,848.48,1095.48,849.38,1094.4,851.19z"/>
			<path class="st0" d="M649.17,802.01c-1.08,1.81-1.62,2.87-1.62,3.2c0,0.7,0.65,1.64,1.93,2.81c1.29,1.17,2.33,1.76,3.13,1.76
				c0.7,0,1.13-0.16,1.27-0.49l0.98-0.49c0.75,0,2.02,2.24,3.8,6.72c1.78,4.48,2.67,7.49,2.67,9.04c0,0.99,0.19,1.48,0.56,1.48
				c0.42,0,0.94-0.54,1.55-1.62c0.84-1.6,1.62-4.32,2.32-8.16c1.59-8.87,3.33-13.3,5.21-13.3c0.84,0,1.66,0.5,2.46,1.51
				c0.8,1.01,1.31,1.51,1.55,1.51c0.56,0,1.06-0.66,1.48-1.97c0.33-0.99,0.49-1.78,0.49-2.39c0-0.8-0.47-1.83-1.41-3.1
				c-1.08-1.45-2.16-2.18-3.24-2.18c-2.11,0-4.06,2.14-5.84,6.4c-1.64,5.96-2.67,10.44-3.1,13.44l-0.35,0.91h-0.21l-0.14-0.91
				c-0.84-5.02-2.31-9.09-4.4-12.21c-2.09-3.12-4.44-4.68-7.07-4.68C650.93,799.3,650.25,800.2,649.17,802.01z"/>
			<path class="st0" d="M936.15,867.7c2.72-1.6,15.74-6.73,39.05-15.41c22.84-8.54,34.41-12.95,34.69-13.23
				c0.52-0.42,1.2-1.66,2.04-3.73c0.28-0.66,0.33-1.06,0.14-1.2c-0.14-0.09-0.59,0-1.34,0.28c-24.86,9.24-48.92,18.2-72.19,26.88
				C937.42,863.64,936.62,865.77,936.15,867.7z"/>
			<path class="st0" d="M770.14,848.95c43.15-17.07,83.3-32.55,120.45-46.44c0.52-0.47,1.2-1.71,2.04-3.73
				c0.28-0.66,0.33-1.06,0.14-1.2c-0.14-0.09-0.59,0-1.34,0.28c-40.43,15.2-80.07,30.09-118.91,44.68
				C771.41,844.84,770.61,846.98,770.14,848.95z"/>
			<path class="st0" d="M1203.83,809.09c1.03-3.1,1.56-5.88,1.56-8.37c0-2.78-0.78-4.43-2.34-5c-1.83-0.65-4.13,0.27-6.89,2.76
				c-2.78,2.47-4.15,5.21-4.15,8.22c0,2.49,2.17,4.85,6.54,7.11c-3.29,3.42-8.26,7.15-14.91,11.18c-5.59,3.33-11.15,6.64-16.68,9.93
				c-1.31,0.84-1.98,1.39-1.98,1.67l0.29,0.15c0.38,0,1.16-0.21,2.32-0.65c7.51-2.76,11.64-4.34,12.38-4.7
				c3.58-1.6,7.49-3.98,11.76-7.11c3.75-2.78,6.85-5.84,9.28-9.23c2.11,1.27,3.44,2.36,4.01,3.25c1.98-2.82,2.95-4.81,2.95-5.99
				C1207.42,811.43,1206.03,810.36,1203.83,809.09z M1201.22,807.76c-3.46-1.69-5.19-3.08-5.19-4.15c0-0.48,0.44-0.95,1.33-1.45
				c0.89-0.49,1.6-0.74,2.11-0.74c1.07,0,1.75,0.74,2.04,2.24C1201.74,805.04,1201.64,806.39,1201.22,807.76z"/>
			<path class="st0" d="M930.03,813.41c1.03-3.1,1.54-5.9,1.54-8.37c0-2.78-0.78-4.43-2.32-5c-1.83-0.65-4.13,0.27-6.89,2.74
				c-2.78,2.49-4.17,5.23-4.17,8.24c0,2.49,2.19,4.85,6.54,7.11c-3.27,3.42-8.26,7.15-14.91,11.18c-5.57,3.33-11.13,6.64-16.66,9.91
				c-1.31,0.86-1.98,1.41-1.98,1.69l0.29,0.13c0.38,0,1.14-0.21,2.32-0.63c7.49-2.76,11.62-4.34,12.38-4.72
				c3.56-1.58,7.48-3.96,11.76-7.1c3.75-2.78,6.85-5.84,9.28-9.23c2.11,1.27,3.44,2.36,4.01,3.23c1.96-2.82,2.95-4.79,2.95-5.97
				C933.6,815.75,932.23,814.66,930.03,813.41z M927.42,812.08c-3.48-1.69-5.21-3.08-5.21-4.17c0-0.46,0.46-0.95,1.33-1.45
				c0.89-0.48,1.6-0.72,2.11-0.72c1.08,0,1.77,0.74,2.05,2.24C927.94,809.35,927.84,810.71,927.42,812.08z"/>
			<path class="st0" d="M635.8,811.68c1.03-3.1,1.54-5.88,1.54-8.37c0-2.78-0.76-4.43-2.32-5c-1.83-0.65-4.13,0.27-6.89,2.76
				c-2.78,2.47-4.17,5.23-4.17,8.22c0,2.49,2.19,4.87,6.54,7.11c-3.27,3.42-8.24,7.15-14.91,11.18c-5.57,3.33-11.13,6.64-16.66,9.93
				c-1.31,0.84-1.98,1.41-1.98,1.67l0.29,0.15c0.38,0,1.14-0.21,2.32-0.65c7.51-2.76,11.64-4.34,12.38-4.7
				c3.56-1.6,7.48-3.98,11.76-7.11c3.75-2.76,6.85-5.84,9.28-9.21c2.11,1.26,3.44,2.34,4.01,3.23c1.96-2.82,2.95-4.81,2.95-5.99
				C639.39,814.02,638,812.95,635.8,811.68z M633.19,810.34c-3.46-1.69-5.21-3.08-5.21-4.15c0-0.48,0.46-0.95,1.35-1.45
				c0.88-0.49,1.58-0.74,2.11-0.74c1.07,0,1.75,0.74,2.04,2.24C633.71,807.62,633.61,808.97,633.19,810.34z"/>
			<path class="st0" d="M1292.47,833.73c-0.09,1.03-0.02,1.55,0.21,1.55c0.14,0,0.68-0.61,1.62-1.83c0.94-1.22,1.67-1.83,2.18-1.83
				c1.08,0,2.21,0.59,3.38,1.76c-2.86,0.84-4.81,1.69-5.84,2.53c-2.16,1.78-3.24,4.57-3.24,8.37c0,1.13,0.8,5.52,2.39,13.19
				c1.59,7.67,2.39,14.22,2.39,19.66c0,3.28,0.14,4.92,0.42,4.92c0.14-0.05,0.33-0.56,0.56-1.55c0.61-2.86,0.91-5.68,0.91-8.44
				c0-9.43-1.59-18.97-4.78-28.64c1.13-1.27,3.12-2.37,5.98-3.31c2.3-0.61,4.6-1.24,6.9-1.9c0.28-0.09,0.77-0.93,1.48-2.5
				c0.7-1.57,1.03-2.54,0.98-2.92c-0.24-1.41-1.56-3.08-3.98-5.03c-2.42-1.95-4.37-2.99-5.88-3.13c0.99-2.11,1.78-4.85,2.39-8.23
				c1.59-8.87,3.33-13.3,5.21-13.3c0.84,0,1.66,0.5,2.46,1.51c0.8,1.01,1.31,1.51,1.55,1.51c0.56,0,1.06-0.66,1.48-1.97
				c0.33-0.98,0.49-1.78,0.49-2.39c0-0.8-0.47-1.83-1.41-3.1c-1.08-1.45-2.16-2.18-3.24-2.18c-2.11,0-4.06,2.14-5.84,6.4
				c-1.64,5.96-2.67,10.44-3.1,13.44l-0.35,0.92h-0.21l-0.14-0.92c-0.84-5.02-2.31-9.09-4.4-12.21c-2.09-3.12-4.44-4.68-7.07-4.68
				c-0.28,0-0.96,0.9-2.04,2.71c-1.08,1.81-1.62,2.87-1.62,3.2c0,0.7,0.65,1.64,1.93,2.81c1.29,1.17,2.33,1.76,3.13,1.76
				c0.7,0,1.13-0.16,1.27-0.49l0.99-0.49c0.7,0,1.9,2.06,3.59,6.19c1.6,3.8,2.7,7.06,3.31,9.78
				C1294.35,825.88,1292.99,828.81,1292.47,833.73z"/>
			<path class="st0" d="M1139.75,832.87c-0.09,1.03-0.02,1.55,0.21,1.55c0.14,0,0.68-0.61,1.62-1.83c0.94-1.22,1.67-1.83,2.18-1.83
				c1.08,0,2.21,0.59,3.38,1.76c-2.86,0.84-4.81,1.69-5.84,2.53c-2.16,1.78-3.24,4.57-3.24,8.37c0,1.13,0.8,5.52,2.39,13.19
				c1.6,7.67,2.39,14.22,2.39,19.66c0,3.28,0.14,4.92,0.42,4.92c0.14-0.05,0.33-0.56,0.56-1.55c0.61-2.86,0.91-5.68,0.91-8.44
				c0-9.43-1.59-18.97-4.78-28.64c1.13-1.27,3.12-2.37,5.98-3.31c2.3-0.61,4.6-1.24,6.9-1.9c0.28-0.09,0.77-0.93,1.48-2.5
				c0.7-1.57,1.03-2.54,0.99-2.92c-0.24-1.41-1.56-3.08-3.98-5.03c-2.42-1.95-4.37-2.99-5.88-3.13c0.99-2.11,1.78-4.85,2.39-8.23
				c1.59-8.87,3.33-13.3,5.21-13.3c0.84,0,1.66,0.5,2.46,1.51c0.8,1.01,1.31,1.51,1.55,1.51c0.56,0,1.06-0.66,1.48-1.97
				c0.33-0.98,0.49-1.78,0.49-2.39c0-0.8-0.47-1.83-1.41-3.1c-1.08-1.45-2.16-2.18-3.24-2.18c-2.11,0-4.06,2.14-5.84,6.4
				c-1.64,5.96-2.67,10.44-3.1,13.44l-0.35,0.92h-0.21l-0.14-0.92c-0.84-5.02-2.31-9.09-4.4-12.21c-2.09-3.12-4.44-4.68-7.07-4.68
				c-0.28,0-0.96,0.9-2.04,2.71c-1.08,1.81-1.62,2.87-1.62,3.2c0,0.7,0.65,1.64,1.93,2.81c1.29,1.17,2.33,1.76,3.13,1.76
				c0.7,0,1.13-0.16,1.27-0.49l0.99-0.49c0.7,0,1.9,2.06,3.59,6.19c1.59,3.8,2.7,7.06,3.31,9.78
				C1141.63,825.01,1140.27,827.95,1139.75,832.87z"/>
			<path class="st0" d="M842.92,960.08c0-0.8,0.28-1.71,0.84-2.74c2.99-5.44,7.57-10.25,13.73-14.42c1.59-2.2,2.38-4.39,2.38-6.54
				c0-0.98-0.21-1.31-0.63-0.98c-1.22,1.13-2.42,2.23-3.59,3.31c-2.02,1.74-3.49,2.6-4.43,2.6c-2.81,0-4.81-0.96-5.98-2.88
				c0-0.75,0.48-1.69,1.44-2.81c0.96-1.13,1.77-1.69,2.43-1.69c1.27,0,2.09,0.73,2.46,2.18c0.09,0.28,0.63-0.28,1.62-1.69
				c0.99-1.41,1.48-2.3,1.48-2.67c0-0.84-0.25-1.64-0.74-2.39c-0.49-0.75-0.97-1.13-1.44-1.13c-1.78,0-4.14,1.64-7.07,4.93
				c-2.93,3.28-4.4,6.1-4.4,8.44c0,2.77,1.83,4.69,5.49,5.77c-4.17,5.35-6.26,10.46-6.26,15.34c0,1.83,0.73,3.34,2.18,4.54
				c1.45,1.2,3.33,1.79,5.63,1.79c7.36,0,13.39-2.11,18.08-6.33c1.13-0.98,1.69-1.57,1.69-1.76c0-0.19-0.75-0.07-2.24,0.35
				c-5.38,1.59-10.38,2.39-15.01,2.39C845.47,963.67,842.92,962.47,842.92,960.08z"/>
			<path class="st0" d="M1275.3,916.13c0,5.63,1.45,8.44,4.36,8.44c2.86,0,4.93-3.45,6.19-10.34v-0.7l-0.21-0.07l-0.42,0.63
				c-1.55,2.95-2.93,4.43-4.15,4.43c-2.11,0-3.17-1.95-3.17-5.84c0-1.92,0.99-5.41,2.96-10.45c1.97-5.04,2.95-9.82,2.95-14.32
				c0-9.38-3.05-16.58-9.15-21.6h-0.92l-2.11,3.73l0.21,1.55c6.1,6.1,9.15,12.45,9.15,19.07c0,3.47-0.68,6.97-2.04,10.48
				c-1.73,4.5-2.86,8.35-3.38,11.54C1275.39,913.86,1275.3,915.01,1275.3,916.13z"/>
			<path class="st0" d="M919.81,893.7c0,5.63,1.45,8.44,4.36,8.44c2.86,0,4.92-3.45,6.19-10.34v-0.7l-0.21-0.07l-0.42,0.63
				c-1.55,2.95-2.93,4.43-4.15,4.43c-2.11,0-3.17-1.95-3.17-5.84c0-1.92,0.99-5.41,2.96-10.45c1.97-5.04,2.95-9.82,2.95-14.32
				c0-9.38-3.05-16.58-9.15-21.6h-0.91l-2.11,3.73l0.21,1.55c6.1,6.1,9.15,12.45,9.15,19.07c0,3.47-0.68,6.97-2.04,10.48
				c-1.73,4.5-2.86,8.35-3.38,11.54C919.91,891.42,919.81,892.57,919.81,893.7z"/>
			<path class="st0" d="M1052.54,796.76c-3.1,0-5.07,1.97-5.91,5.91c-0.14,0.8-0.23,1.29-0.28,1.48l0.35,0.21l1.06-0.63
				c0.75-0.52,1.59-0.77,2.53-0.77c1.69,0,2.53,0.91,2.53,2.74c0,1.92-2.63,5.75-7.88,11.47c-1.08,1.17-1.62,1.85-1.62,2.04
				l0.07,0.07c0.24,0,0.98-0.45,2.25-1.34c3.19-2.25,5.79-4.97,7.81-8.16c1.97-3.05,2.96-5.77,2.96-8.16
				C1056.41,798.38,1055.12,796.76,1052.54,796.76z"/>
			<path class="st0" d="M753.13,799.35c-3.1,0-5.07,1.97-5.91,5.91c-0.14,0.8-0.23,1.29-0.28,1.48l0.35,0.21l1.06-0.63
				c0.75-0.52,1.6-0.77,2.53-0.77c1.69,0,2.53,0.91,2.53,2.74c0,1.92-2.63,5.75-7.88,11.47c-1.08,1.17-1.62,1.85-1.62,2.04
				l0.07,0.07c0.24,0,0.99-0.45,2.25-1.34c3.19-2.25,5.79-4.97,7.81-8.16c1.97-3.05,2.96-5.77,2.96-8.16
				C757,800.97,755.71,799.35,753.13,799.35z"/>
			<path class="st0" d="M1097.41,948.62c-3.1,0-5.07,1.97-5.91,5.91c-0.14,0.8-0.23,1.29-0.28,1.48l0.35,0.21l1.06-0.63
				c0.75-0.52,1.6-0.77,2.53-0.77c1.69,0,2.53,0.91,2.53,2.74c0,1.92-2.63,5.75-7.88,11.47c-1.08,1.17-1.62,1.85-1.62,2.04
				l0.07,0.07c0.24,0,0.99-0.45,2.25-1.34c3.19-2.25,5.79-4.97,7.81-8.16c1.97-3.05,2.96-5.77,2.96-8.16
				C1101.28,950.24,1099.99,948.62,1097.41,948.62z"/>
			<path class="st0" d="M1254.44,949.48c-3.1,0-5.07,1.97-5.91,5.91c-0.14,0.8-0.23,1.29-0.28,1.48l0.35,0.21l1.06-0.63
				c0.75-0.52,1.6-0.77,2.53-0.77c1.69,0,2.53,0.91,2.53,2.74c0,1.92-2.63,5.75-7.88,11.47c-1.08,1.17-1.62,1.85-1.62,2.04
				l0.07,0.07c0.24,0,0.99-0.45,2.25-1.34c3.19-2.25,5.79-4.97,7.81-8.16c1.97-3.05,2.96-5.77,2.96-8.16
				C1258.31,951.1,1257.02,949.48,1254.44,949.48z"/>
			<path class="st0" d="M1040.46,948.62c-3.1,0-5.07,1.97-5.91,5.91c-0.14,0.8-0.23,1.29-0.28,1.48l0.35,0.21l1.06-0.63
				c0.75-0.52,1.59-0.77,2.53-0.77c1.69,0,2.53,0.91,2.53,2.74c0,1.92-2.63,5.75-7.88,11.47c-1.08,1.17-1.62,1.85-1.62,2.04
				l0.07,0.07c0.24,0,0.98-0.45,2.25-1.34c3.19-2.25,5.79-4.97,7.81-8.16c1.97-3.05,2.96-5.77,2.96-8.16
				C1044.33,950.24,1043.04,948.62,1040.46,948.62z"/>
			<path class="st0" d="M951.59,949.48c-3.1,0-5.07,1.97-5.91,5.91c-0.14,0.8-0.23,1.29-0.28,1.48l0.35,0.21l1.06-0.63
				c0.75-0.52,1.6-0.77,2.53-0.77c1.69,0,2.53,0.91,2.53,2.74c0,1.92-2.63,5.75-7.88,11.47c-1.08,1.17-1.62,1.85-1.62,2.04
				l0.07,0.07c0.24,0,0.98-0.45,2.25-1.34c3.19-2.25,5.79-4.97,7.81-8.16c1.97-3.05,2.96-5.77,2.96-8.16
				C955.46,951.1,954.17,949.48,951.59,949.48z"/>
			<path class="st0" d="M816.98,947.76c-3.1,0-5.07,1.97-5.91,5.91c-0.14,0.8-0.23,1.29-0.28,1.48l0.35,0.21l1.06-0.63
				c0.75-0.52,1.6-0.77,2.53-0.77c1.69,0,2.53,0.91,2.53,2.74c0,1.92-2.63,5.75-7.88,11.47c-1.08,1.17-1.62,1.85-1.62,2.04
				l0.07,0.07c0.24,0,0.99-0.45,2.25-1.34c3.19-2.25,5.79-4.97,7.81-8.16c1.97-3.05,2.96-5.77,2.96-8.16
				C820.85,949.38,819.56,947.76,816.98,947.76z"/>
			<path class="st0" d="M801.45,873.55c-3.1,0-5.07,1.97-5.91,5.91c-0.14,0.8-0.23,1.29-0.28,1.48l0.35,0.21l1.06-0.63
				c0.75-0.52,1.6-0.77,2.53-0.77c1.69,0,2.53,0.91,2.53,2.74c0,1.92-2.63,5.75-7.88,11.47c-1.08,1.17-1.62,1.85-1.62,2.04
				l0.07,0.07c0.24,0,0.99-0.45,2.25-1.34c3.19-2.25,5.79-4.97,7.81-8.16c1.97-3.05,2.96-5.77,2.96-8.16
				C805.32,875.17,804.03,873.55,801.45,873.55z"/>
			<path class="st0" d="M874.79,870.1c-3.1,0-5.07,1.97-5.91,5.91c-0.14,0.8-0.23,1.29-0.28,1.48l0.35,0.21l1.06-0.63
				c0.75-0.52,1.6-0.77,2.53-0.77c1.69,0,2.53,0.91,2.53,2.74c0,1.92-2.63,5.75-7.88,11.47c-1.08,1.17-1.62,1.85-1.62,2.04
				l0.07,0.07c0.24,0,0.99-0.45,2.25-1.34c3.19-2.25,5.79-4.97,7.81-8.16c1.97-3.05,2.96-5.77,2.96-8.16
				C878.66,871.72,877.37,870.1,874.79,870.1z"/>
			<path class="st0" d="M638.38,826.1c-3.1,0-5.07,1.97-5.91,5.91c-0.14,0.8-0.23,1.29-0.28,1.48l0.35,0.21l1.06-0.63
				c0.75-0.52,1.6-0.77,2.53-0.77c1.69,0,2.53,0.91,2.53,2.74c0,1.92-2.63,5.75-7.88,11.47c-1.08,1.17-1.62,1.85-1.62,2.04
				l0.07,0.07c0.24,0,0.98-0.45,2.25-1.34c3.19-2.25,5.79-4.97,7.81-8.16c1.97-3.05,2.96-5.77,2.96-8.16
				C642.25,827.72,640.96,826.1,638.38,826.1z"/>
			<path class="st0" d="M664.37,848.54c0.8-2.36,1.67-4.58,2.61-6.7l0.13-0.55l-0.76-0.7c-0.86,0-1.6,0.61-2.26,1.83
				c-3.33,6.24-5.59,12.99-6.81,20.26c-0.19,0.99-0.29,1.9-0.29,2.74c0,3.77,1.54,5.63,4.64,5.63c3.18,0,5.86-1.45,8.01-4.36
				c0.76-0.99,1.29-3.42,1.64-7.32C671.6,855.75,669.29,852.14,664.37,848.54z M665.85,863.59c-1.6,0.86-3.01,1.27-4.22,1.27
				c-1.37,0-2.04-0.74-2.04-2.19c0-2.3,0.74-4.87,2.24-7.74c4.87,2.72,7.32,4.76,7.32,6.13
				C668.55,861.89,667.45,862.75,665.85,863.59z"/>
			<path class="st0" d="M587.62,853.15c0,5.63,1.45,8.44,4.36,8.44c2.86,0,4.92-3.45,6.19-10.34v-0.7l-0.21-0.07l-0.42,0.63
				c-1.55,2.95-2.93,4.43-4.15,4.43c-2.11,0-3.17-1.95-3.17-5.84c0-1.92,0.98-5.41,2.96-10.45c1.97-5.04,2.95-9.82,2.95-14.32
				c0-9.38-3.05-16.58-9.15-21.6h-0.91l-2.11,3.73l0.21,1.55c6.1,6.1,9.15,12.45,9.15,19.07c0,3.47-0.68,6.97-2.04,10.48
				c-1.73,4.5-2.86,8.35-3.38,11.54C587.71,850.87,587.62,852.02,587.62,853.15z"/>
		</g>
		<g>
			<path class="st0" d="M864.47,620.67c-73.87,3.99-82.12,14.34-82.12,14.34c43.61,6.77,91.54-11.14,91.54-11.14L864.47,620.67z"/>
			<path class="st0" d="M827.01,602.27c-43.21-3.18-68.76,1.2-68.76,1.2s-15.72,2.39-0.78,5.57c50.68,6.38,77.79-2.39,77.79-2.39
				L827.01,602.27z"/>
			<path class="st0" d="M795.52,581.24c-16.5-6.77-61.29-7.96-67.97-7.96c-6.67,0-9.43,1.98-0.39,5.57
				c43.61,13.13,76.61,8.36,76.61,8.36L795.52,581.24z"/>
			<path class="st0" d="M764.15,553.6c-42.98-13.48-59.48-12.91-64.19-12.86c-4.72,0.05-6.28,0.47,0.04,3.6
				c47.35,18.21,70.89,15.55,70.89,15.55L764.15,553.6z"/>
			<path class="st0" d="M743.73,529.75c-6.81-6.65-49.83-17.84-57.31-18.89c-7.49-1.07-10.62-0.22-1.88,4.81
				c22.23,12.74,63.6,18.78,63.6,18.78L743.73,529.75z"/>
			<path class="st0" d="M725.98,505.75c-3.93-3.59-48.32-25.08-53.04-26.68c-4.71-1.59-10.61-2.39-1.97,4.77
				c35.74,25.71,55.22,26.72,58.45,26.7L725.98,505.75z"/>
			<path class="st0" d="M711.27,478.44c-1.96-3.98-39.29-27.49-45.57-29.87c-6.29-2.39-9.43-3.59-1.97,5.18
				c18.47,16.72,51.08,32.65,51.08,32.65L711.27,478.44z"/>
			<path class="st0" d="M700.6,453.03c-1.69-4.34-36.16-28.46-40.58-31.52c-4.41-3.07-11.17-6.07-3.05,3.66
				c16.59,16.67,45.32,32.2,45.32,32.2L700.6,453.03z"/>
			<path class="st0" d="M692.12,425.55c-4.07-6.24-27.07-27.65-35.39-34.11c-8.31-6.45-9.12-3.86-4.2,2.66
				c18.52,23.5,41.66,37.15,41.66,37.15L692.12,425.55z"/>
			<path class="st0" d="M685.94,393.76c-1.79-3.39-23.17-31.24-30.41-37.37c-7.23-6.12-5.97-1.29-1.84,5.21
				c4.51,10.21,34.15,39.84,34.15,39.84L685.94,393.76z"/>
			<path class="st0" d="M683.84,360c-3.12-7.17-17.55-29.54-22.08-36.42c-4.53-6.89-9.06-9.46-5.38,0
				c11.04,25.52,27.73,43.3,27.73,43.3L683.84,360z"/>
			<path class="st0" d="M686.22,329.22c-0.85-3.44-14.15-38.99-17.26-43.88c-3.11-4.88-5.65-6.31-3.67,2.3
				c5.1,24.95,19.81,47.89,19.81,47.89L686.22,329.22z"/>
			<path class="st0" d="M692.67,293.79c-0.51-3.42-9.32-34.45-11.04-38.94c-1.71-4.48-5.43-9.42-5.2-1.39
				c3.8,32.22,14.4,47.05,14.4,47.05L692.67,293.79z"/>
			<path class="st0" d="M700.88,264.38c-0.59-20.01-3.93-36.28-4.22-39.93c-0.3-3.65-2.91-8.38-3.65-1.23
				c-2.07,26.24,5.81,48.72,5.81,48.72L700.88,264.38z"/>
			<path class="st0" d="M714.05,231.15c0,0-0.95-26.55-1.52-32.71c-0.56-6.15-3.42-8.27-3.6-1.53c-1.52,21.55,1.71,41.56,1.71,41.56
				L714.05,231.15z"/>
			<path class="st0" d="M729.27,206.17c2.66-12.12,2.47-35.22,2.47-36.18c0-0.96-0.38-3.66-1.52-0.58
				c-5.5,15.01-4.37,42.34-4.37,42.34L729.27,206.17z"/>
			<path class="st0" d="M747.71,182.63c1.67-4.89,5.6-30.89,5.6-34.94c0-4.05-2.3-0.47-2.3-0.47c-7.17,13.63-7.6,41.19-7.6,41.19
				L747.71,182.63z"/>
			<path class="st0" d="M765.97,161.93c1.52-2.69,10.07-28.48,10.44-33.11c0.39-4.61-2.46-0.96-2.46-0.96
				c-7.41,11.17-12.72,38.68-12.72,38.68L765.97,161.93z"/>
			<path class="st0" d="M790.22,143.39c2.47-4.61,9.87-27.7,10.63-31.17c0.76-3.46-2.28-0.96-2.28-0.96
				c-9.87,18.86-12.15,35.61-12.15,35.61L790.22,143.39z"/>
			<path class="st0" d="M817.68,120.86c3.61-3.85,11.78-21.74,12.15-24.64c0.38-2.88-1.71-0.77-1.71-0.77
				c-7.22,9.81-14.62,27.9-14.62,27.9L817.68,120.86z"/>
			<path class="st0" d="M826.22,118.02c19.53-4.22,36.19-15.59,38.39-16.87c2.22-1.28,2.31-2.83-1.62-1.83
				c-28.23,8.58-37.7,18.38-37.7,18.38L826.22,118.02z"/>
			<path class="st0" d="M798.32,136.16c13.25,3.29,32.39,1.9,37.33,1.88c4.94-0.01,6.57-2.01,1-3.31c-9.97-1.89-35.05-1.6-35.05-1.6
				L798.32,136.16z"/>
			<path class="st0" d="M774.89,156.93c14.85,0.15,32.17-2.56,37.64-3.31c5.47-0.76,7.56-3.6,2.23-3.63c-12.56,0.07-35.76,3-35.76,3
				L774.89,156.93z"/>
			<path class="st0" d="M752.17,180.7c6.26-0.29,28.42-3.75,39.39-6.83c10.96-3.07,4.49-4.31-1.21-4.21
				c-5.71,0.1-34.64,6.75-34.64,6.75L752.17,180.7z"/>
			<path class="st0" d="M733.62,206.27c0,0,21.81-2.77,37.68-9.11c15.87-6.35-1.19-4.22-1.19-4.22c-17.63,2.91-33.7,9.07-33.7,9.07
				L733.62,206.27z"/>
			<path class="st0" d="M718,234.6c2.83-0.84,28.65-8.46,41.01-15.33c12.35-6.88,6.64-7.12-2.22-4.76
				c-18.28,5.49-35.53,14.41-35.53,14.41L718,234.6z"/>
			<path class="st0" d="M705.89,259.52c15.02-3.91,40.56-17.53,43.3-19.13c2.74-1.6,9.84-7.05-2.48-3.97
				c-12.31,3.07-37.44,15.75-37.44,15.75L705.89,259.52z"/>
			<path class="st0" d="M695.32,287.28c12.53-3.41,37.21-17.57,44.5-22.59c7.29-5.03,4.94-7.27-3.2-4.4
				c-16.31,6.68-39.29,21.3-39.29,21.3L695.32,287.28z"/>
			<path class="st0" d="M691.29,319.99c8.91-1.76,35.81-23.77,42.44-30.54c6.62-6.75,1.31-6.35-3.24-3.64
				c-26.92,16.63-38.27,29.95-38.27,29.95L691.29,319.99z"/>
			<path class="st0" d="M690.73,349.31c5.23-2.7,28.09-19.77,37.81-31.16c9.73-11.39,4.53-9.26-3.08-4.16
				c-12.83,8.2-34.17,30.52-34.17,30.52L690.73,349.31z"/>
			<path class="st0" d="M692.13,379.28c8.68-5.17,31.78-30.92,36.33-37.34c4.53-6.43,2.67-7.63-3.36-2.59
				c-18.42,14.14-33.46,36.45-33.46,36.45L692.13,379.28z"/>
			<path class="st0" d="M697.75,416.08c8.19-6.01,28.21-37.55,33.23-48.28c5.03-10.73,1.07-9.66-5.2-2.74
				c-15.08,17.93-29.49,46.44-29.49,46.44L697.75,416.08z"/>
			<path class="st0" d="M708.19,445.29c5.32-6.16,25.26-41.19,28.87-51.4c3.6-10.19,3.98-14.23-5.51-3.46
				c-9.5,10.78-25.64,48.69-25.64,48.69L708.19,445.29z"/>
			<path class="st0" d="M716.76,473.96c10.01-9.67,25.55-53.63,26.42-56.88c0.87-3.24,5.69-16.95-4.85-2.65
				c-10.55,14.27-23.14,55.44-23.14,55.44L716.76,473.96z"/>
			<path class="st0" d="M733.61,497.21c8.08-7.01,17.47-48.12,18.87-58.54c1.4-10.4,0.77-14.82-5.91-2.04
				c-6.69,12.78-15.67,56.58-15.67,56.58L733.61,497.21z"/>
			<path class="st0" d="M753.04,523.01c4.95-9.22,10.34-53.57,10.22-65.2c-0.13-11.63-1.55-17.29-6.92-1.07
				c-5.37,16.23-8.07,60.29-8.07,60.29L753.04,523.01z"/>
			<path class="st0" d="M774.01,544.06c3.3-10.65,4.78-54.03,4.78-63.11c-0.01-9.09-3.48-23.59-7.34-1.94
				c-3.88,21.65-2.78,59.7-2.78,59.7L774.01,544.06z"/>
			<path class="st0" d="M797.78,566.7c3.69-5.88,0.33-49.52-2.93-65.03c-3.25-15.5-5.87-17.7-7.52-0.06
				c-1.65,17.65,5.46,61.1,5.46,61.1L797.78,566.7z"/>
			<path class="st0" d="M828.14,585.87c0.4-17.17-7.92-54.21-12.54-67.52c-4.63-13.31-9.71-19-7.84,2.08
				c1.88,21.07,15.68,63.34,15.68,63.34L828.14,585.87z"/>
			<path class="st0" d="M858.06,601.63c-0.25-12.87-12.07-52.61-19.01-66.22c-6.94-13.61-10.98-17.96-7.47,2.26
				c3.52,20.22,21.87,62.59,21.87,62.59L858.06,601.63z"/>
			<path class="st0" d="M889.21,612.24c0.12-6.77-13.57-49.72-21.26-63.35c-7.68-13.63-10.4-13.81-7.06,2.41
				c3.33,16.25,21.2,59.35,21.2,59.35L889.21,612.24z"/>
			<path class="st0" d="M858.53,621.09c0,0-16.94-14.58-30.5-13.06c-2.05,0.23-6.42-5.35-6.42-5.35s-13.73-16.26-25.44-15.14
				c-2.07,0.2-6-7.28-6-7.28s-14.31-18.27-26.69-20.46l-6.23-8c0,0-0.76-10.44-17.77-19.11c-2.01-1.03-3.81-7.14-3.81-7.14
				s-4.47-11.25-13.81-16.31l-0.66-6.25c0,0-1.01-11.27-13.78-20.82c-1.8-1.35,0.07-6.89,0.07-6.89s-1.01-14-14.57-23.76
				c-1.32-0.95,2.73-2.94,2.73-2.94s1.08-15.08-6.75-21.11l0.42-4.98c0,0,2.63-12.42-5.84-26.15c-1.11-1.8,0.06-5.91,0.06-5.91
				s3.64-16.27-3.7-28.91c-1.2-2.07,2.1-4.8,2.1-4.8s4.8-12.85-0.33-27.8c-0.84-2.45,2.59-4.8,2.59-4.8s9.43-8.94,2.48-31.39
				c-0.75-2.42,4.51-2.5,4.51-2.5s9.56-6.5,5.75-25.25c-0.58-2.85,2.31-7.37,2.31-7.37s11.12,2.75,10.56-27.44l3.94-2.12
				c0,0,8.31-2.06,12.31-21.94c0.49-2.46,3.11-0.26,3.11-0.26s14.05-10.97,14.48-20.73l4.37-4.71c0,0,8.91-2.83,13.54-15.16
				l4.8-4.37c0,0,15.85-9.77,20.9-18.76l4.91-3.41c0,0,15.57-7.64,21.57-15.55l3.89-2.46c0,0,6.05-1.56,18.07-9.18l-5.65,5.39
				c0,0-17.65,8.61-23.34,16.71l-4.36,3.01c0,0-13.22,5.73-20.39,16.73l-3.52,3.57c0,0-12.02,7.02-18.03,18.59l-2.28,4.49
				c0,0-14.27,9.46-14.9,19.84l-0.47,4.51c0,0-14.55,5-16.89,22.45l-3.18,6.3c0,0-6.35,6.53-6.94,16.05l-3.55,8.14
				c0,0-6.16,5.95-5.44,19.55l-3.03,7.16c0,0-8.07,15.13-4.51,25.37l0.12,6.53c0,0-7.54,13.89-2.77,23.44c0,0,1.35,2.73,1.98,4.48
				c-4.3,10.59-2.19,21.77-1.62,25.23c0,0,1.04,3.28,1.68,5.04c-4.74,3.24-2.46,18.97,1.69,31.25c0,0,5.75,0.47,5.54,1.36
				c-3.47,14.27,1.81,22.19,3.32,25.27l4.78,5c0,0-3.09,15.07,5.52,20.37c1.5,0.92,4.66,5.29,4.66,5.29s-1.88,15.2,9.3,20.29
				l5.11,6.25c0,0-1.62,12.4,10.52,19.68l6.83,4.88c0,0-2.07,13.06,12.94,18.53l7.03,1.19c0,0-1.38,17.27,15.89,21.61l7.52,2.54
				c0,0-0.8,9.86,23.4,20.81l4.58,0.74c0,0,1.93,9.02,23.88,13.9l5.05-4.06c0,0,5.26,17.02,22.97,14.12l3.94,5.16
				c0,0,39,13.53,76.54,12.05c0.81-0.01,7.47,0.04,9.37-0.02c28.51-0.9,57.39,8.95,57.39,8.95c-0.08,0.02-0.14,0.04-0.14,0.04
				c36.14,13.16,69.54,37.84,69.54,37.84l-36.54,15.12c-49-48.9-95.08-44.64-99.52-44.42c0,0-4.57,0.12-10.73-0.17
				c-17.29-0.84-45.7-5.72-56-8.36c0,0-17.66-4.19-19.63-5.38L858.53,621.09z"/>
			<g>
				<path class="st0" d="M1058.77,620.67c73.87,3.99,82.12,14.34,82.12,14.34c-43.61,6.77-91.54-11.14-91.54-11.14L1058.77,620.67z"
					/>
				<path class="st0" d="M1096.23,602.27c43.21-3.18,68.76,1.2,68.76,1.2s15.72,2.39,0.78,5.57c-50.68,6.38-77.79-2.39-77.79-2.39
					L1096.23,602.27z"/>
				<path class="st0" d="M1127.73,581.24c16.5-6.77,61.29-7.96,67.97-7.96c6.67,0,9.43,1.98,0.39,5.57
					c-43.61,13.13-76.61,8.36-76.61,8.36L1127.73,581.24z"/>
				<path class="st0" d="M1159.09,553.6c42.98-13.48,59.48-12.91,64.19-12.86c4.72,0.05,6.28,0.47-0.04,3.6
					c-47.35,18.21-70.89,15.55-70.89,15.55L1159.09,553.6z"/>
				<path class="st0" d="M1179.51,529.75c6.81-6.65,49.83-17.84,57.31-18.89c7.49-1.07,10.62-0.22,1.88,4.81
					c-22.23,12.74-63.6,18.78-63.6,18.78L1179.51,529.75z"/>
				<path class="st0" d="M1197.27,505.75c3.93-3.59,48.32-25.08,53.04-26.68c4.71-1.59,10.61-2.39,1.97,4.77
					c-35.74,25.71-55.22,26.72-58.45,26.7L1197.27,505.75z"/>
				<path class="st0" d="M1211.98,478.44c1.96-3.98,39.29-27.49,45.57-29.87c6.29-2.39,9.43-3.59,1.97,5.18
					c-18.47,16.72-51.08,32.65-51.08,32.65L1211.98,478.44z"/>
				<path class="st0" d="M1222.64,453.03c1.69-4.34,36.16-28.46,40.58-31.52c4.41-3.07,11.17-6.07,3.05,3.66
					c-16.59,16.67-45.32,32.2-45.32,32.2L1222.64,453.03z"/>
				<path class="st0" d="M1231.13,425.55c4.07-6.24,27.07-27.65,35.39-34.11c8.31-6.45,9.12-3.86,4.2,2.66
					c-18.52,23.5-41.66,37.15-41.66,37.15L1231.13,425.55z"/>
				<path class="st0" d="M1237.31,393.76c1.79-3.39,23.17-31.24,30.41-37.37c7.23-6.12,5.97-1.29,1.84,5.21
					c-4.51,10.21-34.15,39.84-34.15,39.84L1237.31,393.76z"/>
				<path class="st0" d="M1239.41,360c3.12-7.17,17.55-29.54,22.07-36.42c4.53-6.89,9.06-9.46,5.38,0
					c-11.04,25.52-27.73,43.3-27.73,43.3L1239.41,360z"/>
				<path class="st0" d="M1237.03,329.22c0.85-3.44,14.15-38.99,17.26-43.88c3.11-4.88,5.65-6.31,3.67,2.3
					c-5.1,24.95-19.81,47.89-19.81,47.89L1237.03,329.22z"/>
				<path class="st0" d="M1230.58,293.79c0.51-3.42,9.32-34.45,11.04-38.94c1.71-4.48,5.43-9.42,5.2-1.39
					c-3.8,32.22-14.4,47.05-14.4,47.05L1230.58,293.79z"/>
				<path class="st0" d="M1222.36,264.38c0.59-20.01,3.93-36.28,4.22-39.93c0.3-3.65,2.91-8.38,3.65-1.23
					c2.07,26.24-5.81,48.72-5.81,48.72L1222.36,264.38z"/>
				<path class="st0" d="M1209.2,231.15c0,0,0.95-26.55,1.52-32.71c0.56-6.15,3.42-8.27,3.6-1.53c1.52,21.55-1.71,41.56-1.71,41.56
					L1209.2,231.15z"/>
				<path class="st0" d="M1193.98,206.17c-2.66-12.12-2.47-35.22-2.47-36.18c0-0.96,0.38-3.66,1.52-0.58
					c5.5,15.01,4.37,42.34,4.37,42.34L1193.98,206.17z"/>
				<path class="st0" d="M1175.54,182.63c-1.67-4.89-5.6-30.89-5.6-34.94c0-4.05,2.3-0.47,2.3-0.47c7.17,13.63,7.6,41.19,7.6,41.19
					L1175.54,182.63z"/>
				<path class="st0" d="M1157.28,161.93c-1.52-2.69-10.07-28.48-10.44-33.11c-0.39-4.61,2.46-0.96,2.46-0.96
					c7.41,11.17,12.72,38.68,12.72,38.68L1157.28,161.93z"/>
				<path class="st0" d="M1133.03,143.39c-2.47-4.61-9.87-27.7-10.63-31.17c-0.76-3.46,2.28-0.96,2.28-0.96
					c9.87,18.86,12.15,35.61,12.15,35.61L1133.03,143.39z"/>
				<path class="st0" d="M1105.57,120.86c-3.61-3.85-11.78-21.74-12.15-24.64c-0.38-2.88,1.71-0.77,1.71-0.77
					c7.22,9.81,14.62,27.9,14.62,27.9L1105.57,120.86z"/>
				<path class="st0" d="M1097.02,118.02c-19.53-4.22-36.19-15.59-38.39-16.87c-2.22-1.28-2.31-2.83,1.62-1.83
					c28.23,8.58,37.7,18.38,37.7,18.38L1097.02,118.02z"/>
				<path class="st0" d="M1124.93,136.16c-13.25,3.29-32.39,1.9-37.33,1.88c-4.94-0.01-6.57-2.01-1-3.31
					c9.97-1.89,35.05-1.6,35.05-1.6L1124.93,136.16z"/>
				<path class="st0" d="M1148.35,156.93c-14.85,0.15-32.17-2.56-37.64-3.31c-5.47-0.76-7.56-3.6-2.23-3.63
					c12.56,0.07,35.76,3,35.76,3L1148.35,156.93z"/>
				<path class="st0" d="M1171.07,180.7c-6.26-0.29-28.42-3.75-39.39-6.83c-10.96-3.07-4.49-4.31,1.21-4.21
					c5.71,0.1,34.64,6.75,34.64,6.75L1171.07,180.7z"/>
				<path class="st0" d="M1189.63,206.27c0,0-21.81-2.77-37.68-9.11c-15.87-6.35,1.19-4.22,1.19-4.22
					c17.63,2.91,33.7,9.07,33.7,9.07L1189.63,206.27z"/>
				<path class="st0" d="M1205.24,234.6c-2.83-0.84-28.65-8.46-41.01-15.33c-12.35-6.88-6.64-7.12,2.22-4.76
					c18.28,5.49,35.53,14.41,35.53,14.41L1205.24,234.6z"/>
				<path class="st0" d="M1217.35,259.52c-15.02-3.91-40.56-17.53-43.3-19.13c-2.74-1.6-9.84-7.05,2.48-3.97
					c12.31,3.07,37.44,15.75,37.44,15.75L1217.35,259.52z"/>
				<path class="st0" d="M1227.92,287.28c-12.53-3.41-37.21-17.57-44.5-22.59c-7.29-5.03-4.94-7.27,3.2-4.4
					c16.31,6.68,39.3,21.3,39.3,21.3L1227.92,287.28z"/>
				<path class="st0" d="M1231.95,319.99c-8.91-1.76-35.81-23.77-42.44-30.54c-6.62-6.75-1.31-6.35,3.24-3.64
					c26.92,16.63,38.27,29.95,38.27,29.95L1231.95,319.99z"/>
				<path class="st0" d="M1232.51,349.31c-5.23-2.7-28.09-19.77-37.81-31.16c-9.73-11.39-4.53-9.26,3.08-4.16
					c12.83,8.2,34.17,30.52,34.17,30.52L1232.51,349.31z"/>
				<path class="st0" d="M1231.12,379.28c-8.68-5.17-31.78-30.92-36.33-37.34c-4.53-6.43-2.67-7.63,3.36-2.59
					c18.42,14.14,33.46,36.45,33.46,36.45L1231.12,379.28z"/>
				<path class="st0" d="M1225.5,416.08c-8.19-6.01-28.21-37.55-33.23-48.28c-5.03-10.73-1.07-9.66,5.2-2.74
					c15.08,17.93,29.49,46.44,29.49,46.44L1225.5,416.08z"/>
				<path class="st0" d="M1215.06,445.29c-5.32-6.16-25.26-41.19-28.87-51.4c-3.6-10.19-3.98-14.23,5.51-3.46
					c9.5,10.78,25.64,48.69,25.64,48.69L1215.06,445.29z"/>
				<path class="st0" d="M1206.49,473.96c-10.01-9.67-25.55-53.63-26.42-56.88c-0.87-3.24-5.69-16.95,4.85-2.65
					c10.55,14.27,23.14,55.44,23.14,55.44L1206.49,473.96z"/>
				<path class="st0" d="M1189.64,497.21c-8.08-7.01-17.47-48.12-18.86-58.54c-1.4-10.4-0.77-14.82,5.91-2.04
					c6.69,12.78,15.67,56.58,15.67,56.58L1189.64,497.21z"/>
				<path class="st0" d="M1170.21,523.01c-4.95-9.22-10.34-53.57-10.22-65.2c0.13-11.63,1.55-17.29,6.92-1.07
					c5.37,16.23,8.07,60.29,8.07,60.29L1170.21,523.01z"/>
				<path class="st0" d="M1149.23,544.06c-3.3-10.65-4.78-54.03-4.78-63.11c0.01-9.09,3.48-23.59,7.34-1.94
					c3.88,21.65,2.78,59.7,2.78,59.7L1149.23,544.06z"/>
				<path class="st0" d="M1125.47,566.7c-3.69-5.88-0.33-49.52,2.93-65.03c3.25-15.5,5.87-17.7,7.52-0.06
					c1.65,17.65-5.46,61.1-5.46,61.1L1125.47,566.7z"/>
				<path class="st0" d="M1095.1,585.87c-0.4-17.17,7.92-54.21,12.54-67.52c4.63-13.31,9.71-19,7.84,2.08
					c-1.88,21.07-15.68,63.34-15.68,63.34L1095.1,585.87z"/>
				<path class="st0" d="M1065.19,601.63c0.25-12.87,12.07-52.61,19.01-66.22c6.94-13.61,10.98-17.96,7.47,2.26
					c-3.52,20.22-21.87,62.59-21.87,62.59L1065.19,601.63z"/>
				<path class="st0" d="M1034.04,612.24c-0.12-6.77,13.57-49.72,21.26-63.35c7.68-13.63,10.4-13.81,7.06,2.41
					c-3.33,16.25-21.2,59.35-21.2,59.35L1034.04,612.24z"/>
				<path class="st0" d="M1064.72,621.09c0,0,16.94-14.58,30.5-13.06c2.05,0.23,6.42-5.35,6.42-5.35s13.73-16.26,25.44-15.14
					c2.07,0.2,6-7.28,6-7.28s14.31-18.27,26.69-20.46l6.23-8c0,0,0.76-10.44,17.77-19.11c2.01-1.03,3.81-7.14,3.81-7.14
					s4.47-11.25,13.81-16.31l0.66-6.25c0,0,1.01-11.27,13.78-20.82c1.8-1.35-0.07-6.89-0.07-6.89s1.01-14,14.57-23.76
					c1.32-0.95-2.73-2.94-2.73-2.94s-1.08-15.08,6.75-21.11l-0.42-4.98c0,0-2.63-12.42,5.84-26.15c1.11-1.8-0.06-5.91-0.06-5.91
					s-3.64-16.27,3.7-28.91c1.2-2.07-2.1-4.8-2.1-4.8s-4.8-12.85,0.33-27.8c0.84-2.45-2.59-4.8-2.59-4.8s-9.43-8.94-2.48-31.39
					c0.75-2.42-4.51-2.5-4.51-2.5s-9.56-6.5-5.75-25.25c0.58-2.85-2.31-7.37-2.31-7.37s-11.12,2.75-10.56-27.44l-3.94-2.12
					c0,0-8.31-2.06-12.31-21.94c-0.49-2.46-3.11-0.26-3.11-0.26s-14.05-10.97-14.48-20.73l-4.37-4.71c0,0-8.91-2.83-13.54-15.16
					l-4.8-4.37c0,0-15.85-9.77-20.9-18.76l-4.91-3.41c0,0-15.57-7.64-21.57-15.55l-3.89-2.46c0,0-6.05-1.56-18.07-9.18l5.65,5.39
					c0,0,17.65,8.61,23.34,16.71l4.36,3.01c0,0,13.22,5.73,20.39,16.73l3.52,3.57c0,0,12.02,7.02,18.03,18.59l2.28,4.49
					c0,0,14.27,9.46,14.9,19.84l0.47,4.51c0,0,14.55,5,16.89,22.45l3.18,6.3c0,0,6.35,6.53,6.94,16.05l3.55,8.14
					c0,0,6.16,5.95,5.44,19.55l3.03,7.16c0,0,8.07,15.13,4.51,25.37l-0.12,6.53c0,0,7.54,13.89,2.77,23.44c0,0-1.35,2.73-1.98,4.48
					c4.3,10.59,2.19,21.77,1.62,25.23c0,0-1.04,3.28-1.68,5.04c4.74,3.24,2.46,18.97-1.69,31.25c0,0-5.75,0.47-5.54,1.36
					c3.47,14.27-1.81,22.19-3.32,25.27l-4.78,5c0,0,3.09,15.07-5.52,20.37c-1.5,0.92-4.66,5.29-4.66,5.29s1.88,15.2-9.3,20.29
					l-5.11,6.25c0,0,1.62,12.4-10.52,19.68l-6.83,4.88c0,0,2.07,13.06-12.94,18.53l-7.03,1.19c0,0,1.38,17.27-15.89,21.61
					l-7.52,2.54c0,0,0.8,9.86-23.4,20.81l-4.58,0.74c0,0-1.93,9.02-23.88,13.9l-5.05-4.06c0,0-5.26,17.02-22.97,14.12l-3.94,5.16
					c0,0-39,13.53-76.54,12.05c-0.81-0.01-7.47,0.04-9.37-0.02c-28.51-0.9-57.39,8.95-57.39,8.95c0.08,0.02,0.14,0.04,0.14,0.04
					c-36.14,13.16-69.54,37.84-69.54,37.84l36.54,15.12c49-48.9,95.08-44.64,99.52-44.42c0,0,4.57,0.12,10.73-0.17
					c17.29-0.84,45.7-5.72,56-8.36c0,0,17.66-4.19,19.63-5.38L1064.72,621.09z"/>
			</g>
			<g>
				<path class="st0" d="M833.43,463.73c-0.21,0.19-0.61,0-1.16-0.57c-0.68-0.67-1.2-1.45-1.5-2.28c-0.36-1.05-0.23-1.85,0.4-2.38
					c1.6-0.3,2.64-0.21,3.16,0.32C835.26,459.77,834.96,461.39,833.43,463.73z"/>
				<path class="st0" d="M1121.52,423.1c-1.48-0.67-2.42-0.65-2.83,0.1c-0.8,1.37-1.14,2.38-1.01,3.06
					c0.76-0.36,1.86-1.05,3.29-2.02c0.61-0.44,0.93-0.74,0.95-0.91C1121.86,423.27,1121.73,423.19,1121.52,423.1z M1121.52,423.1
					c-1.48-0.67-2.42-0.65-2.83,0.1c-0.8,1.37-1.14,2.38-1.01,3.06c0.76-0.36,1.86-1.05,3.29-2.02c0.61-0.44,0.93-0.74,0.95-0.91
					C1121.86,423.27,1121.73,423.19,1121.52,423.1z M1121.52,423.1c-1.48-0.67-2.42-0.65-2.83,0.1c-0.8,1.37-1.14,2.38-1.01,3.06
					c0.76-0.36,1.86-1.05,3.29-2.02c0.61-0.44,0.93-0.74,0.95-0.91C1121.86,423.27,1121.73,423.19,1121.52,423.1z M1121.52,423.1
					c-1.48-0.67-2.42-0.65-2.83,0.1c-0.8,1.37-1.14,2.38-1.01,3.06c0.76-0.36,1.86-1.05,3.29-2.02c0.61-0.44,0.93-0.74,0.95-0.91
					C1121.86,423.27,1121.73,423.19,1121.52,423.1z M1121.52,423.1c-1.48-0.67-2.42-0.65-2.83,0.1c-0.8,1.37-1.14,2.38-1.01,3.06
					c0.76-0.36,1.86-1.05,3.29-2.02c0.61-0.44,0.93-0.74,0.95-0.91C1121.86,423.27,1121.73,423.19,1121.52,423.1z M1121.52,423.1
					c-1.48-0.67-2.42-0.65-2.83,0.1c-0.8,1.37-1.14,2.38-1.01,3.06c0.76-0.36,1.86-1.05,3.29-2.02c0.61-0.44,0.93-0.74,0.95-0.91
					C1121.86,423.27,1121.73,423.19,1121.52,423.1z M1121.52,423.1c-1.48-0.67-2.42-0.65-2.83,0.1c-0.8,1.37-1.14,2.38-1.01,3.06
					c0.76-0.36,1.86-1.05,3.29-2.02c0.61-0.44,0.93-0.74,0.95-0.91C1121.86,423.27,1121.73,423.19,1121.52,423.1z M1121.52,423.1
					c-1.48-0.67-2.42-0.65-2.83,0.1c-0.8,1.37-1.14,2.38-1.01,3.06c0.76-0.36,1.86-1.05,3.29-2.02c0.61-0.44,0.93-0.74,0.95-0.91
					C1121.86,423.27,1121.73,423.19,1121.52,423.1z M1121.52,423.1c-1.48-0.67-2.42-0.65-2.83,0.1c-0.8,1.37-1.14,2.38-1.01,3.06
					c0.76-0.36,1.86-1.05,3.29-2.02c0.61-0.44,0.93-0.74,0.95-0.91C1121.86,423.27,1121.73,423.19,1121.52,423.1z M1121.52,423.1
					c-1.48-0.67-2.42-0.65-2.83,0.1c-0.8,1.37-1.14,2.38-1.01,3.06c0.76-0.36,1.86-1.05,3.29-2.02c0.61-0.44,0.93-0.74,0.95-0.91
					C1121.86,423.27,1121.73,423.19,1121.52,423.1z M1121.52,423.1c-1.48-0.67-2.42-0.65-2.83,0.1c-0.8,1.37-1.14,2.38-1.01,3.06
					c0.76-0.36,1.86-1.05,3.29-2.02c0.61-0.44,0.93-0.74,0.95-0.91C1121.86,423.27,1121.73,423.19,1121.52,423.1z M1121.52,423.1
					c-1.48-0.67-2.42-0.65-2.83,0.1c-0.8,1.37-1.14,2.38-1.01,3.06c0.76-0.36,1.86-1.05,3.29-2.02c0.61-0.44,0.93-0.74,0.95-0.91
					C1121.86,423.27,1121.73,423.19,1121.52,423.1z M1121.52,423.1c-1.48-0.67-2.42-0.65-2.83,0.1c-0.8,1.37-1.14,2.38-1.01,3.06
					c0.76-0.36,1.86-1.05,3.29-2.02c0.61-0.44,0.93-0.74,0.95-0.91C1121.86,423.27,1121.73,423.19,1121.52,423.1z M1121.52,423.1
					c-1.48-0.67-2.42-0.65-2.83,0.1c-0.8,1.37-1.14,2.38-1.01,3.06c0.76-0.36,1.86-1.05,3.29-2.02c0.61-0.44,0.93-0.74,0.95-0.91
					C1121.86,423.27,1121.73,423.19,1121.52,423.1z M1121.52,423.1c-1.48-0.67-2.42-0.65-2.83,0.1c-0.8,1.37-1.14,2.38-1.01,3.06
					c0.76-0.36,1.86-1.05,3.29-2.02c0.61-0.44,0.93-0.74,0.95-0.91C1121.86,423.27,1121.73,423.19,1121.52,423.1z M1121.52,423.1
					c-1.48-0.67-2.42-0.65-2.83,0.1c-0.8,1.37-1.14,2.38-1.01,3.06c0.76-0.36,1.86-1.05,3.29-2.02c0.61-0.44,0.93-0.74,0.95-0.91
					C1121.86,423.27,1121.73,423.19,1121.52,423.1z M1121.52,423.1c-1.48-0.67-2.42-0.65-2.83,0.1c-0.8,1.37-1.14,2.38-1.01,3.06
					c0.76-0.36,1.86-1.05,3.29-2.02c0.61-0.44,0.93-0.74,0.95-0.91C1121.86,423.27,1121.73,423.19,1121.52,423.1z M1121.52,423.1
					c-1.48-0.67-2.42-0.65-2.83,0.1c-0.8,1.37-1.14,2.38-1.01,3.06c0.76-0.36,1.86-1.05,3.29-2.02c0.61-0.44,0.93-0.74,0.95-0.91
					C1121.86,423.27,1121.73,423.19,1121.52,423.1z M1121.52,423.1c-1.48-0.67-2.42-0.65-2.83,0.1c-0.8,1.37-1.14,2.38-1.01,3.06
					c0.76-0.36,1.86-1.05,3.29-2.02c0.61-0.44,0.93-0.74,0.95-0.91C1121.86,423.27,1121.73,423.19,1121.52,423.1z M1121.52,423.1
					c-1.48-0.67-2.42-0.65-2.83,0.1c-0.8,1.37-1.14,2.38-1.01,3.06c0.76-0.36,1.86-1.05,3.29-2.02c0.61-0.44,0.93-0.74,0.95-0.91
					C1121.86,423.27,1121.73,423.19,1121.52,423.1z M1106.59,374.63c-17.58,63.55-75.9,110.36-144.97,110.36
					s-127.39-46.81-144.97-110.36h-61.14c18.76,96.67,104.03,169.9,206.1,169.9c102.07,0,187.37-73.23,206.1-169.9H1106.59z
					 M1125.19,391.39c2.59,0.38,5.04,0.86,7.34,1.43c3.98,1.01,6.96,3.06,8.79,6.32c-8.1-0.97-12.14-1.52-20.18-2.74
					c-0.36-0.11-1.37-1.07-3.04-2.83c-1.58-1.65-2.57-2.74-2.99-3.33C1115.21,389.98,1118.55,390.42,1125.19,391.39z M920.69,490.02
					c0.21,0.42,0.74,1.12,1.62,2.11c0.89,0.97,1.5,1.5,1.83,1.58c0.21,0.04,0.8-0.27,1.73-0.93c1.05-0.74,1.65-1.18,1.83-1.24
					c1.56,1.58,2.36,2.38,3.99,3.92c-0.48,0.48-1.18,1.14-2.17,1.96c-1.26,1.07-2,1.56-2.19,1.52c-0.29-0.06-1.69-1.31-4.09-3.86
					c-0.97,0.61-2.05,1.31-3.21,2.09c-0.51-0.34-1.26-0.97-2.17-1.92c-0.99-1.01-1.56-1.73-1.73-2.19
					C917.28,492.24,918.82,491.23,920.69,490.02z M805,392.28c0.21-1.6,0.46-2.61,0.74-3.06c1.5,0.68,3.44,1.64,5.78,2.78
					c-0.23,0.46-0.48,1.41-0.74,2.85c-0.27,1.45-0.3,2.36-0.13,2.74c0.08,0.21,0.74,0.61,1.98,1.14c1.37,0.57,2.15,0.91,2.32,1.05
					c-0.32,2.43-0.48,3.67-0.72,6.12c-0.72-0.17-1.79-0.46-3.16-0.91c-1.79-0.59-2.74-1.03-2.82-1.22c-0.15-0.3-0.02-2.42,0.59-6.26
					c-1.22-0.61-2.55-1.24-4.01-1.92C804.75,394.87,804.81,393.77,805,392.28z M796.59,441.45c-1.64-0.32-2.57-0.59-2.68-0.78
					c-0.1-0.13-0.29-2.07-0.44-5.8c-1.16-0.42-2.43-0.82-3.8-1.24c-0.19-0.68-0.32-1.71-0.38-3.02c-0.08-1.45,0.02-2.42,0.21-2.85
					c1.86,0.53,3.1,0.89,3.73,1.12c0.7,0.23,1.05,0.34,1.75,0.57c-0.13,0.44-0.19,1.35-0.19,2.74c0.02,1.39,0.11,2.24,0.3,2.53
					c0.08,0.11,0.7,0.36,1.88,0.72c1.31,0.42,2.05,0.63,2.21,0.68c0.11,2.32,0.19,3.48,0.36,5.82
					C798.89,441.89,797.88,441.72,796.59,441.45z M796.06,425.97c-0.32-0.59-0.49-0.88-0.82-1.46c-0.29-0.51-0.42-0.76-0.7-1.27
					c-0.84-1.52-0.89-3.1-0.21-4.66c0.42-0.93,1.31-2.05,2.57-3.33c1.01-1.01,1.45-1.65,1.33-1.9c-0.95-1.88-2.99-3.31-6.16-4.39
					c-3.46-0.88-5.19-1.35-8.69-2.4c-2.95-0.89-4.72-2.13-5.31-3.58c-1.6-3.96,2.74-7.27,12.84-9.83c0.63-0.15,0.93-0.23,1.56-0.4
					c0.53,0.19,1.24,0.34,2.07,0.48c-1.45,0.36-3.41,1.35-5.84,2.93c-2.85,1.88-4.07,3.39-3.63,4.49c0.8,1.96,2.74,3.58,5.78,4.68
					c1.88,0.59,4.68,1.46,8.35,2.53c2.99,0.88,4.85,2.07,5.63,3.61c0.53,1.07,0.49,1.96-0.15,2.7c-0.78,0.59-1.54,1.18-2.3,1.79
					c-0.76,0.61-1.35,1.29-1.75,2.04c-0.48,0.95-0.49,1.86-0.06,2.66c0.27,0.48,0.4,0.72,0.67,1.2c0.3,0.55,0.46,0.84,0.78,1.39
					c2.51,4.45,3.84,6.6,6.58,10.77c2.05-2.47,3.37-4.66,3.96-6.6c1.69,0.17,4.03,0.23,6.98,0.13c-1.64,3.61-2.97,5.99-4.13,7.04
					c-0.78,0.68-1.52,1.24-2.24,1.65c-1.18,0.68-4.05,1.85-8.62,3.39C800.96,434.36,799.27,431.64,796.06,425.97z M813.82,441.55
					c2.89,3.96,4.38,5.88,7.48,9.57c0.68-0.49,1.16-1.45,1.46-2.83c0.25-1.14,0.32-2.24,0.19-3.25c-0.19-1.81-0.4-3.01-0.7-3.58
					c0.42-0.08,1.46-0.34,3.1-0.86c1.69-0.51,2.55-0.76,4.24-1.29c0.27,0.74,0.42,1.88,0.38,3.37c-0.04,1.37-0.17,2.53-0.4,3.46
					c-0.29,1.08-0.78,2.28-1.52,3.54c-0.8,1.37-1.64,2.42-2.49,3.08c-0.15,0.11-0.4,0.3-0.74,0.59c-0.34,0.3-0.63,0.51-0.82,0.67
					c-3.54,2.68-5.86,3.4-6.92,2.15c-3.82-4.51-5.69-6.85-9.23-11.74C809.54,443.6,811.52,442.65,813.82,441.55z M893.91,501.52
					c-0.29,0.63-0.84,1.5-1.65,2.59c-0.82,1.07-1.24,1.6-2.07,2.66c-0.86,1.08-1.85,1.29-2.91,0.57c-1.62-0.67-2.42-1.01-4.01-1.73
					c-0.89-0.4-1.35-0.61-2.26-1.03c-0.78-0.34-1.16-0.53-1.94-0.89c0.02-0.4,0.06-1.01,0.1-1.83c-0.74,0.4-1.1,0.59-1.86,0.97
					c-2.7-1.33-4.03-2.02-6.7-3.44c-0.08-0.84-0.25-1.33-0.51-1.46c-0.08-0.06-0.36,0-0.86,0.11c-0.49,0.13-0.8,0.15-0.95,0.08
					c-2.83-1.58-4.24-2.4-7.04-4.13c-0.04-0.84-0.17-1.31-0.4-1.45c-0.82,0.29-1.58,0.23-2.24-0.21c-0.13-0.1-0.21-0.13-0.34-0.23
					c-0.02,0.02-0.02,0.02-0.04,0.04c-4.13-2.66-6.16-4.07-10.16-7.02c0.04-0.91,0.23-2.09,0.57-3.54c-0.72,0.27-1.08,0.4-1.81,0.67
					c-0.65,0.21-1.27,0.38-1.88,0.51c-4.98-3.88-7.42-5.95-12.12-10.31c-0.76-0.7-1.14-1.05-1.9-1.77
					c-5.99,2.51-10.42,2.36-12.97-0.29c-1.2-1.26-2.68-3.16-4.36-5.73c-1.92-2.95-2.87-5-2.95-6.09c0.63,0.7,1.66,1.79,3.08,3.23
					c2.24,2.26,5.55,4.13,9.78,5.29c1.62,0.44,3.16,0.67,4.57,0.7c-4.07-4.01-4.83-7.1-2.57-8.92c0.84-0.65,2.45-1.35,4.79-2.04
					c2.02-0.61,3.75-1.01,5.17-1.22c2.07-0.29,3.56,0,4.45,0.88c1.05,1.05,0.97,2.85-0.23,5.44c-0.82,1.81-1.92,3.54-3.25,5.17
					c0.42,0.38,0.61,0.55,1.03,0.93c0.34,0.32,0.51,0.48,0.86,0.8c4.11,3.73,6.22,5.52,10.56,8.88c0.15-0.88,0.08-1.77-0.25-2.7
					c-0.32-0.93-1.52-2.26-1.52-2.26s-0.51-0.3-1.83-1.16c0.38-0.4,2.4-1.08,5.97-2.24c0.48-0.25,1.5,0,3.02,0.65
					c1.35,0.57,2.32,1.05,2.89,1.48c1.26,0.93,2.13,2.23,2.64,3.92c0.59,1.86,0.42,3.4-0.55,4.64c-0.36,0.48-1.1,0.89-2.19,1.27
					c-1.2,0.4-1.92,0.7-2.13,0.91c0.74,0.53,1.12,0.8,1.88,1.31c2.04,1.43,3.06,2.11,5.14,3.44c0.59,0.36,0.87,0.55,1.46,0.91
					c0.57,0.38,1.27-0.04,2.11-1.2c1.83-0.88,2.87-1.41,3.16-1.52c1.6-0.72,2.63-1.1,3.06-1.03c-0.72,1.08-2.61,2.89-5.74,5.36
					c2.26,1.35,3.39,2.02,5.69,3.29c0.55,0.3,1.08,0.02,1.62-0.84c0.06-0.11,0.13-0.27,0.21-0.42c0.08-0.15,0.13-0.23,0.15-0.25
					c3.04-1.64,5.1-2.51,6.24-2.59c-0.19,0.34-0.51,0.84-0.95,1.5c-0.42,0.67-0.74,1.16-0.93,1.5c-0.42,0.7-1.29,1.75-2.63,3.1
					c1.39,0.72,2.09,1.08,3.48,1.79c0.23,0.11,0.55-0.19,0.95-0.93c0.08-0.13,0.19-0.32,0.3-0.53c0.11-0.23,0.21-0.4,0.29-0.53
					c2.97-1.83,4.66-2.66,5.21-2.4c-0.74,1.65-1.1,2.47-1.83,4.13c-0.17,0.46-0.23,1.01-0.15,1.65c0.1,0.65,0.34,1.07,0.74,1.26
					c0.68,0.3,1.01,0.46,1.69,0.76c1.37,0.61,2.05,0.91,3.44,1.48c0.1,0.04,0.25-0.17,0.46-0.61c0.63-1.31,1.33-3.33,2.07-5.95
					c0.57-2.02,1.14-4.09,1.73-6.12c-0.29-0.57-0.55-1.27-0.8-2.09c3.88-3.12,5.97-4.64,6.47-4.45c-0.4,0.84-0.61,1.45-0.65,1.81
					c-0.04,0.49,0.11,1.08,0.48,1.73c1.64,3.01,2.83,4.58,3.29,4.76c-2.38,1.45-3.6,2.17-6.09,3.54
					C896.09,495.02,895.22,497.47,893.91,501.52z M906.4,497.19c-0.63,2.32-1.33,4.53-2.11,6.6c-1.35,3.6-3.5,6.35-6.62,8.14
					c1.79-7.27,2.74-10.88,4.74-18.09c0.13-0.34,1.12-1.27,2.89-2.85c1.65-1.48,2.74-2.43,3.31-2.83
					C908.8,488.23,908.04,491.23,906.4,497.19z M957.88,529.62c-1.03,1.1-1.64,1.67-1.86,1.65c-0.11,0-1.71-0.88-4.64-2.76
					c-0.84,0.68-1.71,1.45-2.64,2.32c-0.61-0.23-1.45-0.67-2.45-1.31c-1.14-0.74-1.83-1.31-2.07-1.69c1.24-1.18,2.05-1.98,2.49-2.36
					c0.49-0.42,0.74-0.63,1.22-1.07c0.29,0.34,0.95,0.87,2.02,1.62c1.07,0.74,1.77,1.1,2.05,1.12c0.13,0,0.61-0.36,1.41-1.1
					c0.89-0.82,1.41-1.27,1.54-1.37c1.85,1.18,2.78,1.77,4.68,2.89C959.26,528.04,958.69,528.73,957.88,529.62z M959.89,522.26
					c-0.61-0.02-0.91-0.02-1.52-0.04c-1.24-0.02-2.21-0.4-2.85-1.14c-0.51-0.57-0.95-1.54-1.31-2.83c-0.95,1.5-1.45,2.26-2.45,3.75
					c-3.06-0.15-4.6-0.27-7.67-0.55c-0.57-0.06-0.86-0.08-1.43-0.13c-3.2-0.32-4.77-0.51-7.95-0.95c-1.5-0.21-2.68-1.05-3.46-2.45
					c-0.48-0.84-0.86-2.15-1.16-3.84c-0.25-1.33-0.49-2.04-0.72-2.07c-1.79-0.3-3.77,0.48-6.03,2.36c-2.24,2.23-3.39,3.31-5.74,5.48
					c-2.02,1.79-3.71,2.53-4.96,2.21c-3.46-0.88-3.69-6.01-0.74-15.29c0.19-0.57,0.29-0.86,0.46-1.43c0.38-0.32,0.8-0.78,1.27-1.37
					c-0.42,1.33-0.67,3.39-0.7,6.12c-0.06,3.23,0.42,5,1.37,5.23c1.73,0.44,3.75-0.21,5.95-1.98c1.27-1.14,3.21-2.85,5.69-5.12
					c2.04-1.83,3.77-2.64,5.23-2.38c1.03,0.17,1.64,0.7,1.86,1.62c0.06,0.93,0.11,1.86,0.19,2.78c0.08,0.93,0.27,1.77,0.63,2.49
					c0.46,0.89,1.1,1.43,1.88,1.52c3.04,0.44,4.58,0.63,7.65,0.93c0.55,0.04,0.82,0.08,1.37,0.11c3.56,0.34,5.33,0.46,8.9,0.61
					c0.21-0.4,0.46-2.05,0.74-4.95c0.02-0.11,0.68-0.86,1.9-2.3c1.24-1.45,1.88-2.23,2-2.32c-0.02,0.17-0.02,0.25-0.02,0.42v0.34
					c0.02,0.17,0.02,0.3,0.02,0.4c-0.02,1.6-0.21,3.56-0.63,5.78c-0.13,0.74,0.08,1.41,0.67,1.96c0.59,0.55,1.27,0.84,2.05,0.86
					h2.02c4.01,0,6.03-0.06,10.06-0.29c-0.76-2.82-2.04-4.96-3.82-6.51c0.25-0.65,1.26-2.64,2.83-5.97
					c0.63,0.51,1.39,1.46,2.28,2.87c0.84,1.29,1.45,2.38,1.83,3.29c0.44,1.05,0.72,2.15,0.82,3.29c0.13,1.45,0,3.6-0.53,6.35
					c-0.25,1.29-0.49,2.21-0.67,2.7c-5.12,0.34-7.68,0.44-12.8,0.44H959.89z M970.26,530.44c-1.35,1.07-2.24,1.6-2.64,1.62
					c-0.27,0-1.12-0.49-2.57-1.52c-1.43-1.03-2.13-1.65-2.13-1.81c0-0.27,0.7-1.01,2.05-2.24c1.33-1.22,2.13-1.85,2.42-1.85
					c0.15,0,0.97,0.63,2.49,1.81c1.56,1.22,2.36,1.86,2.36,1.96C972.26,528.69,971.61,529.37,970.26,530.44z M1021.58,512.96
					c-1.64,0.51-2.43,0.78-4.07,1.26c0,0.02,0,0.02,0,0.04c-3.04,0.91-4.57,1.33-7.65,2.11c-0.74-0.59-1.62-1.43-2.61-2.55
					c-0.17,0.68-0.27,1.05-0.46,1.73c-0.19,0.61-0.4,1.18-0.63,1.71c-4.03,0.91-6.05,1.33-10.12,2.02
					c-0.29,0.06-0.44,0.08-0.72,0.13c-1.45,0.11-2.42-0.02-2.91-0.34c-0.44,2.19-1.35,4.39-2.76,6.54
					c-1.73,2.59-3.63,4.01-5.61,4.22c-1.24,0.13-3.73-0.32-7.32-1.5c-3.77-1.22-5.69-2.32-5.9-3.14c0.13-0.02,0.91,0.25,2.32,0.74
					c1.41,0.49,2.76,0.68,3.99,0.61c0.87-0.08,2.13-0.44,3.69-1.14c1.2-0.55,2.66-1.62,4.3-3.23c0.46-0.36,1.33-1.2,2.51-2.53
					c0.82-0.89,1.16-1.71,1.05-2.4c-0.13-0.78-1.54-2.23-4.09-4.38c0.59-1.5,1.39-3.33,2.34-5.48c2.11,2.45,3.42,3.79,3.77,4.07
					c1.64,1.37,3.31,1.9,4.96,1.6c1.27-0.23,1.9-0.34,3.14-0.61c2.17-0.42,3.25-0.65,5.42-1.16c-0.63-0.63-1.41-1.1-2.34-1.43
					c-0.95-0.32-2.7-0.23-2.7-0.23s-0.53,0.19-1.94,0.65c-0.11-0.51,0.42-2.45,1.45-5.8c0.06-0.51,0.82-1.1,2.19-1.86
					c1.22-0.65,2.15-1.1,2.83-1.26c1.46-0.36,3.02-0.23,4.72,0.4c1.86,0.68,3.06,1.75,3.54,3.21c0.17,0.55,0.11,1.37-0.19,2.4
					c-0.34,1.14-0.49,1.86-0.46,2.15c0.74-0.21,1.1-0.3,1.83-0.51c0.95-0.27,1.43-0.4,2.36-0.68c1.41-0.42,2.11-0.63,3.5-1.08
					c0.1-0.04,0.06-0.29-0.11-0.74c-0.49-1.35-1.43-3.27-2.8-5.69c-1.05-1.85-2.11-3.71-3.18-5.59c-0.61-0.23-1.31-0.57-2.09-1.01
					c0.57-4.77,0.97-7.21,1.48-7.38c0.32,0.86,0.61,1.45,0.84,1.73c0.32,0.38,0.88,0.7,1.6,0.97c3.37,1.14,5.38,1.54,5.84,1.37
					c-0.68,2.59-1.05,3.88-1.86,6.49c0.34,0.89,1.48,3.27,3.46,7.08c0.25,0.65,0.48,1.62,0.67,2.95c0.17,1.31,0.27,1.96,0.44,3.27
					C1023.44,512.02,1022.87,512.79,1021.58,512.96z M1032.5,509.67c-3.96-6.47-5.9-9.72-9.66-16.28c-0.15-0.34-0.11-1.66,0.04-3.94
					c0.13-2.15,0.25-3.54,0.38-4.18c0.23,0,1.86,2.68,4.96,8.01c1.22,2.11,2.3,4.17,3.23,6.18
					C1033.07,502.95,1033.49,506.36,1032.5,509.67z M1034.1,485.05c-1.48-0.1-2.43-0.29-2.89-0.49c0.29-1.35,0.7-3.08,1.22-5.17
					c0.48,0.17,1.39,0.36,2.76,0.51c1.37,0.15,2.23,0.13,2.53-0.02c0.17-0.1,0.4-0.68,0.63-1.79c0.25-1.22,0.4-1.94,0.49-2.09
					c2.32,0.15,3.5,0.21,5.9,0.29c-0.02,0.65-0.1,1.6-0.23,2.83c-0.19,1.6-0.4,2.45-0.57,2.53c-0.25,0.15-2.24,0.15-5.9-0.19
					c-0.3,1.08-0.61,2.28-0.91,3.61C1036.49,485.17,1035.47,485.17,1034.1,485.05z M1135.39,411.28c0,0-0.08,0.21-0.34,0.84
					c-0.25,0.61-0.53,1.29-0.86,1.96c-1.27,2.62-1.92,3.92-3.27,6.47c-0.21,0.38-0.3,0.57-0.49,0.93c-0.13,0.25,0.11,0.72,0.78,1.45
					c0.65,0.72,0.89,1.31,0.76,1.77c-4.91,3.48-7.38,5.08-12.33,7.99c0,0.27,0.23,0.65,0.7,1.16c0.53,0.61,0.86,1.1,0.95,1.5
					c0.21,0.7,0.04,1.5-0.53,2.34c-0.13,0.21-0.19,0.3-0.32,0.51c-0.53,0.8-0.82,1.2-1.35,1.98c-1.18,1.71-1.77,2.57-2.99,4.24
					c-0.49,0.67-1.08,0.8-1.77,0.38c-1.08-0.61-1.62-0.91-2.7-1.54c0.06,0.08,0.82,1.46,2.19,4.26c-0.53,0.68-0.8,1.03-1.31,1.71
					c-2.55,3.29-3.86,4.89-6.54,7.99c-0.02,0.04-0.04,0.06-0.08,0.08c-0.44,0.49-0.84,0.88-1.22,1.1c-0.84,0.59-1.77,0.72-2.74,0.44
					c-0.4-0.13-0.78-0.27-1.1-0.42c1.05,1.92,1.5,2.97,1.41,3.06c-4.39,4.79-8.26,8.52-11.93,11.85c-3.67,3.35-7.19,6.3-11.05,9.3
					c-3.88,3.01-8.12,6.09-13.37,9.45c0-0.02,0-0.02-0.02-0.04c-0.29,0.19-0.42,0.29-0.7,0.46c-1.31,0.84-2.82,1.01-4.43,0.49
					c-0.99-0.32-2.23-1.03-3.69-2.05c-1.16-0.82-1.85-1.18-2.05-1.05c-1.62,0.93-2.55,2.8-2.89,5.65c-0.1,3.08-0.17,4.62-0.4,7.72
					c-0.21,2.63-0.95,4.24-2.15,4.83c-3.23,1.58-7.13-2.07-11.6-10.79c-0.29-0.53-0.42-0.8-0.7-1.33c0.06-0.48,0.04-1.08-0.04-1.83
					c0.65,1.24,1.94,2.91,3.9,4.96c2.3,2.4,3.94,3.39,4.83,2.97c1.62-0.8,2.66-2.57,3.06-5.29c0.13-1.67,0.36-4.18,0.61-7.44
					c0.21-2.66,0.95-4.39,2.26-5.15c0.89-0.53,1.77-0.55,2.61-0.04c0.7,0.65,1.43,1.29,2.15,1.92c0.72,0.63,1.5,1.1,2.3,1.39
					c1.01,0.38,1.88,0.32,2.57-0.11c0.89-0.57,1.35-0.86,2.24-1.45c6.75-4.38,11.6-8.07,16.34-11.98c4.72-3.9,9.34-7.99,15.14-14.02
					c-0.32-0.27-1.24-0.15-2.74,0.34c-1.5,0.48-2.43,0.89-2.82,1.31c-1.71,1.88-4.34,4.68-7.97,8.1c-2.26,2.13-4.28,3.84-5.99,5.21
					c-6.14,4.91-10.33,7.17-12.1,7.48c-0.84,0.15-1.48-0.04-1.9-0.59c-0.95-1.27-1.18-3.46-0.76-6.52c0.44-3.35,1.73-7.1,3.67-11.18
					c0.88-1.81,1.83-3.5,2.85-5.08c0.74-1.18,1.1-1.77,1.83-2.97c0.49,2.51,0.72,3.79,1.14,6.33c-0.63,0.7-1.43,1.92-2.34,3.6
					c-0.68,1.29-1.41,2.63-2.19,3.9c-0.55,0.93-1.1,2.05-1.67,3.33c-0.74,1.67-1.08,2.8-0.88,3.39c0.48,0.21,5.1-2.49,13.12-9.36
					c2.13-1.85,3.18-2.78,5.23-4.72c1.45-1.37,3.61-3.46,6.33-6.35c0.82-0.88,1.9-1.64,3.21-2.26c1.5-0.7,2.8-1.05,3.9-0.89
					c0.51,0.06,1.2,0.23,2.07,0.55c0.86,0.32,1.52,0.51,1.96,0.55c0.57,0.1,1.16-0.19,1.71-0.84c2.55-2.95,3.79-4.45,6.2-7.57
					c1.07-1.41,1.6-2.11,2.64-3.52c-5.99-2.76-8.98-4.17-14.87-7.06c-1.01-1.88-1.6-2.93-1.73-3.21c-0.74-1.43-1.24-2.47-1.45-3.2
					c0.19-0.25,2.21,0.55,6.03,2.42c2.7,1.33,5.4,2.7,8.1,3.99c3.1,1.52,4.83,2.34,5.14,2.53c1.07,0.63,1.88,0.44,2.42-0.59
					c0.04-0.04,0.04-0.06,0.08-0.1c0.51-0.76,0.78-1.14,1.29-1.92c0.76-1.14,1.14-1.73,1.88-2.89c0.21-0.32-0.04-0.99-0.68-2
					c-0.46-0.7-0.89-1.41-1.37-2.09c-0.51-1.16-0.74-2.78-0.72-4.83c0.04-2.04,0.34-3.63,0.99-4.77c0.49-0.91,1.16-1.27,1.98-1.1
					c0.82,0.19,1.64,0.38,2.45,0.59c0.86,0.08,2.04-0.06,3.52-0.38c1.67-0.38,2.68-0.86,3.01-1.39c0.93-1.81,1.39-2.74,2.28-4.58
					c-0.13-0.19-0.21-0.27-0.36-0.44c-2.23-0.82-7.38-1.9-13.6-2.8c-1.46,0.82-2.34,1.14-2.64,1.03c-0.48-0.19-1.26-1.2-2.42-2.97
					c-1.1-1.71-1.75-2.89-1.88-3.58c0.17,0.08,0.27,0.11,0.44,0.17c1.81,0.65,4.85-0.78,9.07-4.83c1.37,2.53,2.04,3.82,3.31,6.43
					c1.65,0.44,3.02,0.82,4.15,1.1c1.98,0.49,3.37,0.7,4.13,0.63c0.46-0.06,1.52-0.91,3.12-2.64c1.46-1.54,2.68-2.21,3.71-1.88
					c2.7,0.8,4.93,2.42,6.56,4.87c-0.87,0.67-3.04,1.39-4.77,2.64C1136.3,409.74,1135.39,411.28,1135.39,411.28z M1118.69,423.19
					c-0.8,1.37-1.14,2.38-1.01,3.06c0.76-0.36,1.86-1.05,3.29-2.02c0.61-0.44,0.93-0.74,0.95-0.91c-0.06-0.06-0.19-0.13-0.4-0.23
					C1120.04,422.43,1119.1,422.45,1118.69,423.19z M1121.52,423.1c-1.48-0.67-2.42-0.65-2.83,0.1c-0.8,1.37-1.14,2.38-1.01,3.06
					c0.76-0.36,1.86-1.05,3.29-2.02c0.61-0.44,0.93-0.74,0.95-0.91C1121.86,423.27,1121.73,423.19,1121.52,423.1z M1121.52,423.1
					c-1.48-0.67-2.42-0.65-2.83,0.1c-0.8,1.37-1.14,2.38-1.01,3.06c0.76-0.36,1.86-1.05,3.29-2.02c0.61-0.44,0.93-0.74,0.95-0.91
					C1121.86,423.27,1121.73,423.19,1121.52,423.1z M1121.52,423.1c-1.48-0.67-2.42-0.65-2.83,0.1c-0.8,1.37-1.14,2.38-1.01,3.06
					c0.76-0.36,1.86-1.05,3.29-2.02c0.61-0.44,0.93-0.74,0.95-0.91C1121.86,423.27,1121.73,423.19,1121.52,423.1z M1121.52,423.1
					c-1.48-0.67-2.42-0.65-2.83,0.1c-0.8,1.37-1.14,2.38-1.01,3.06c0.76-0.36,1.86-1.05,3.29-2.02c0.61-0.44,0.93-0.74,0.95-0.91
					C1121.86,423.27,1121.73,423.19,1121.52,423.1z M1121.52,423.1c-1.48-0.67-2.42-0.65-2.83,0.1c-0.8,1.37-1.14,2.38-1.01,3.06
					c0.76-0.36,1.86-1.05,3.29-2.02c0.61-0.44,0.93-0.74,0.95-0.91C1121.86,423.27,1121.73,423.19,1121.52,423.1z M1121.52,423.1
					c-1.48-0.67-2.42-0.65-2.83,0.1c-0.8,1.37-1.14,2.38-1.01,3.06c0.76-0.36,1.86-1.05,3.29-2.02c0.61-0.44,0.93-0.74,0.95-0.91
					C1121.86,423.27,1121.73,423.19,1121.52,423.1z M1121.52,423.1c-1.48-0.67-2.42-0.65-2.83,0.1c-0.8,1.37-1.14,2.38-1.01,3.06
					c0.76-0.36,1.86-1.05,3.29-2.02c0.61-0.44,0.93-0.74,0.95-0.91C1121.86,423.27,1121.73,423.19,1121.52,423.1z M1121.52,423.1
					c-1.48-0.67-2.42-0.65-2.83,0.1c-0.8,1.37-1.14,2.38-1.01,3.06c0.76-0.36,1.86-1.05,3.29-2.02c0.61-0.44,0.93-0.74,0.95-0.91
					C1121.86,423.27,1121.73,423.19,1121.52,423.1z M1121.52,423.1c-1.48-0.67-2.42-0.65-2.83,0.1c-0.8,1.37-1.14,2.38-1.01,3.06
					c0.76-0.36,1.86-1.05,3.29-2.02c0.61-0.44,0.93-0.74,0.95-0.91C1121.86,423.27,1121.73,423.19,1121.52,423.1z M1121.52,423.1
					c-1.48-0.67-2.42-0.65-2.83,0.1c-0.8,1.37-1.14,2.38-1.01,3.06c0.76-0.36,1.86-1.05,3.29-2.02c0.61-0.44,0.93-0.74,0.95-0.91
					C1121.86,423.27,1121.73,423.19,1121.52,423.1z M1121.52,423.1c-1.48-0.67-2.42-0.65-2.83,0.1c-0.8,1.37-1.14,2.38-1.01,3.06
					c0.76-0.36,1.86-1.05,3.29-2.02c0.61-0.44,0.93-0.74,0.95-0.91C1121.86,423.27,1121.73,423.19,1121.52,423.1z M1121.52,423.1
					c-1.48-0.67-2.42-0.65-2.83,0.1c-0.8,1.37-1.14,2.38-1.01,3.06c0.76-0.36,1.86-1.05,3.29-2.02c0.61-0.44,0.93-0.74,0.95-0.91
					C1121.86,423.27,1121.73,423.19,1121.52,423.1z M1121.52,423.1c-1.48-0.67-2.42-0.65-2.83,0.1c-0.8,1.37-1.14,2.38-1.01,3.06
					c0.76-0.36,1.86-1.05,3.29-2.02c0.61-0.44,0.93-0.74,0.95-0.91C1121.86,423.27,1121.73,423.19,1121.52,423.1z M1121.52,423.1
					c-1.48-0.67-2.42-0.65-2.83,0.1c-0.8,1.37-1.14,2.38-1.01,3.06c0.76-0.36,1.86-1.05,3.29-2.02c0.61-0.44,0.93-0.74,0.95-0.91
					C1121.86,423.27,1121.73,423.19,1121.52,423.1z M1121.52,423.1c-1.48-0.67-2.42-0.65-2.83,0.1c-0.8,1.37-1.14,2.38-1.01,3.06
					c0.76-0.36,1.86-1.05,3.29-2.02c0.61-0.44,0.93-0.74,0.95-0.91C1121.86,423.27,1121.73,423.19,1121.52,423.1z M1121.52,423.1
					c-1.48-0.67-2.42-0.65-2.83,0.1c-0.8,1.37-1.14,2.38-1.01,3.06c0.76-0.36,1.86-1.05,3.29-2.02c0.61-0.44,0.93-0.74,0.95-0.91
					C1121.86,423.27,1121.73,423.19,1121.52,423.1z M1121.52,423.1c-1.48-0.67-2.42-0.65-2.83,0.1c-0.8,1.37-1.14,2.38-1.01,3.06
					c0.76-0.36,1.86-1.05,3.29-2.02c0.61-0.44,0.93-0.74,0.95-0.91C1121.86,423.27,1121.73,423.19,1121.52,423.1z M1121.52,423.1
					c-1.48-0.67-2.42-0.65-2.83,0.1c-0.8,1.37-1.14,2.38-1.01,3.06c0.76-0.36,1.86-1.05,3.29-2.02c0.61-0.44,0.93-0.74,0.95-0.91
					C1121.86,423.27,1121.73,423.19,1121.52,423.1z"/>
			</g>
			<g>
				<path class="st0" d="M1049.96,393.69c0.8,0,1.5,0.15,2.11,0.48c0.04,0.88-0.21,1.52-0.55,1.94c-0.65,0.72-1.67,1.37-3.08,1.6
					c-0.4-0.36-0.65-0.89-0.76-1.62c-0.1-0.7,0-1.26,0.3-1.65C1048.36,393.94,1049.01,393.71,1049.96,393.69z"/>
				<path class="st0" d="M1012.11,428.67c-2.11-0.72-3.31-1.03-3.63-0.86c-0.04,0.4-0.06,1.22-0.08,2.47
					c-0.02,1.35-0.02,2.07,0.04,2.17c0.84,1.5,2.15,1.79,3.92,0.84c1.73-0.95,2.91-1.88,3.54-2.72
					C1015.51,430,1014.22,429.39,1012.11,428.67z M1012.11,428.67c-2.11-0.72-3.31-1.03-3.63-0.86c-0.04,0.4-0.06,1.22-0.08,2.47
					c-0.02,1.35-0.02,2.07,0.04,2.17c0.84,1.5,2.15,1.79,3.92,0.84c1.73-0.95,2.91-1.88,3.54-2.72
					C1015.51,430,1014.22,429.39,1012.11,428.67z M1012.11,428.67c-2.11-0.72-3.31-1.03-3.63-0.86c-0.04,0.4-0.06,1.22-0.08,2.47
					c-0.02,1.35-0.02,2.07,0.04,2.17c0.84,1.5,2.15,1.79,3.92,0.84c1.73-0.95,2.91-1.88,3.54-2.72
					C1015.51,430,1014.22,429.39,1012.11,428.67z M1012.11,428.67c-2.11-0.72-3.31-1.03-3.63-0.86c-0.04,0.4-0.06,1.22-0.08,2.47
					c-0.02,1.35-0.02,2.07,0.04,2.17c0.84,1.5,2.15,1.79,3.92,0.84c1.73-0.95,2.91-1.88,3.54-2.72
					C1015.51,430,1014.22,429.39,1012.11,428.67z M1012.11,428.67c-2.11-0.72-3.31-1.03-3.63-0.86c-0.04,0.4-0.06,1.22-0.08,2.47
					c-0.02,1.35-0.02,2.07,0.04,2.17c0.84,1.5,2.15,1.79,3.92,0.84c1.73-0.95,2.91-1.88,3.54-2.72
					C1015.51,430,1014.22,429.39,1012.11,428.67z M1012.11,428.67c-2.11-0.72-3.31-1.03-3.63-0.86c-0.04,0.4-0.06,1.22-0.08,2.47
					c-0.02,1.35-0.02,2.07,0.04,2.17c0.84,1.5,2.15,1.79,3.92,0.84c1.73-0.95,2.91-1.88,3.54-2.72
					C1015.51,430,1014.22,429.39,1012.11,428.67z M1012.11,428.67c-2.11-0.72-3.31-1.03-3.63-0.86c-0.04,0.4-0.06,1.22-0.08,2.47
					c-0.02,1.35-0.02,2.07,0.04,2.17c0.84,1.5,2.15,1.79,3.92,0.84c1.73-0.95,2.91-1.88,3.54-2.72
					C1015.51,430,1014.22,429.39,1012.11,428.67z M1012.11,428.67c-2.11-0.72-3.31-1.03-3.63-0.86c-0.04,0.4-0.06,1.22-0.08,2.47
					c-0.02,1.35-0.02,2.07,0.04,2.17c0.84,1.5,2.15,1.79,3.92,0.84c1.73-0.95,2.91-1.88,3.54-2.72
					C1015.51,430,1014.22,429.39,1012.11,428.67z M1012.11,428.67c-2.11-0.72-3.31-1.03-3.63-0.86c-0.04,0.4-0.06,1.22-0.08,2.47
					c-0.02,1.35-0.02,2.07,0.04,2.17c0.84,1.5,2.15,1.79,3.92,0.84c1.73-0.95,2.91-1.88,3.54-2.72
					C1015.51,430,1014.22,429.39,1012.11,428.67z M1012.11,428.67c-2.11-0.72-3.31-1.03-3.63-0.86c-0.04,0.4-0.06,1.22-0.08,2.47
					c-0.02,1.35-0.02,2.07,0.04,2.17c0.84,1.5,2.15,1.79,3.92,0.84c1.73-0.95,2.91-1.88,3.54-2.72
					C1015.51,430,1014.22,429.39,1012.11,428.67z M1012.11,428.67c-2.11-0.72-3.31-1.03-3.63-0.86c-0.04,0.4-0.06,1.22-0.08,2.47
					c-0.02,1.35-0.02,2.07,0.04,2.17c0.84,1.5,2.15,1.79,3.92,0.84c1.73-0.95,2.91-1.88,3.54-2.72
					C1015.51,430,1014.22,429.39,1012.11,428.67z M1012.11,428.67c-2.11-0.72-3.31-1.03-3.63-0.86c-0.04,0.4-0.06,1.22-0.08,2.47
					c-0.02,1.35-0.02,2.07,0.04,2.17c0.84,1.5,2.15,1.79,3.92,0.84c1.73-0.95,2.91-1.88,3.54-2.72
					C1015.51,430,1014.22,429.39,1012.11,428.67z M1028.88,374.63c-13.64,22.96-38.67,38.39-67.26,38.39
					c-28.59,0-53.62-15.43-67.26-38.39h-64.58c17.12,56.59,69.73,97.92,131.84,97.92c62.11,0,114.72-41.33,131.84-97.92H1028.88z
					 M1022.57,396.31c0.08-0.08,1.07-0.06,3.02-0.06c1.94,0,2.99,0,3.06,0.06c0.25,0.19,0.44,1.03,0.49,2.57
					c0.06,1.54-0.08,2.43-0.3,2.66c-0.17,0.15-1.12,0.29-2.83,0.32c-1.73,0.04-2.63-0.04-2.78-0.15c-0.19-0.19-0.36-1.12-0.57-2.76
					C1022.47,397.34,1022.42,396.47,1022.57,396.31z M1026.98,408.53c2.05,1.67,3.96,3.31,5.71,4.98c3.02,2.87,4.79,6.09,5.08,9.72
					c-6.52-5.04-9.7-7.65-15.92-12.97c-0.29-0.29-0.76-1.58-1.56-3.84c-0.74-2.11-1.24-3.48-1.39-4.15
					C1019.05,402.13,1021.71,404.27,1026.98,408.53z M928.64,422.43c1.62-1.2,2.49-1.81,2.68-1.75c0.06,0.02,0.53,0.82,1.56,2.34
					c1.01,1.54,1.65,2.32,1.81,2.36c-0.48,0.53-1.22,1.33-2.24,2.36c-1.65,1.5-2.68,2.21-2.95,2.13c-2.57-3.2-3.58-5.02-3.48-5.29
					C926.11,424.33,927.02,423.63,928.64,422.43z M873.34,382.01c1.52,0.19,3.5,0.44,6.03,0.68c-0.17,0.46-0.29,1.35-0.29,2.68
					c0,1.33,0.13,2.13,0.34,2.4c0.13,0.15,0.82,0.3,2.05,0.34c1.41,0.06,2.23,0.06,2.42,0.11c0.04,2.23,0.13,3.33,0.4,5.57
					c-0.68,0.1-1.69,0.21-2.97,0.27c-1.65,0.06-2.53-0.04-2.66-0.19c-0.19-0.21-0.63-2.11-0.88-5.61c-1.2-0.15-2.49-0.32-3.9-0.51
					c-0.21-0.61-0.42-1.58-0.59-2.91C873.15,383.42,873.17,382.47,873.34,382.01z M885.63,439.11c-1.5,0.42-2.36,0.55-2.53,0.42
					c-0.08-0.08-0.7-1.86-1.73-5.36c-1.07,0.11-2.24,0.27-3.58,0.46c-0.3-0.59-0.65-1.5-0.99-2.74c-0.38-1.39-0.51-2.34-0.46-2.83
					c1.73-0.27,2.83-0.46,3.39-0.51c0.65-0.06,0.95-0.1,1.58-0.17c0.02,0.46,0.19,1.35,0.55,2.66c0.34,1.33,0.65,2.07,0.86,2.28
					c0.1,0.08,0.68,0.04,1.75-0.15c1.16-0.19,1.83-0.3,2-0.3c0.68,2.15,1.05,3.23,1.79,5.38
					C887.7,438.47,886.83,438.77,885.63,439.11z M935.24,448.43c-3.73-1.08-6.6-2-8.71-2.53c-1.08-0.29-2.87-0.08-5.44,0.49
					c-2.59,0.57-4.43,0.65-5.44,0.29c-3.65-1.29-5.42-2.02-8.81-3.65c0-0.02,0-0.02,0.02-0.04c-1.18-0.57-2.19-1.1-3.65-1.9
					c-0.63-0.34-0.74-0.89-0.36-1.65c0.55-1.18,0.84-1.75,1.39-2.93c-0.06,0.08-1.31,1.08-3.9,2.93c-0.7-0.42-1.2-0.7-1.73-1.05
					c-2.36-1.46-3.84-2.49-6.09-4.18c-0.65-0.49-1.2-0.91-2.02-1.56c-0.93-0.72-1.45-1.64-1.52-2.68c-0.06-0.82,0.15-1.92,0.59-3.27
					c-1.56,0.78-2.34,1.14-3.94,1.86c-2.38-2.11-3.65-3.33-5.73-5.44c-2.05-2.05-3.39-3.48-5.4-5.78c-0.46-0.49-0.8-0.89-1.35-1.54
					c-1.03-1.18-1.45-2.64-1.29-4.34c0.11-1.01,0.49-2.32,1.12-3.88c0.49-1.24,0.65-1.94,0.49-2.13c-1.22-1.46-3.12-2.19-5.86-2.32
					c-2.89,0.15-4.38,0.15-7.63,0.11c-2.76-0.06-4.76-0.74-5.63-1.98c-2.42-3.37,1.05-7.7,7.99-12.25c0.42-0.27,0.65-0.42,1.07-0.7
					c0.46,0.06,1.03,0.04,1.71-0.06c-1.01,0.67-2.19,1.98-3.6,3.99c-1.67,2.36-2.28,4.07-1.64,4.98c1.18,1.64,3.18,2.64,5.82,2.87
					c1.6,0.06,3.96,0.13,6.98,0.06c2.47-0.06,4.24,0.44,5.25,1.58c0.68,0.8,0.95,1.73,0.61,2.49c-0.32,0.72-0.86,1.54-1.26,2.34
					c-0.42,0.78-0.67,1.6-0.76,2.4c-0.11,1.03,0.11,1.88,0.65,2.47c0.29,0.32,0.51,0.57,0.72,0.8c0.21,0.23,0.4,0.44,0.59,0.65
					c0.13,0.15,0.29,0.32,0.48,0.51c1.46,1.6,2.59,2.74,4.03,4.15c0.27,0.27,0.51,0.49,0.74,0.74c0.25,0.23,0.49,0.46,0.74,0.7
					c0,0.02,0,0.02,0,0.02c2,1.92,3.44,3.21,5.92,5.25c0.36-0.21,1.45-1.54,3.2-3.96c0.08-0.06,0.99-0.36,2.7-0.99
					c1.73-0.61,2.68-0.99,2.82-1.01c-0.1,0.13-0.15,0.21-0.25,0.36c-0.04,0.08-0.13,0.19-0.19,0.3c-0.08,0.15-0.13,0.29-0.19,0.38
					c-0.91,1.41-2.09,3.04-3.61,4.83c-0.51,0.59-0.7,1.29-0.55,2.13c0.15,0.82,0.53,1.46,1.1,1.88c0.06,0.04,0.1,0.08,0.15,0.11
					c0.51,0.36,0.84,0.61,1.41,0.99c0,0.02,0,0.02-0.02,0.02c1.37,0.97,2.49,1.71,3.92,2.59c0.34,0.21,0.65,0.4,0.93,0.57
					c0.27,0.17,0.55,0.34,0.84,0.51c0.78,0.48,1.54,0.89,2.59,1.48c2.45-6.35,3.61-9.49,6.39-15.79c1.77-1.39,2.78-2.21,3.04-2.4
					c1.35-1.07,2.36-1.79,3.02-2.19c0.23,0.11-0.63,2.26-2.4,6.37c-1.26,2.89-2.49,5.8-3.65,8.69c-1.35,3.33-2.07,5.19-2.24,5.54
					c-0.55,1.16-0.36,1.9,0.57,2.21c0.19,0.08,0.36,0.17,0.53,0.25c0.46,0.21,0.8,0.36,1.35,0.61c0,0,0,0,0,0.02
					c2.43,1.1,4.26,1.83,7.38,2.87c2.02,0.68,3.63,0.82,4.79,0.48c-0.21-0.48-1.01-1.39-2.32-2.8c-1.33-1.39-2.17-2.19-2.61-2.34
					c-1.01-0.36-1.85-0.57-2.4-0.49c-0.68,0.1-1.46,0.3-2.21,0.44c1.46-1.41,2.97-2.62,4.49-3.61c2.09-1.35,3.69-1.86,4.81-1.48
					c1.54,0.51,2.95,1.56,4.3,3.16c0.88,1.1,2.24,2.7,4.26,4.74c1.03,0.95,2.45,2.02,4.36,3.14c1.41,0.84,2.49,1.27,3.2,1.39
					C938.93,444.46,937.43,446.21,935.24,448.43z M946.44,442.96c-0.44,4.17-1.81,7.65-4.34,10.35c0.08-8.16,0.21-12.25,0.67-20.39
					c0.06-0.4,0.74-1.65,1.98-3.79c1.14-2,1.88-3.29,2.28-3.84c0.19,0.02,0.1,3.39-0.11,10.12
					C946.84,438.03,946.69,440.54,946.44,442.96z M987.84,449.16c-2.19,0.61-3.46,0.91-5.4,1.35c-2.7,0.63-4.51,0.97-7.21,1.39
					c-2.51,0.42-4.26,0.67-6.68,0.91c-1.2,0.11-2.3,0.23-3.88,0.34c-0.48,0.02-0.93-0.48-1.37-1.52c-0.3-0.74-0.59-1.48-0.86-2.23
					c-0.17,0.11-0.49,0.8-1.01,2.07c-0.51,1.27-1.05,1.9-1.56,1.92c-4.64,0.17-6.96,0.13-11.58-0.15c-0.44-0.04-0.78-0.21-1.03-0.55
					c-0.25-0.32-0.34-0.74-0.29-1.2c0.36-2.87,0.93-5.31,1.62-7.27c0.27-0.88,0.51-1.54,0.7-1.96c0.42-0.87,0.82-1.37,1.22-1.5
					c-0.02,0.38-0.1,0.97-0.19,1.77c-0.11,0.8-0.17,1.39-0.19,1.73c-0.11,1.52,0.29,2.3,1.16,2.34c4.11,0.17,6.18,0.17,10.29-0.04
					c0.04-0.59-0.23-2-0.78-4.18c-0.7-2.68-1.03-4.03-1.65-6.73c0-0.13,0.4-1.26,1.1-3.35c0.72-2.11,1.1-3.31,1.26-3.63
					c0.59,2.05,1.52,5.82,3.01,11.26c0.59,2.21,0.95,3.39,1.03,3.58c0.63,1.73,1.24,2.59,1.83,2.64c2.17-0.21,3.73-0.4,5.71-0.72
					c0.38-0.06,0.74-0.11,1.08-0.17c0.34-0.06,0.7-0.11,1.1-0.19c0,0.02,0,0.02,0,0.02c1.65-0.27,3.01-0.53,4.66-0.89
					c0-0.02,0-0.02,0-0.02c0.42-0.1,0.78-0.17,1.14-0.25c0.29-0.06,0.59-0.13,0.89-0.21c0.02,0,0.02,0,0.02,0
					c1.14-0.25,2.15-0.51,3.63-0.91c0.08-0.04,0.06-0.3-0.1-0.8c-0.42-1.5-1.24-3.63-2.43-6.35c-0.91-2.07-1.85-4.18-2.74-6.3
					c-0.55-0.3-1.18-0.74-1.85-1.31c0.65-5.02,0.99-7.57,1.43-7.7c0.27,0.95,0.51,1.6,0.72,1.94c0.29,0.44,0.76,0.84,1.41,1.2
					c2.99,1.56,4.83,2.15,5.25,2.02c-0.59,2.68-0.93,4.03-1.71,6.73c0.3,0.99,1.33,3.61,3.12,7.86c0.23,0.7,0.42,1.77,0.57,3.2
					c0.13,1.43,0.21,2.13,0.32,3.56C989.7,448.3,989.11,449.08,987.84,449.16z M1000.26,445.69c-3.99-7.06-5.92-10.61-9.59-17.82
					c-0.13-0.36-0.13-1.77-0.1-4.17c0.04-2.24,0.06-3.71,0.15-4.38c0.21,0,1.81,2.95,4.96,8.75c1.24,2.28,2.36,4.51,3.33,6.68
					C1000.71,438.54,1001.21,442.18,1000.26,445.69z M1003.01,416.97c0.04,0.19-0.13,1.29-0.61,3.33c-0.49,0.06-1.37,0.02-2.59-0.13
					c-1.22-0.17-2.02-0.36-2.42-0.59c0.25-1.9,0.46-3.5,0.67-4.77c0.42,0.21,1.2,0.42,2.36,0.61c1.16,0.19,1.88,0.21,2.15,0.06
					c0.13-0.06,0.27-0.63,0.38-1.69s0.19-1.67,0.25-1.83c2,0.19,3.02,0.25,5.1,0.32c0.08,0.59,0.11,1.46,0.1,2.61
					c-0.04,1.45-0.15,2.23-0.3,2.32c-0.1,0.06-0.89,0.08-2.4,0C1004.27,417.14,1003.38,417.03,1003.01,416.97z M1015.13,438.73
					c-1.67,0.91-2.93,1.43-3.75,1.58c-1.58,0.3-2.7-0.21-3.35-1.46c-0.7-1.33-1.05-3.08-1.1-5.23c-0.04-0.38,0.04-2.17,0-5.29
					c-0.02-1.27,0.04-2.49,0.15-3.65c0.11-1.33,0.15-2,0.23-3.33c0.13-0.08,1.12,0.13,2.97,0.57c1.54,0.36,2.68,0.65,3.37,0.86
					c1.56,0.38,2.95,1.33,4.09,2.93c0.34,0.49,0.63,0.97,0.86,1.45c0.23,1.08,0.46,2.21,0.61,3.29c0.17,1.29,0.1,2.43-0.19,3.33
					c-0.1,0.51-0.63,1.41-1.6,2.66C1016.42,437.69,1015.66,438.45,1015.13,438.73z M1033.51,434.68c-0.44,1.98-1.01,3.2-1.64,3.63
					c-2.99,2.05-7.44,3.58-13.05,4.07c-0.78-0.04-1.58-0.06-2.4-0.1c1.64-0.46,3.12-1.07,4.39-1.81c1.64-0.97,3.41-2.43,5.19-4.39
					c2.17-2.38,3.06-6.2,2.38-11.18c-1.07-0.38-2.4-0.63-3.98-0.76c-1.77-0.15-2.63-0.27-4.34-0.49c-0.53-1.77-1.18-3.79-1.96-6.05
					c0.8-0.13,2.62,0.27,5.57,1.07c2.95,0.82,4.76,1.45,5.33,2.07C1032.97,425.09,1034.63,429.72,1033.51,434.68z M1052.64,418.32
					c-0.17,1.96-0.59,3.25-1.18,3.82c-2.72,2.66-7.04,5.08-12.71,6.7c-0.82,0.13-1.64,0.27-2.47,0.4c2.24-1.41,3.88-2.61,4.93-3.48
					c1.62-1.41,2.97-3.08,3.98-4.96c1.52-2.85,1.65-6.62,0.19-11.01c-1.29-0.19-4.24,0.06-8.65,0.34c-0.86-1.65-1.86-3.52-3.08-5.59
					c0.86-0.34,2.8-0.36,5.92-0.19c3.12,0.17,5.12,0.44,5.9,0.99C1050.59,409.04,1053.14,413.32,1052.64,418.32z M1059.26,413.47
					c-2.97,2.51-5.08,3.8-6.28,4.07c3.25-3.73,5.27-7.19,6.09-10.06c0.65-2.23,0.78-4.74,0.4-7.46c-0.44-3.23-1.56-5.25-3.18-6.09
					c-0.34-0.17-0.68-0.3-0.99-0.36c1.22,1.71,1.85,2.85,1.94,3.39c0.29,1.08-0.11,2.34-1.18,3.71c-1.1,1.39-2.49,1.92-4.15,1.58
					c-0.99-0.21-2.36-0.88-4.11-2c-1.29-0.84-2.51-2.59-3.8-5.15c-1.35-2.74-1.69-4.55-0.93-5.55c0.8-1.07,2.78-1.31,6.05-0.89
					c2.72,0.34,4.91,0.86,6.51,1.65c3.21,1.56,6.09,3.9,8.39,7.19c2.85,4.03,3.1,7.65,0.89,10.39
					C1063.73,409.38,1061.83,411.28,1059.26,413.47z M1008.47,427.81c-0.04,0.4-0.06,1.22-0.08,2.47c-0.02,1.35-0.02,2.07,0.04,2.17
					c0.84,1.5,2.15,1.79,3.92,0.84c1.73-0.95,2.91-1.88,3.54-2.72c-0.38-0.57-1.67-1.18-3.79-1.9
					C1010,427.95,1008.8,427.64,1008.47,427.81z M1012.11,428.67c-2.11-0.72-3.31-1.03-3.63-0.86c-0.04,0.4-0.06,1.22-0.08,2.47
					c-0.02,1.35-0.02,2.07,0.04,2.17c0.84,1.5,2.15,1.79,3.92,0.84c1.73-0.95,2.91-1.88,3.54-2.72
					C1015.51,430,1014.22,429.39,1012.11,428.67z M1012.11,428.67c-2.11-0.72-3.31-1.03-3.63-0.86c-0.04,0.4-0.06,1.22-0.08,2.47
					c-0.02,1.35-0.02,2.07,0.04,2.17c0.84,1.5,2.15,1.79,3.92,0.84c1.73-0.95,2.91-1.88,3.54-2.72
					C1015.51,430,1014.22,429.39,1012.11,428.67z M1012.11,428.67c-2.11-0.72-3.31-1.03-3.63-0.86c-0.04,0.4-0.06,1.22-0.08,2.47
					c-0.02,1.35-0.02,2.07,0.04,2.17c0.84,1.5,2.15,1.79,3.92,0.84c1.73-0.95,2.91-1.88,3.54-2.72
					C1015.51,430,1014.22,429.39,1012.11,428.67z M1012.11,428.67c-2.11-0.72-3.31-1.03-3.63-0.86c-0.04,0.4-0.06,1.22-0.08,2.47
					c-0.02,1.35-0.02,2.07,0.04,2.17c0.84,1.5,2.15,1.79,3.92,0.84c1.73-0.95,2.91-1.88,3.54-2.72
					C1015.51,430,1014.22,429.39,1012.11,428.67z M1012.11,428.67c-2.11-0.72-3.31-1.03-3.63-0.86c-0.04,0.4-0.06,1.22-0.08,2.47
					c-0.02,1.35-0.02,2.07,0.04,2.17c0.84,1.5,2.15,1.79,3.92,0.84c1.73-0.95,2.91-1.88,3.54-2.72
					C1015.51,430,1014.22,429.39,1012.11,428.67z M1012.11,428.67c-2.11-0.72-3.31-1.03-3.63-0.86c-0.04,0.4-0.06,1.22-0.08,2.47
					c-0.02,1.35-0.02,2.07,0.04,2.17c0.84,1.5,2.15,1.79,3.92,0.84c1.73-0.95,2.91-1.88,3.54-2.72
					C1015.51,430,1014.22,429.39,1012.11,428.67z M1012.11,428.67c-2.11-0.72-3.31-1.03-3.63-0.86c-0.04,0.4-0.06,1.22-0.08,2.47
					c-0.02,1.35-0.02,2.07,0.04,2.17c0.84,1.5,2.15,1.79,3.92,0.84c1.73-0.95,2.91-1.88,3.54-2.72
					C1015.51,430,1014.22,429.39,1012.11,428.67z M1012.11,428.67c-2.11-0.72-3.31-1.03-3.63-0.86c-0.04,0.4-0.06,1.22-0.08,2.47
					c-0.02,1.35-0.02,2.07,0.04,2.17c0.84,1.5,2.15,1.79,3.92,0.84c1.73-0.95,2.91-1.88,3.54-2.72
					C1015.51,430,1014.22,429.39,1012.11,428.67z M1012.11,428.67c-2.11-0.72-3.31-1.03-3.63-0.86c-0.04,0.4-0.06,1.22-0.08,2.47
					c-0.02,1.35-0.02,2.07,0.04,2.17c0.84,1.5,2.15,1.79,3.92,0.84c1.73-0.95,2.91-1.88,3.54-2.72
					C1015.51,430,1014.22,429.39,1012.11,428.67z M1012.11,428.67c-2.11-0.72-3.31-1.03-3.63-0.86c-0.04,0.4-0.06,1.22-0.08,2.47
					c-0.02,1.35-0.02,2.07,0.04,2.17c0.84,1.5,2.15,1.79,3.92,0.84c1.73-0.95,2.91-1.88,3.54-2.72
					C1015.51,430,1014.22,429.39,1012.11,428.67z M1012.11,428.67c-2.11-0.72-3.31-1.03-3.63-0.86c-0.04,0.4-0.06,1.22-0.08,2.47
					c-0.02,1.35-0.02,2.07,0.04,2.17c0.84,1.5,2.15,1.79,3.92,0.84c1.73-0.95,2.91-1.88,3.54-2.72
					C1015.51,430,1014.22,429.39,1012.11,428.67z M1012.11,428.67c-2.11-0.72-3.31-1.03-3.63-0.86c-0.04,0.4-0.06,1.22-0.08,2.47
					c-0.02,1.35-0.02,2.07,0.04,2.17c0.84,1.5,2.15,1.79,3.92,0.84c1.73-0.95,2.91-1.88,3.54-2.72
					C1015.51,430,1014.22,429.39,1012.11,428.67z"/>
			</g>
			<g>
				<path class="st0" d="M954.11,177.13c0.06,1.78-1.6,2.94-1.4,4.79c0.27,2.5,1.48,3.78,0.63,6.59c-0.69,2.3-1.89,4.46-2.09,6.86
					c-0.16,1.92,0.35,3.83,0.51,5.75c0.29,3.46-0.53,6.91-1.02,10.34c-0.48,3.36-0.1,6.03,0.51,9.29c0.59,3.12-0.02,6.63-0.42,9.82
					c-0.42,3.29-0.97,6.6-1.85,9.79H930.1c-2.88,0-3.97,1.35-3.97,3.03c0,5.49,10.98,14.53,10.98,14.53l2.53-5.58l6.48,3.35
					l2.15-4.09l8.63,7.07c0,0,2.24-0.67,3.06-2.34c0.8-1.68,0.18-4.36,0.18-4.36l11.15,5.58c0,0,2.97,0.07,4.26-2.02
					c1-1.56,0.42-5.42,0.42-5.42l8.63,2.23c0,0,5.41-4.87,7.32-8.35c0.75-1.38-0.14-3.63-1.22-3.63c-4.17,0-24.79,0.07-24.79,0.07
					s-0.95-5.76-0.69-11.66c0.26-5.76-4.7-44.22-4.33-57.86l-1.17-20.99l-11.01,0.68C948.71,150.64,953.94,172.15,954.11,177.13z"/>
				<path class="st0" d="M1002.19,116.03c2.02,0.3,4.37,2.75,6.87,3.67c4.94,1.84,8.98,1.93,8.98,1.93s0.4-3.65-3.19-6.56
					c-2.84-2.27-8.69-3.9-12.28-5.14c-10.29-3.6-23.02-3.01-23.02-3.01s1.73-3.3,6.87-4.22c3.59-0.64,3.59,0.96,7.87,0.69
					c2.6-0.16,5.61-2.57,8.49-2.94c1.8-0.25,8.78,2.78,11.49,1.56c2.13-0.96,1.59-3.12-8.16-7.14c-6.23-2.55-15.06-3.4-15.06-3.4
					s11.82-4.73,11.69-8.01c-0.09-2.41-10.29-4.29-18.01-1.56c-3.33,1.19-7.05,2.36-9.85,4.66c-3.85,3.16-6.53,7.14-7.5,8.7
					l-0.41,0.69c0,0,0.15-0.26,0.41-0.69l4.98-8.27l4.3-4.09l-0.36-6.7c0,0,2.84,2.48,5.41,2.8c1.57,0.21,3.77-0.94,3.77-0.94
					s0.95-0.5,2.97-1.63c1.33-0.73,3.5-2.66,3.5-2.66s-4.75-6.66-9.34-7c-5.08-0.39-11.71,4.96-11.71,4.96s1.62-5.35-0.82-8.22
					c-2.22-2.59-8.54-2.71-8.54-2.71s-3.1-0.34-5.54,2.2c-2.57,2.71-2.59,8.47-2.59,8.47s-2.39-5.65-6.79-8.1
					c-1.24-0.69-4.79-1.06-6.23-1.29c-13.17-2.13-14.81,3.67-14.75,5.55c0.11,2.57,6.01,3.44,10.95,11.54
					c3.95,6.43,6.03,13.4,6.23,14.09c-0.6-0.85-10.27-14.41-17.43-18.89c-9-5.6-19.94-4.68-18.52-2.52
					c1.64,2.5,4.92,6.68,15.1,14.14c1.62,1.19,4.5,0.18,6.1,1.61c2.15,1.93,0.55,4.52,2.44,6.56c2.22,2.43,6.65,2.94,8.69,4.82
					c2.22,2.07,3.17,4.43,3.26,4.73c-0.47-0.37-15.72-12.23-28.81-17.31c-7.67-2.96-15.66-2.78-17.87-1.4
					c-2.08,1.29,2.53,8.01,9.71,7.32c2.99-0.3,0.42,3.74,4.17,5.12c6.63,2.41,14.28,3.6,17.36,5.37c9.82,5.69,5.14,4.66,5.14,4.66
					s-8.54-2.94-18.85-3.21c-5.9-0.16-14.08,1.81-17.27,2.5c-12.99,2.89-11.91,11.25-9.76,13.08c1.42,1.24,5.61-4.22,11.35-5.1
					c1.75-0.28,2.26,2.02,4.43,1.88c1.69-0.09,4.15-3.12,5.5-3.44c1.75-0.41,2.17,1.86,2.17,1.86s-10.98,6.56-13.84,12.94
					c-5.28,11.82,2.71,12.94,4.26,12.03c0.95-0.57,0-3.58,1.71-5.88c3.15-4.2,7.43-4.68,7.07-4.09c3.77-6.29,14.01-11.7,15.28-12.35
					c-1.06,0.83-9.09,6.89-13.15,12.94c-1.53,2.34-3.39,4.54-4.21,6.68c-1.8,4.8-3.37,9.62,0.69,8.77c0.89-0.18,2-4.48,6.67-8.06
					c3.7-2.85,6.14-5.23,6.5-5.55c-0.47,0.71-4.1,6.52-4.88,11.29c-2.24,13.91,2.11,11.64,5.1,7c1.62-2.52,3.15-5.9,4.01-6.61
					c3.13-2.59,5.28-2.82,5.28-2.82s-2.75,6.79-2.75,11.68c0,9.41,2.77,10.17,4.12,7.57c1.46-2.82,1.55-9.57,1.95-10.33
					c0.76-1.51,2.68-2.69,3.55-4.18c0.67-1.19,0.78-5.16,1.35-6.27c2.08-4.02,4.01-4.43,4.01-4.43s-3.75,11.59-3.64,19.97
					c0.07,6.17,3.99,11.87,3.99,11.87l9.72-3.51c0,0,4.16,6.33,3.02,4.38l4.9-7.08l-0.01-0.31c0,0,1.2,0.32,1.99,1.42
					c0.71,0.99,0.93,2.71,1.95,3.53c1.46,1.15,3.59,0.99,3.59,0.99s1.69-3.79,1.11-8.7c-0.82-7.14-2.55-15.31-2.55-15.31l9,3.9
					c0,0-0.53,5.65,1.35,8.88c1.71,2.89,6.74,4.52,6.74,4.52s1.86-4.75,0.18-8.84c-3.77-9.2-13.75-23.73-14.37-24.63
					c0.27,0.18,4.59,3.6,7.67,6.89c1.84,1.95,3.1,4.61,3.1,4.61h6.83c0,0,0.55,5.58,2.55,7.8c2.46,2.73,6.43,2.25,6.43,2.25
					s3.95-1.79,1.04-5.92c-2.31-3.26-8.94-10.74-12.6-14.51c-5.12-5.3-7.56-6.91-7.85-7.09c0.45,0.05,5.77,0.92,9.45,3.12
					c2.84,1.7,4.22,5.05,4.22,5.05l11.15,0.37l10.78,6.33c0,0,2.66-1.22,0.44-4.7c-3.43-5.39-13.39-12.26-13.39-12.26
					S999.4,115.62,1002.19,116.03z"/>
			</g>
			<g>
				<path class="st0" d="M1028.43,319.16c-5.04-0.84-9.63,6.64-16.61,7.11c-8.58,0.55-15.45-6.52-15.45-6.52l0.36-1.62
					c0.19,0.02,0.4,0.06,0.61,0.06c2.49,0,4.51-2.02,4.51-4.51s-2.02-4.51-4.51-4.51c-2.47,0-4.51,2.02-4.51,4.51
					c0,0.55,0.13,1.1,0.32,1.6l-2.74,1.1c0,0-7.36-7.57-18.85-17.98l-3.94-3.48l-5.99-5.27c-1.29-1.1-2.61-2.23-3.96-3.37
					c-16.99-14.32-38.33-30.32-58.38-39.77c-33.46-15.81-63.34-3.01-63.34-3.01s29.41-2.15,65.66,18.26
					c15.62,8.81,32.43,21.76,46.6,33.67c1.18,1.01,2.34,2,3.48,2.97l6.45,5.67l3.48,3.06c11.79,10.58,19.61,18.41,19.61,18.41
					l-0.25,1.9c-0.38-0.11-0.78-0.19-1.22-0.19c-2.49,0-4.51,2.02-4.51,4.51s2.02,4.51,4.51,4.51c2.49,0,4.51-2.02,4.51-4.51
					c0-0.53-0.1-1.01-0.27-1.48l0.97-0.72c0,0,24.54,16.83,37.42,11.07C1038.22,333.6,1036.84,320.59,1028.43,319.16z
					 M979.22,317.13c-0.76,1.22-3.88-3.12-8.5-7.27c-2.93-2.64-6.35-5.73-9.57-8.69l-9.36-9.19c-1.31-1.5-1.98-2.53-1.64-2.82
					c0.23-0.19,1.24,0.51,2.74,1.73c2.4,2,6.07,5.42,9.7,8.86c1.96,1.86,3.92,3.73,5.67,5.38
					C975.78,312.2,980.26,315.45,979.22,317.13z M1016.33,334.82c-0.84,0.1-1.67,0.1-2.49,0.04c-0.15-0.02-0.3-0.02-0.44-0.02
					c-0.06-0.02-0.1-0.02-0.15-0.02c-0.08-0.02-0.11-0.02-0.15-0.02c-0.08,0-0.11-0.02-0.17-0.02c-0.1-0.02-0.15-0.02-0.25-0.04
					c-0.32-0.06-0.67-0.11-0.99-0.17c-0.36-0.08-0.7-0.15-1.07-0.25c-0.7-0.17-1.39-0.36-2.04-0.57c-0.15-0.06-0.32-0.11-0.49-0.17
					c-0.17-0.06-0.32-0.11-0.48-0.17c-0.3-0.11-0.63-0.23-0.93-0.36c-0.3-0.11-0.63-0.25-0.93-0.38c-0.36-0.17-0.7-0.32-0.99-0.44
					c-0.3-0.15-0.55-0.29-0.82-0.44c-1.05-0.49-1.83-0.97-2.23-1.22c-0.11-0.08-0.19-0.11-0.25-0.15c0.08,0,0.15,0.02,0.3,0.04
					c0.08,0.02,0.17,0.04,0.3,0.06c0.17,0.02,0.38,0.08,0.63,0.13c0.19,0.02,0.4,0.06,0.65,0.08c0.34,0.08,0.72,0.13,1.14,0.21
					c0.29,0.02,0.57,0.06,0.89,0.1c0.59,0.08,1.24,0.13,1.92,0.17c0.21,0.02,0.44,0.02,0.67,0.04c2.64,0.13,5.67-0.02,8.14-0.87
					c6.77-2.32,7.84-8.35,10.6-5.52C1029.23,327.4,1023.6,334.02,1016.33,334.82z"/>
			</g>
			<g>
				<path class="st0" d="M951.79,291.98l-3.56,3.46l-2.21,2.15c-10.96,10.96-17.94,18.87-17.94,18.87l-2.8-0.95
					c0.17-0.51,0.27-1.07,0.25-1.62c-0.13-2.49-2.24-4.39-4.74-4.28c-2.47,0.13-4.39,2.24-4.26,4.74c0.11,2.47,2.23,4.39,4.72,4.26
					c0.21,0,0.42-0.06,0.61-0.08l0.46,1.58c0,0-6.51,7.42-15.12,7.3c-6.98-0.13-11.93-7.38-16.93-6.28
					c-8.35,1.85-9.05,14.91,7.06,21.15c13.16,5.12,36.83-12.93,36.83-12.93l1.03,0.68c-0.15,0.48-0.23,0.97-0.21,1.5
					c0.13,2.47,2.24,4.39,4.74,4.26c2.47-0.11,4.39-2.23,4.28-4.72c-0.13-2.49-2.24-4.39-4.74-4.28c-0.42,0.02-0.82,0.11-1.22,0.25
					l-0.32-1.88c0,0,7.42-8.24,18.68-19.38l1.77-1.71l2.99-2.91L951.79,291.98z M902.71,333.37c-7.44-0.67-15.05-5.1-12.52-8.1
					c3.56-4.22,6.83,3.23,13.18,4.45c7.99,1.52,13.18-0.44,12.92,0.29C916.05,330.67,910.72,334.07,902.71,333.37z"/>
				<path class="st0" d="M1078.68,235.98c0,0-29.46-0.67-64.64,21.53c-15.73,9.93-32.57,24.4-46.41,37.42
					c-0.59,0.55-1.18,1.1-1.77,1.65l-3.27,3.18c-3.63-3.44-7.3-6.87-9.7-8.86l2.63-2.55c0.7-0.68,1.45-1.37,2.17-2.05
					c16.47-15.5,37.7-33.35,57.92-44.15C1048.23,224.7,1078.68,235.98,1078.68,235.98z"/>
			</g>
			<path class="st0" d="M1323.51,368.56c-0.02-0.21-0.08-0.4-0.08-0.59c-0.48-15.26-1.94-30.42-4.3-45.48
				c-4.41-28.13-11.98-55.39-23.02-81.6c-28.36-67.36-73.08-121.34-133.53-162.26c-33.88-22.92-70.76-39.3-110.4-49.44
				c-18.47-4.74-37.21-7.99-56.19-9.76c-9.17-0.86-18.36-1.31-27.54-1.6h-13.81c-7.61,0.25-15.22,0.59-22.83,1.2
				c-17.04,1.37-33.9,3.96-50.56,7.74c-26.44,6.03-51.87,14.93-76.3,26.73c-30.28,14.59-58.02,33.06-83.16,55.37
				c-30.3,26.88-55.51,57.9-75.42,93.15c-28.88,51.11-44.32,106.07-46.55,164.69c-1.1,29.33,1.35,58.4,7.32,87.18
				c8.24,39.74,22.71,77.04,43.64,111.79c27.07,44.95,62.22,82.36,105.3,112.29c33.82,23.47,70.65,40.57,110.4,51.34
				c21.97,5.95,44.32,9.78,67.03,11.51c19.63,1.48,39.24,1.41,58.87-0.25c19.29-1.64,38.31-4.7,57.07-9.36
				c35.65-8.85,69.14-22.85,100.49-42.02c35.8-21.93,66.9-49.25,93.32-81.87c31.84-39.28,54.44-83.33,67.74-132.13
				c5.36-19.69,8.98-39.68,10.92-59.98c0.78-8.05,1.24-16.11,1.6-24.2C1323.72,383.53,1323.72,376.06,1323.51,368.56z
				 M960.48,724.14c-190.52-0.49-345.93-157.08-343.12-349.56C620.12,186.75,774.54,33.8,964.34,35.66
				c188.49,0.99,341.92,155.22,341.54,344.54C1305.5,571.14,1149.73,724.61,960.48,724.14z"/>
		</g>
	</g>
</g>
</svg>
