<?xml version="1.0" encoding="utf-8"?>
<!-- Generator: Adobe Illustrator 26.0.1, SVG Export Plug-In . SVG Version: 6.00 Build 0)  -->
<svg version="1.1" xmlns="http://www.w3.org/2000/svg" xmlns:xlink="http://www.w3.org/1999/xlink" x="0px" y="0px"
	 viewBox="0 0 454.7 206.6" style="enable-background:new 0 0 454.7 206.6;" xml:space="preserve">
<style type="text/css">
	.st0{fill:#FFA400;}
	.st1{fill:#D7282F;}
	.st2{fill:#3DAE2B;}
	.st3{fill:#005CB9;}
	.st4{fill:#00A0DF;}
</style>
<g id="Layer_1">
</g>
<g id="Layer_2">
	<g>
		<rect x="137.1" y="103.3" transform="matrix(0.7071 -0.7071 0.7071 0.7071 -33.5684 128.7565)" width="3.1" height="3.3"/>
		<rect x="131.4" y="103.3" transform="matrix(0.7071 -0.7071 0.7071 0.7071 -35.2172 124.7705)" width="3.1" height="3.3"/>
		<rect x="163.9" y="103.4" transform="matrix(0.7071 -0.7071 0.7071 0.7071 -25.8158 147.7494)" width="3.1" height="3.3"/>
		<rect x="157.8" y="103.4" transform="matrix(0.7071 -0.7071 0.7071 0.7071 -27.5972 143.4466)" width="3.1" height="3.3"/>
		<path d="M182.5,107v-1c0-0.5,0.3-0.9,0.7-1.1c0.2-0.1,0.3-0.1,0.5-0.1h0.9v-1.5h-0.9c-0.8,0-1.4,0.2-1.9,0.7s-0.8,1.1-0.8,1.9v2.5
			h4V107L182.5,107L182.5,107z"/>
		<g>
			<g>
				<path d="M44.8,182.1h-3.9l-0.8,2.3h-1.7l3.7-10.3h1.3l3.7,10.3h-1.6L44.8,182.1z M44.3,180.7l-1.5-4.5h0l-1.5,4.5H44.3z"/>
				<path d="M51.3,183.1c0.4,0,0.8-0.1,1-0.2s0.4-0.4,0.4-0.7c0-0.3-0.1-0.4-0.2-0.6c-0.2-0.1-0.4-0.2-0.7-0.2l-1.3-0.1
					c-0.6-0.1-1.1-0.3-1.5-0.6c-0.4-0.3-0.6-0.8-0.6-1.5c0-0.8,0.3-1.3,0.8-1.7c0.5-0.4,1.2-0.6,1.9-0.6c0.3,0,0.6,0,0.9,0.1
					c0.3,0,0.5,0.1,0.8,0.2c0.5,0.2,0.9,0.4,1.2,0.7l-0.9,1.1c-0.3-0.2-0.6-0.4-0.9-0.5c-0.3-0.1-0.7-0.2-1.1-0.2
					c-0.5,0-0.8,0.1-1,0.2s-0.3,0.4-0.3,0.6c0,0.2,0.1,0.3,0.2,0.4c0.1,0.1,0.4,0.2,0.7,0.3l1.2,0.1c0.8,0.1,1.3,0.3,1.7,0.7
					c0.3,0.4,0.5,0.9,0.5,1.5c0,0.7-0.3,1.3-0.9,1.6c-0.6,0.4-1.3,0.6-2.2,0.6c-1.2,0-2.3-0.4-3.2-1.3l1-1
					C49.6,182.8,50.3,183.1,51.3,183.1z"/>
				<path d="M57.4,181.3c0,0.6,0.2,1,0.5,1.3c0.3,0.3,0.7,0.5,1.2,0.5c0.6,0,1.1-0.2,1.6-0.7l1.1,0.9c-0.7,0.8-1.6,1.2-2.6,1.2
					c-0.4,0-0.8-0.1-1.1-0.2c-0.2-0.1-0.4-0.1-0.5-0.2c-0.2-0.1-0.4-0.2-0.5-0.3c-0.3-0.3-0.6-0.7-0.8-1.1c-0.2-0.5-0.3-1.1-0.3-1.8
					c0-0.7,0.1-1.3,0.3-1.8c0.2-0.5,0.4-0.9,0.7-1.2c0.3-0.3,0.6-0.5,1-0.6c0.4-0.1,0.7-0.2,1.1-0.2c0.8,0,1.5,0.3,2.1,0.8
					c0.6,0.6,0.9,1.3,0.9,2.3v1.2L57.4,181.3L57.4,181.3z M60.5,180.1c0-0.6-0.2-1-0.5-1.3c-0.3-0.3-0.6-0.4-1.1-0.4
					s-0.8,0.1-1.1,0.4c-0.3,0.3-0.4,0.7-0.5,1.3H60.5z"/>
				<path d="M65.2,181.3c0,0.6,0.2,1,0.5,1.3c0.3,0.3,0.7,0.5,1.2,0.5c0.6,0,1.1-0.2,1.6-0.7l1.1,0.9c-0.7,0.8-1.6,1.2-2.6,1.2
					c-0.4,0-0.8-0.1-1.1-0.2c-0.2-0.1-0.4-0.1-0.5-0.2c-0.2-0.1-0.4-0.2-0.5-0.3c-0.3-0.3-0.6-0.7-0.8-1.1c-0.2-0.5-0.3-1.1-0.3-1.8
					c0-0.7,0.1-1.3,0.3-1.8c0.2-0.5,0.4-0.9,0.7-1.2c0.3-0.3,0.6-0.5,1-0.6c0.4-0.1,0.7-0.2,1.1-0.2c0.8,0,1.5,0.3,2.1,0.8
					c0.6,0.6,0.9,1.3,0.9,2.3v1.2L65.2,181.3L65.2,181.3z M68.3,180.1c0-0.6-0.2-1-0.5-1.3c-0.3-0.3-0.6-0.4-1.1-0.4
					c-0.4,0-0.8,0.1-1.1,0.4c-0.3,0.3-0.4,0.7-0.5,1.3H68.3z"/>
				<path d="M72,177.1h1.5v0.8h0c0.5-0.6,1.1-0.9,1.9-0.9c0.6,0,1.1,0.2,1.5,0.6l-1.1,1.3c-0.3-0.2-0.6-0.4-1-0.4
					c-0.4,0-0.7,0.1-1,0.4c-0.3,0.2-0.5,0.6-0.5,1.2v4.4h-1.5L72,177.1L72,177.1z"/>
				<path d="M82.4,174.1H86c1.4,0,2.4,0.6,3.1,1.7c0.2,0.4,0.4,0.8,0.5,1.2c0,0.4,0.1,1.2,0.1,2.2c0,1.1,0,1.9-0.1,2.3
					c0,0.2-0.1,0.4-0.2,0.6c-0.1,0.2-0.2,0.3-0.3,0.5c-0.3,0.5-0.7,0.9-1.3,1.2c-0.5,0.3-1.2,0.5-2,0.5h-3.5
					C82.4,184.4,82.4,174.1,82.4,174.1z M83.9,183h1.9c0.9,0,1.5-0.3,1.9-0.9c0.2-0.2,0.3-0.5,0.3-0.8c0-0.3,0.1-1,0.1-1.9
					c0-0.9,0-1.5-0.1-1.9c-0.1-0.4-0.2-0.7-0.4-0.9c-0.4-0.6-1-0.9-1.8-0.9h-1.9V183z"/>
				<path d="M93.1,181.3c0,0.6,0.2,1,0.5,1.3c0.3,0.3,0.7,0.5,1.2,0.5c0.6,0,1.1-0.2,1.6-0.7l1.1,0.9c-0.7,0.8-1.6,1.2-2.6,1.2
					c-0.4,0-0.8-0.1-1.1-0.2c-0.2-0.1-0.4-0.1-0.5-0.2c-0.2-0.1-0.4-0.2-0.5-0.3c-0.3-0.3-0.6-0.7-0.8-1.1c-0.2-0.5-0.3-1.1-0.3-1.8
					c0-0.7,0.1-1.3,0.3-1.8c0.2-0.5,0.4-0.9,0.7-1.2c0.3-0.3,0.6-0.5,1-0.6c0.4-0.1,0.7-0.2,1.1-0.2c0.8,0,1.5,0.3,2.1,0.8
					c0.6,0.6,0.9,1.3,0.9,2.3v1.2L93.1,181.3L93.1,181.3z M96.2,180.1c0-0.6-0.2-1-0.5-1.3c-0.3-0.3-0.6-0.4-1.1-0.4
					c-0.4,0-0.8,0.1-1.1,0.4c-0.3,0.3-0.4,0.7-0.5,1.3H96.2z"/>
				<path d="M98.6,177.1h1.6l1.7,5.1h0l1.7-5.1h1.6l-2.7,7.3h-1.2L98.6,177.1z"/>
				<path d="M107.7,181.3c0,0.6,0.2,1,0.5,1.3c0.3,0.3,0.7,0.5,1.2,0.5c0.6,0,1.1-0.2,1.6-0.7l1.1,0.9c-0.7,0.8-1.6,1.2-2.6,1.2
					c-0.4,0-0.8-0.1-1.1-0.2c-0.2-0.1-0.4-0.1-0.5-0.2c-0.2-0.1-0.4-0.2-0.5-0.3c-0.3-0.3-0.6-0.7-0.8-1.1c-0.2-0.5-0.3-1.1-0.3-1.8
					c0-0.7,0.1-1.3,0.3-1.8c0.2-0.5,0.4-0.9,0.7-1.2c0.3-0.3,0.6-0.5,1-0.6c0.4-0.1,0.7-0.2,1.1-0.2c0.8,0,1.5,0.3,2.1,0.8
					c0.6,0.6,0.9,1.3,0.9,2.3v1.2L107.7,181.3L107.7,181.3z M110.8,180.1c0-0.6-0.2-1-0.5-1.3c-0.3-0.3-0.6-0.4-1.1-0.4
					s-0.8,0.1-1.1,0.4c-0.3,0.3-0.4,0.7-0.5,1.3H110.8z"/>
				<path d="M114.4,174.1h1.5v8.4c0,0.3,0.2,0.5,0.6,0.5h0.5v1.4h-0.7c-0.5,0-1-0.1-1.3-0.4c-0.4-0.3-0.6-0.7-0.6-1.4V174.1z"/>
				<path d="M118.4,180.8c0-0.8,0.1-1.4,0.2-1.8c0.1-0.4,0.3-0.7,0.6-1c0.2-0.2,0.5-0.5,0.8-0.7c0.4-0.2,0.8-0.3,1.4-0.3
					c0.6,0,1.1,0.1,1.4,0.3c0.4,0.2,0.6,0.4,0.8,0.7c0.3,0.3,0.5,0.6,0.6,1c0.1,0.4,0.2,1,0.2,1.8s-0.1,1.4-0.2,1.8
					c-0.1,0.4-0.3,0.8-0.6,1.1c-0.1,0.1-0.2,0.2-0.3,0.3c-0.1,0.1-0.3,0.2-0.5,0.3c-0.4,0.2-0.8,0.3-1.4,0.3c-0.6,0-1-0.1-1.4-0.3
					c-0.4-0.2-0.6-0.4-0.8-0.6c-0.3-0.3-0.5-0.7-0.6-1.1C118.5,182.1,118.4,181.5,118.4,180.8z M123,180.8c0-0.5,0-0.9-0.1-1.1
					c0-0.2-0.1-0.4-0.3-0.6c-0.1-0.2-0.3-0.3-0.5-0.4c-0.2-0.1-0.4-0.1-0.7-0.1c-0.2,0-0.5,0-0.7,0.1c-0.2,0.1-0.4,0.2-0.5,0.4
					c-0.1,0.2-0.2,0.4-0.3,0.6c-0.1,0.2-0.1,0.6-0.1,1.1c0,0.5,0,0.9,0.1,1.1c0.1,0.2,0.1,0.5,0.3,0.6c0.1,0.1,0.3,0.3,0.5,0.4
					c0.2,0.1,0.4,0.2,0.7,0.2c0.3,0,0.5,0,0.7-0.2c0.2-0.1,0.4-0.2,0.5-0.4c0.1-0.2,0.2-0.4,0.3-0.6C123,181.6,123,181.3,123,180.8z
					"/>
				<path d="M126.6,177.1h1.5v0.8c0.5-0.5,1.1-0.8,1.9-0.9c0.9,0,1.6,0.3,2,1c0.2,0.2,0.3,0.5,0.4,0.9c0.1,0.4,0.1,1,0.1,1.9
					c0,0.9,0,1.5-0.1,1.9c-0.1,0.4-0.2,0.7-0.4,0.9c-0.2,0.3-0.5,0.5-0.8,0.7c-0.3,0.2-0.7,0.3-1.2,0.3c-0.4,0-0.7-0.1-1-0.2
					c-0.3-0.1-0.6-0.4-0.9-0.6v3.8h-1.5V177.1z M129.5,183c0.3,0,0.6-0.1,0.8-0.2c0.2-0.1,0.3-0.3,0.4-0.5c0.1-0.2,0.2-0.5,0.2-0.7
					c0-0.3,0-0.5,0-0.8c0-0.3,0-0.6,0-0.9c0-0.3-0.1-0.5-0.2-0.7c-0.1-0.2-0.2-0.4-0.4-0.5c-0.2-0.1-0.5-0.2-0.8-0.2
					c-0.3,0-0.6,0.1-0.8,0.2c-0.2,0.1-0.4,0.3-0.4,0.5c-0.1,0.2-0.1,0.5-0.2,0.7c0,0.3,0,0.6,0,0.8c0,0.3,0,0.5,0,0.8
					c0,0.3,0.1,0.5,0.2,0.7c0.1,0.2,0.2,0.4,0.4,0.5C128.9,183,129.2,183,129.5,183z"/>
				<path d="M134.8,177.1h1.5v0.8h0c0.5-0.6,1.1-0.9,1.9-0.9c0.5,0,0.9,0.1,1.2,0.3c0.3,0.2,0.6,0.4,0.8,0.7c0.6-0.7,1.4-1,2.3-1
					c0.6,0,1.2,0.2,1.7,0.6c0.5,0.4,0.8,1.1,0.8,1.9v4.9h-1.5v-4.4c0-0.5-0.1-0.9-0.4-1.2c-0.3-0.3-0.6-0.4-1-0.4
					c-0.4,0-0.8,0.1-1,0.4c-0.3,0.3-0.4,0.7-0.4,1.2v4.4h-1.5v-4.4c0-0.5-0.1-0.9-0.4-1.2c-0.3-0.3-0.6-0.4-1-0.4
					c-0.4,0-0.8,0.1-1,0.4c-0.3,0.3-0.4,0.7-0.4,1.2v4.4h-1.5C134.8,184.4,134.8,177.1,134.8,177.1z"/>
				<path d="M148.8,181.3c0,0.6,0.2,1,0.5,1.3c0.3,0.3,0.7,0.5,1.2,0.5c0.6,0,1.1-0.2,1.6-0.7l1.1,0.9c-0.7,0.8-1.6,1.2-2.6,1.2
					c-0.4,0-0.8-0.1-1.1-0.2c-0.2-0.1-0.4-0.1-0.5-0.2c-0.2-0.1-0.4-0.2-0.5-0.3c-0.3-0.3-0.6-0.7-0.8-1.1c-0.2-0.5-0.3-1.1-0.3-1.8
					c0-0.7,0.1-1.3,0.3-1.8c0.2-0.5,0.4-0.9,0.7-1.2c0.3-0.3,0.6-0.5,1-0.6c0.4-0.1,0.7-0.2,1.1-0.2c0.8,0,1.5,0.3,2.1,0.8
					c0.6,0.6,0.9,1.3,0.9,2.3v1.2L148.8,181.3L148.8,181.3z M151.8,180.1c0-0.6-0.2-1-0.5-1.3c-0.3-0.3-0.6-0.4-1.1-0.4
					c-0.4,0-0.8,0.1-1.1,0.4c-0.3,0.3-0.4,0.7-0.5,1.3H151.8z"/>
				<path d="M155.5,177.1h1.5v0.8h0c0.5-0.6,1.1-0.9,1.9-0.9c0.6,0,1.2,0.2,1.7,0.6c0.5,0.4,0.8,1.1,0.8,1.9v4.9h-1.5v-4.4
					c0-0.5-0.1-0.9-0.4-1.2c-0.3-0.3-0.6-0.4-1-0.4c-0.4,0-0.8,0.1-1,0.4c-0.3,0.3-0.4,0.7-0.4,1.2v4.4h-1.5L155.5,177.1
					L155.5,177.1z"/>
				<path d="M163.9,174.9h1.5v2.2h1.1v1.1h-1.1v4.3c0,0.4,0.2,0.6,0.5,0.5h0.6v1.4h-0.8c-0.5,0-0.9-0.2-1.3-0.5
					c-0.3-0.3-0.5-0.7-0.5-1.3v-4.4h-0.7v-1.1h0.7V174.9z"/>
				<path d="M177.9,182.1H174l-0.8,2.3h-1.7l3.7-10.3h1.3l3.7,10.3h-1.6L177.9,182.1z M177.5,180.7l-1.5-4.5h0l-1.5,4.5H177.5z"/>
				<path d="M181.7,177.1h1.5v4.4c0,0.5,0.1,0.9,0.4,1.2c0.3,0.3,0.6,0.4,1,0.4c0.4,0,0.8-0.1,1-0.4c0.3-0.3,0.4-0.7,0.4-1.2v-4.4
					h1.5v7.3h-1.5v-0.8h0c-0.5,0.6-1.1,0.9-1.9,0.9c-0.6,0-1.2-0.2-1.6-0.7c-0.5-0.4-0.8-1.1-0.8-1.9L181.7,177.1L181.7,177.1z"/>
				<path d="M190.1,174.9h1.5v2.2h1.1v1.1h-1.1v4.3c0,0.4,0.2,0.6,0.5,0.5h0.6v1.4h-0.8c-0.5,0-0.9-0.2-1.3-0.5
					c-0.3-0.3-0.5-0.7-0.5-1.3v-4.4h-0.7v-1.1h0.7V174.9z"/>
				<path d="M194.6,174.1h1.5v3.7h0c0.5-0.6,1.1-0.9,1.9-0.9c0.6,0,1.2,0.2,1.7,0.6c0.5,0.4,0.8,1.1,0.8,1.9v4.9H199v-4.4
					c0-0.5-0.1-0.9-0.4-1.2c-0.3-0.3-0.6-0.4-1-0.4c-0.4,0-0.8,0.1-1,0.4c-0.3,0.3-0.4,0.7-0.4,1.2v4.4h-1.5V174.1z"/>
				<path d="M202.6,180.8c0-0.8,0.1-1.4,0.2-1.8c0.1-0.4,0.3-0.7,0.6-1c0.2-0.2,0.5-0.5,0.8-0.7c0.4-0.2,0.8-0.3,1.4-0.3
					c0.6,0,1,0.1,1.4,0.3c0.4,0.2,0.6,0.4,0.8,0.7c0.3,0.3,0.5,0.6,0.6,1c0.1,0.4,0.2,1,0.2,1.8s-0.1,1.4-0.2,1.8
					c-0.1,0.4-0.3,0.8-0.6,1.1c-0.1,0.1-0.2,0.2-0.3,0.3c-0.1,0.1-0.3,0.2-0.5,0.3c-0.4,0.2-0.8,0.3-1.4,0.3c-0.6,0-1-0.1-1.4-0.3
					c-0.4-0.2-0.7-0.4-0.8-0.6c-0.3-0.3-0.5-0.7-0.6-1.1C202.7,182.1,202.6,181.5,202.6,180.8z M207.2,180.8c0-0.5,0-0.9-0.1-1.1
					c0-0.2-0.1-0.4-0.3-0.6c-0.1-0.2-0.3-0.3-0.5-0.4c-0.2-0.1-0.4-0.1-0.7-0.1c-0.2,0-0.5,0-0.7,0.1c-0.2,0.1-0.4,0.2-0.5,0.4
					c-0.1,0.2-0.2,0.4-0.3,0.6c-0.1,0.2-0.1,0.6-0.1,1.1c0,0.5,0,0.9,0.1,1.1c0.1,0.2,0.1,0.5,0.3,0.6c0.1,0.1,0.3,0.3,0.5,0.4
					c0.2,0.1,0.4,0.2,0.7,0.2c0.3,0,0.5,0,0.7-0.2c0.2-0.1,0.4-0.2,0.5-0.4c0.1-0.2,0.2-0.4,0.3-0.6
					C207.2,181.6,207.2,181.3,207.2,180.8z"/>
				<path d="M210.8,177.1h1.5v0.8h0c0.5-0.6,1.1-0.9,1.9-0.9c0.6,0,1.1,0.2,1.5,0.6l-1.1,1.3c-0.3-0.2-0.6-0.4-1-0.4
					c-0.4,0-0.7,0.1-1,0.4c-0.3,0.2-0.5,0.6-0.5,1.2v4.4h-1.5L210.8,177.1L210.8,177.1z"/>
				<path d="M217.1,174.1h1.5v1.5h-1.5V174.1z M217.1,177.1h1.5v7.3h-1.5V177.1z"/>
				<path d="M221.2,174.9h1.5v2.2h1.1v1.1h-1.1v4.3c0,0.4,0.2,0.6,0.5,0.5h0.6v1.4H223c-0.5,0-0.9-0.2-1.3-0.5
					c-0.3-0.3-0.5-0.7-0.5-1.3v-4.4h-0.7v-1.1h0.7V174.9z"/>
				<path d="M224.7,177.1h1.6l1.7,5.1h0l1.7-5.1h1.6l-3.2,8.9c-0.2,0.6-0.5,0.9-0.8,1.1c-0.4,0.2-0.8,0.3-1.2,0.3h-0.5V186h0.4
					c0.2,0,0.4,0,0.5-0.2c0.2-0.1,0.3-0.3,0.3-0.5l0.4-1.2L224.7,177.1z"/>
			</g>
			<rect x="58.5" y="165.5" transform="matrix(0.7071 -0.7071 0.7071 0.7071 -100.619 91.4109)" width="3.1" height="3.3"/>
			<rect x="52.8" y="165.5" transform="matrix(0.7071 -0.7071 0.7071 0.7071 -102.2652 87.4344)" width="3.2" height="3.3"/>
		</g>
		<g>
			<polygon points="416.3,27.7 416.3,19.2 272.1,19.2 272.1,20.1 272.1,27.7 272.1,55.4 272.1,63.1 272.1,63.9 416.3,63.9 
				416.3,55.4 280.6,55.4 280.6,27.7 			"/>
			<path d="M272.1,141.5h34.3l22.5,22.5l5.3-5.3l9.8-9.8l15.1,15.1l0,0v0l5.3-5.3l0,0l17.2-17.2h34.5V133H272.1V141.5z M328.9,153.3
				l-11.9-11.9h23.7L328.9,153.3z"/>
			<rect x="272.1" y="175.3" width="144.2" height="8.5"/>
			<path d="M374,76.1l-15.1,15.1l-15.2-15.1l-15.1,15.1l-15.1-15.1v0l0,0L281,108.5h-8.9v8.5h144.2v-8.5h-10L374,76.1z M374,86.8
				l21.7,21.7h-19.5l-12-12L374,86.8z M365.5,108.5h-13.2l6.6-6.6L365.5,108.5z M328.6,101.9l6.6,6.6H322L328.6,101.9z M313.5,86.8
				l9.8,9.8l-12,11.9h-19.5L313.5,86.8z"/>
			<polygon class="st0" points="313.5,86.8 323.3,96.5 311.3,108.5 291.8,108.5 			"/>
			
				<rect x="336.8" y="89.6" transform="matrix(0.7071 -0.7071 0.7071 0.7071 32.4089 271.3537)" class="st1" width="13.8" height="13.8"/>
			<polygon class="st2" points="328.6,101.9 335.2,108.5 322.1,108.5 			"/>
			<polygon class="st0" points="365.5,108.5 352.3,108.5 358.9,101.9 			"/>
			<polygon class="st2" points="374,86.8 395.7,108.5 376.3,108.5 364.3,96.5 			"/>
			<polygon class="st3" points="328.9,153.3 317.1,141.5 340.8,141.5 			"/>
			<polygon class="st4" points="359.2,153.3 347.3,141.5 371.1,141.5 			"/>
		</g>
		<g>
			<rect x="62.3" y="130.7" transform="matrix(0.7073 -0.7069 0.7069 0.7073 -74.8484 83.9116)" width="3.1" height="3.3"/>
			<rect x="68" y="130.7" transform="matrix(0.7071 -0.7071 0.7071 0.7071 -73.208 87.9412)" width="3.1" height="3.3"/>
			<rect x="200.1" y="130.7" transform="matrix(0.7073 -0.7069 0.7069 0.7073 -34.5398 181.255)" width="3.1" height="3.3"/>
			<rect x="194.4" y="130.7" transform="matrix(0.7071 -0.7071 0.7071 0.7071 -36.1762 177.3491)" width="3.2" height="3.3"/>
			<path d="M118,157.6H99.6v-8H118v-3.7H95.9v11.7h-5.5v-11.7h-3.7v11.7h-6v-11.7H77v11.7h-6v-11.7h-3.7v11.7l-8,0v-11.7h-3.8v11.6
				h-6.3V146h-3.7l0,15.2v0.3c0,1.8-1.4,3.2-3.2,3.2h-1v3.7h0.7c4,0,7.2-3.2,7.2-7.2l68.9,0V157.6z"/>
			<rect x="131.7" y="138.2" transform="matrix(0.7071 -0.7071 0.7071 0.7071 -59.8538 135.2163)" width="3.1" height="3.3"/>
			<rect x="137.8" y="138.2" transform="matrix(0.7069 -0.7073 0.7073 0.7069 -58.0702 139.579)" width="3.1" height="3.3"/>
			<rect x="159" y="138.2" transform="matrix(0.7069 -0.7073 0.7073 0.7069 -51.8224 154.5123)" width="3.1" height="3.3"/>
			<rect x="153" y="138.1" transform="matrix(0.7071 -0.7071 0.7071 0.7071 -53.5742 150.2204)" width="3.1" height="3.3"/>
			<rect x="204.3" y="138.2" transform="matrix(0.7071 -0.7071 0.7071 0.7071 -38.6134 186.5004)" width="3.1" height="3.3"/>
			<path d="M189.8,146.2c0.8,0,1.5,0.1,2.3,0.4c1.5,0.8,2.5,1.8,3,3.1c0.4,0.8,0.5,1.5,0.5,2.2v5.7h8.3v-11.4h3.8v11.4h8.1v-5.7
				c0-0.8,0.1-1.5,0.4-2.2c0.3-0.7,0.8-1.4,1.3-2c0.5-0.5,1.1-0.9,1.7-1.1c0.8-0.4,1.6-0.6,2.4-0.6h9.1v15.3H127.5v-9.4
				c0-0.8,0.1-1.5,0.4-2.2c0.3-0.7,0.8-1.4,1.3-1.9c0.5-0.5,1.1-0.9,1.8-1.1c0.8-0.4,1.5-0.5,2.2-0.5h9.1v11.6h8.4v-5.7
				c0-0.8,0.1-1.6,0.4-2.2c0.7-1.4,1.8-2.4,3.2-3.1c0.6-0.2,1.4-0.3,2.3-0.3h8.3v11.4h7.6v-19.4h3.7v7.9L189.8,146.2L189.8,146.2z
				 M221.7,149.9c-0.7,0-1.3,0.3-1.8,0.8l-0.1,0.1l0,0.1c-0.1,0.3-0.2,0.6-0.2,1.1v5.7h7.4v-7.7L221.7,149.9L221.7,149.9z
				 M176.7,157.6h15.2v-5.7c0-0.6-0.2-1.1-0.6-1.4s-0.8-0.6-1.4-0.6h-13.2L176.7,157.6L176.7,157.6z M161,149.9h-4.5
				c-0.4,0-0.7,0.1-1,0.2c-0.7,0.3-1.1,1-1.1,1.8v5.7h6.6v-5.7V149.9z M133.2,149.9c-0.3,0-0.7,0.1-0.9,0.2
				c-0.7,0.3-1.1,0.9-1.1,1.8v5.7h7.4v-7.7H133.2z"/>
			<path d="M230.9,115.2c0-5-4-9-9-9h-4.3v3.9h3.9c3.1,0,5.6,2.5,5.6,5.6v7.2h-5v-10H213c-3.4,0-6.2,2.8-6.2,6.2v3.8h-5.8v-11.4
				h-3.8v11.4h-12.3v-11.4H181v11.4h-12.6v-11.6h-9.1c-0.7,0-1.5,0.2-2.2,0.5c-0.7,0.2-1.3,0.6-1.8,1.1c-0.5,0.6-1,1.3-1.3,1.9
				c-0.2,0.7-0.4,1.4-0.4,2.2v9.4h77.3v-0.1l0,0V115.2z M164.7,122.8h-7.4V117c0-0.8,0.4-1.5,1.1-1.8c0.3-0.1,0.6-0.2,0.9-0.2h5.4
				V122.8z M210.5,122.8v-3.4c0-1.5,1.2-2.7,2.7-2.7h5v6.1H210.5z"/>
			<path d="M49.2,126.5h21.9v-15.1h-3.8v11.4H49.2v-11.5h-3.7l0,15.2v0.3c0,1.8-1.4,3.2-3.2,3.2h-1v3.7h0.7
				C45.9,133.7,49.2,130.5,49.2,126.5L49.2,126.5L49.2,126.5z"/>
			<path d="M136.5,111.3v11.4h-11V117c0-0.7-0.2-1.5-0.5-2.2c-0.5-1.3-1.5-2.3-3-3.1c-0.8-0.2-1.6-0.4-2.3-0.4h-14.1v-7.9h-3.7v19.4
				h-9.9V117v-5.8h-9.3c-0.7,0-1.4,0.2-2.2,0.6c-0.6,0.2-1.2,0.6-1.7,1.1c-0.5,0.6-1,1.3-1.3,2c-0.2,0.6-0.4,1.4-0.5,2.2v9.4h11.3
				v0.3c0,1.8-1.4,3.2-3.2,3.2h-1v3.7h0.7c4,0,7.2-3.2,7.2-7.2l0,0h48.5v-15.1H136.5z M88.1,122.8h-7.4V117c0-1,0.5-1.5,0.9-1.7
				l0.1,0l0.1,0c0.3-0.1,0.7-0.2,0.9-0.2h5.5V122.8z M121.6,122.8H106v-7.7h13.6c0.6,0,1.1,0.2,1.4,0.6c0.4,0.4,0.6,0.9,0.6,1.4
				V122.8z"/>
		</g>
		<g>
			<path d="M144.9,26.8c-0.1,0.1-0.2,0.2-0.3,0.4c-0.1-0.2-0.3-0.3-0.4-0.5c-0.4,0.1-0.8,0.3-1.2-0.1c-0.1,0.2-0.1,0.4,0.1,0.5
				c0.1,0.2,0.3,0.3,0.5,0.4c0.9,0.6,1.8,1.2,2.7,1.8c1.5,1.1,2.2,2.7,2.3,4.5c0.1,1.5-0.2,3-0.7,4.4c0,0,0,0.1,0,0.1
				c-0.3-0.2-0.3-0.4-0.3-0.7c0-0.1,0.1-0.2,0.1-0.3c0.1-0.2,0.1-0.4-0.1-0.5c-0.1,0-0.1-0.2-0.1-0.3c0-0.2,0-0.5,0-0.7c0,0,0,0,0,0
				c-0.1,0-0.2,0-0.3,0c-0.1-0.7-0.2-1.4-0.3-2.1c-0.1,0.1-0.2,0.1-0.4,0.2c0-0.3-0.1-0.6-0.1-0.8c0-0.2-0.1-0.3-0.3-0.2
				c-0.1,0-0.2,0-0.2-0.2c-0.1-0.3-0.1-0.6-0.2-1c-0.1,0.2-0.2,0.3-0.3,0.5c-0.1-0.4-0.2-0.7-0.4-1.1c-0.1,0.2-0.2,0.3-0.4,0.5
				c-0.1-0.3-0.2-0.6-0.4-0.9c0-0.1-0.1-0.2-0.2-0.2c-0.3,0-0.4-0.2-0.4-0.4c-0.1-0.2-0.1-0.2-0.3-0.2c-0.2,0-0.4-0.1-0.5-0.3
				c-0.1-0.1-0.2-0.2-0.3-0.3c0,0-0.1,0-0.1,0c0,0.1-0.1,0.3,0,0.4c0.1,0.2,0.2,0.5,0.4,0.7c0.4,0.5,0.7,1,1.1,1.4
				c1.6,2,1.8,4.2,0.8,6.5c-0.3,0.8-0.8,1.5-1.3,2.2c-0.1,0.1-0.2,0.2-0.3,0.3c0,0,0,0-0.1,0c0-0.1,0-0.2,0-0.3
				c0.1-0.2,0.1-0.4-0.3-0.4c0-0.2,0.1-0.3,0.1-0.4c0-0.2,0-0.3-0.1-0.5c0-0.1,0-0.3,0-0.4c0.1-0.3,0.2-0.6,0.3-0.9
				c-0.1,0-0.2,0-0.4,0c0.1-0.5,0.2-0.9,0.3-1.5c-0.2,0.1-0.3,0.1-0.4,0.1c0-0.3,0-0.6,0.1-1c-0.1,0.1-0.2,0.2-0.4,0.3
				c0-0.5,0-1,0-1.4c0,0-0.1,0-0.1,0c-0.1,0.2-0.2,0.3-0.3,0.5c0,0,0,0-0.1,0c0-0.3-0.1-0.6-0.1-0.9c-0.1,0.1-0.2,0.1-0.3,0.2
				c0-0.3-0.1-0.5-0.1-0.8c-0.1,0-0.2,0.1-0.3,0.1c-0.2-0.4-0.4-0.8-0.9-0.8c0.1,0.5,0.1,1,0.2,1.5c0.3,2.3,0.3,4.6-0.4,6.8
				c-0.4,1.2-0.9,2.2-1.7,3.2c-0.1,0.1-0.2,0.2-0.3,0.4c0,0-0.1,0-0.1-0.1c0-0.1,0-0.2,0-0.2c0-0.9,0.1-1.8,0-2.7
				c-0.1-0.7,0-1.4,0.3-2.1c0,0,0-0.1,0-0.1c-0.3,0-0.4,0.3-0.6,0.4c0-0.4,0-0.8-0.1-1.2c0-0.2,0-0.4,0-0.6c0-0.2-0.1-0.4-0.2-0.6
				c-0.1-0.3-0.2-0.6-0.3-1c-0.1-0.2-0.1-0.5-0.1-0.8c-0.3,0.1-0.5,0.4-0.5,0.6c-0.3,0.9-0.4,1.9-0.4,2.9c0.1,2.7,0.2,5.4,0.3,8
				c0.1,1.9,0.1,3.8,0.1,5.7c0,1.3,0,2.5,0.1,3.8c0,0.6,0.2,1.2,0.5,1.8c0.3,0.7,0.4,1.4,0.1,2.1c-0.4,0.9-0.2,1.7,0.2,2.4
				c0.3,0.6,0.7,1.1,1.1,1.7c0.1,0.2,0.2,0.4,0.3,0.6c0.2,0.4,0,0.8-0.5,0.9c-0.5,0.1-1.1,0.2-1.6,0.2c-1.5,0-3.1,0-4.6,0
				c-0.5,0-1-0.1-1.4-0.2c-0.6-0.1-0.8-0.5-0.5-1.1c0.2-0.4,0.5-0.8,0.7-1.2c0.4-0.6,0.8-1.3,0.9-2c0.1-0.6,0.1-1.2-0.2-1.8
				c-0.2-0.4-0.2-0.9,0-1.3c0.5-0.8,0.6-1.8,0.6-2.7c0.1-2.7,0.1-5.3,0.2-8c0.1-2.1,0.2-4.2,0.2-6.3c0-1.6,0-3.2,0-4.8
				c0-0.5-0.3-1-0.7-1.4c0,0.1-0.1,0.2-0.1,0.3c-0.1,0-0.2,0-0.3,0c0,0.1,0,0.3,0,0.4c0,0.3-0.1,0.7-0.1,1c0,0.2-0.1,0.3-0.4,0.3
				c0,0.2,0.1,0.4,0.1,0.5c0,0.2,0.1,0.4-0.1,0.6c-0.1,0.1-0.1,0.4-0.1,0.6c-0.1-0.2-0.3-0.4-0.4-0.6c0,0-0.1,0-0.1,0
				c0,0.1,0,0.2,0,0.3c0.1,0.4,0.2,0.8,0.3,1.2c0.1,0.2,0.1,0.4-0.1,0.5c-0.1,0.1-0.1,0.2,0,0.3c0.1,1,0.2,1.9,0.2,2.9
				c0,0.1,0,0.2,0,0.3c-0.3,0-0.4-0.2-0.5-0.3c-0.5-0.6-0.9-1.3-1.2-2.1c-0.9-2.2-1.1-4.4-0.8-6.7c0.1-0.7,0.2-1.5,0.3-2.2
				c0-0.1,0-0.2,0-0.3c0-0.1-0.1-0.2-0.1-0.2c-0.1,0-0.2,0.1-0.2,0.2c-0.1,0.1-0.1,0.2-0.1,0.3c0,0.1,0,0.2-0.1,0.2
				c-0.1,0-0.3,0.1-0.4,0.1c-0.1,0-0.2,0-0.4,0c0,0.3,0,0.7,0,1c0,0,0,0-0.1,0c-0.1-0.2-0.1-0.3-0.2-0.5c0,0-0.1,0-0.1,0
				c-0.2,0.4,0,0.9,0,1.4c-0.4-0.1-0.2-0.6-0.6-0.7c0,0.4,0,0.8-0.1,1.2c0,0,0,0-0.1,0c-0.1-0.2-0.2-0.4-0.3-0.6
				c-0.3,0.5,0,1,0.1,1.5c-0.1,0-0.3-0.1-0.4-0.1c-0.1,0.5,0.2,0.9,0.2,1.4c-0.4,0.2-0.4,0.2-0.2,0.6c0.2,0.4,0.3,0.8,0,1.2
				c0,0.1,0,0.2,0,0.2c0,0,0,0.1,0,0.1c-0.4,0.1-0.2,0.4-0.2,0.6c0,0.1,0,0.1,0,0.2c-0.1-0.1-0.1-0.1-0.1-0.1c-0.5-1-1-1.9-1.5-2.9
				c-0.8-1.9-0.5-3.7,0.6-5.4c0.3-0.5,0.7-0.9,1-1.4c0.2-0.3,0.4-0.7,0.3-1.2c0-0.1,0-0.1-0.1-0.2c-0.1,0.1-0.2,0.3-0.3,0.4
				c-0.1,0-0.2-0.1-0.3-0.2c0,0.2-0.1,0.3-0.1,0.4c0,0.2-0.1,0.2-0.3,0.2c-0.1,0-0.2,0.1-0.2,0.2c-0.1,0.3-0.2,0.5-0.3,0.8
				c-0.1-0.2-0.1-0.3-0.2-0.4c0,0-0.1,0-0.1,0c-0.1,0.3-0.3,0.7-0.4,1.1c-0.1-0.1-0.2-0.2-0.3-0.3c-0.1,0.2-0.2,0.4-0.2,0.6
				c0,0.1-0.1,0.2-0.3,0.1c-0.1-0.1-0.2,0-0.2,0.2c-0.1,0.4-0.1,0.7-0.2,1.1c-0.1-0.1-0.2-0.2-0.3-0.3c0,0,0,0-0.1,0
				c0,0.2-0.1,0.4-0.1,0.5c0,0.4-0.1,0.8-0.3,1.1c-0.1,0.1-0.1,0.3-0.3,0.2c0,0-0.1,0.1-0.1,0.2c0,0.6-0.1,1.2-0.1,1.9
				c0,0.2,0,0.4-0.2,0.6c0-0.1-0.1-0.2-0.1-0.2c-0.4-1.2-0.6-2.5-0.7-3.8c0-1.7,0.6-3.2,1.9-4.4c1.4-1.3,2.9-2.2,4.7-2.7
				c0.3-0.1,0.5-0.2,0.8-0.3c0,0,0-0.1,0-0.1c-0.1,0-0.2-0.1-0.4-0.1c-0.3,0-0.6,0-0.8,0c-0.1,0-0.3,0.1-0.4,0.1
				c-0.3,0.1-0.5,0.2-0.8,0c-0.1-0.1-0.7,0-0.9,0.2c-0.1,0.1-0.1,0.2-0.2,0.3c-0.1-0.1-0.1-0.3-0.1-0.4c-0.3,0-0.4,0.2-0.5,0.4
				c-0.1,0.1-0.2,0.2-0.4,0.2c-0.1,0-0.3,0.1-0.5,0.2c0,0-0.1-0.1-0.2-0.1c-0.1,0.3-0.3,0.5-0.4,0.8c-0.4-0.1-0.4-0.1-0.6,0.3
				c-0.1,0.3-0.3,0.6-0.6,0.8c-0.2,0.2-0.3,0.4-0.6,0.5c0,0-0.1,0.1-0.1,0.2c-0.1,0.2-0.1,0.5-0.2,0.7c0,0.2-0.1,0.3-0.3,0.4
				c-0.1,0-0.1,0.2-0.1,0.3c0,0.2,0,0.3-0.3,0.4c0-0.2-0.1-0.3-0.1-0.5c0.2-2.9,1.6-5,4.3-6.3c1.1-0.5,2.3-0.7,3.5-0.9
				c0.6-0.1,1.1-0.2,1.7-0.3c0.2,0,0.4-0.2,0.5-0.3c0-0.1-0.1-0.1-0.1-0.1c-0.8-0.1-1.6-0.3-2.4-0.1c-0.1,0-0.1,0-0.2,0
				c-0.3-0.2-0.6,0-0.8,0.1c0,0-0.1,0-0.1,0c-0.1-0.3-0.3-0.2-0.5-0.1c-0.5,0.2-0.9,0.4-1.4,0.5c-0.7,0.1-1.2,0.7-1.8,1
				c-0.1,0-0.1,0.1-0.3,0.1c0.1-0.1,0.1-0.2,0.2-0.3c1-1.4,2.3-2.6,3.9-3.4c0.9-0.4,1.9-0.6,3-0.5c0.8,0.1,1.6,0.2,2.4,0.2
				c0.1,0,0.3,0,0.5,0c0,0,0-0.1,0-0.1c-0.1-0.1-0.1-0.1-0.2-0.2c-0.4-0.2-0.8-0.4-1.2-0.6c-0.4-0.2-0.7-0.3-1.1-0.4
				c-0.2-0.1-0.5-0.2-0.7-0.3c0,0-0.1,0-0.1,0c-0.5,0.1-1,0.2-1.5,0.4c-0.2,0.1-0.4,0.1-0.8,0.2c0.2-0.2,0.3-0.4,0.4-0.5
				c0.6-0.5,1.3-0.7,2-0.9c1.4-0.3,2.6,0,3.8,0.7c0.4,0.3,0.9,0.5,1.4,0.7c0,0,0.1,0,0.2,0c0-0.2,0-0.5,0-0.7c0-0.5,0.1-0.9,0.1-1.4
				c0-0.2,0.1-0.3,0.3-0.3c0.2,0,0.2-0.1,0.2-0.3c0-0.5,0.1-0.9,0.1-1.4c0-0.1,0-0.1,0.1-0.2c0.2,0.2,0.2,0.4,0.2,0.6
				c0,0.3,0,0.6,0.1,0.9c0,0.1,0.1,0.3,0.2,0.4c0,0.1,0.1,0.2,0.1,0.3c0,0.2,0,0.4,0,0.5c0,0.1,0,0.3,0.1,0.4
				c0.2,0.3,0.3,0.6,0.2,0.9c0,0.1,0,0.2,0,0.3c0.2-0.1,0.4-0.1,0.6-0.2c0.5-0.3,1-0.6,1.6-0.9c1.3-0.7,2.7-0.7,4-0.1
				c0.3,0.1,0.5,0.3,0.8,0.4c0.3,0.1,0.5,0.3,0.6,0.7c-0.1,0-0.3,0-0.4,0c-0.5-0.2-1-0.3-1.6-0.2c-0.2,0-0.4,0.1-0.6,0.2
				c-0.1,0-0.2,0.1-0.3,0.1c-0.6-0.2-1.1,0.2-1.6,0.5c0.2,0.1,0.4,0.2,0.6,0.2c0.6,0,1.2,0,1.9-0.1c1.5-0.1,2.7,0.3,3.8,1.3
				c0.6,0.6,1.2,1.1,1.8,1.7c0.3,0.3,0.5,0.6,0.7,0.9c0,0,0,0-0.1,0.1c-0.1-0.1-0.2-0.1-0.3-0.2c-0.4-0.2-0.9-0.4-1.3-0.6
				c-0.4-0.2-0.7-0.3-1.1-0.5c-0.1,0-0.1-0.1-0.2-0.1c-0.4-0.2-0.6-0.2-0.9,0.2c-0.2-0.1-0.4-0.2-0.6-0.4c-0.1,0.3-0.3,0.2-0.5,0.1
				c-0.2-0.1-0.3-0.1-0.5,0c-0.1,0.1-0.2,0.1-0.3,0.1c-0.3,0-0.6,0-0.8,0.2c0,0-0.1,0.1-0.2,0c-0.3-0.1-0.4,0.1-0.6,0.4
				c0.2,0,0.3,0.1,0.5,0.1c1.1,0.1,2.2,0.2,3.3,0.4c2.5,0.4,4.5,1.7,5.7,4.1c0.5,1,0.7,2.5,0.5,3.5c-0.1-0.2-0.2-0.3-0.3-0.5
				c-0.4-0.6-0.7-1.3-1.1-1.9c-0.1-0.2-0.2-0.4-0.5-0.4c-0.1,0-0.1-0.1-0.1-0.2c-0.1-0.6-0.6-0.9-1-1.2c0,0-0.1-0.1-0.1-0.1
				c-0.3,0-0.4-0.2-0.6-0.4c0-0.1-0.1-0.1-0.2-0.2c-0.1,0.1-0.1,0.2-0.2,0.3C145.3,27.2,145.1,27,144.9,26.8z"/>
			<path d="M142.6,81c0.2-0.5,0.3-1,0.5-1.4c0.2-0.6,0.4-1.2,0.7-1.7c0.5-1,1.4-0.8,2-0.3c0.4,0.4,0.6,0.9,0.6,1.5
				c0,0.4-0.2,0.6-0.6,0.7c-0.9,0.2-1.3,0.8-1.5,1.6c-0.2,0.8-0.1,1.5,0.5,2.1c0.6,0.6,1.2,1.2,1.9,1.6c0.4,0.2,0.5,0.2,0.8-0.2
				c0.1-0.1,0.1-0.2,0.2-0.4c0.8-1.5,2.5-1.7,3.5-0.2c0.8,1.2,0.8,3-0.1,4.2c-0.7,0.9-1.6,1-2.6,1c-0.9-0.1-1.8-0.5-2.5-1
				c-1.1-0.7-2.2-1.4-3.3-2.2c-0.4-0.2-0.4-0.2-0.7,0.1c-0.6,0.6-1.1,1.2-1.8,1.7c-0.9,0.7-2.2,0.7-3-0.1c-0.7-0.8-0.8-2.1,0.3-2.9
				c0.2-0.2,0.4-0.1,0.6,0c0.3,0.2,0.6,0.4,1,0.6c0.5,0.3,1,0.2,1.3-0.3c0.2-0.3,0.3-0.6,0.1-0.9c-0.3-0.5-0.6-0.9-1-1.4
				c-1.6-1.8-3.3-3.6-4.9-5.4c-0.5-0.5-0.5-0.5-1,0c-1.4,1.5-2.7,2.9-4.1,4.4c-0.5,0.5-1,1.1-1.4,1.7c-0.2,0.2-0.3,0.4-0.4,0.6
				c-0.2,0.3-0.1,0.7,0.1,1c0.3,0.3,0.6,0.4,1,0.3c0.3-0.1,0.6-0.3,0.9-0.5c0.7-0.4,1.1-0.3,1.4,0.4c0.3,0.7,0.3,1.3,0,2
				c-0.4,0.9-1.2,1.2-2.3,0.9c-0.8-0.2-1.5-0.7-2-1.4c-0.2-0.3-0.5-0.6-0.7-0.9c-0.1-0.2-0.3-0.2-0.4-0.1c-0.8,0.5-1.6,1-2.4,1.6
				c-0.7,0.5-1.4,1-2.3,1.3c-0.6,0.2-1.3,0.3-2,0.3c-1.2-0.1-2-0.8-2.4-2c-0.5-1.4-0.2-2.6,0.9-3.6c0.8-0.8,2-0.7,2.7,0.2
				c0.2,0.3,0.4,0.6,0.7,1c0.2,0.3,0.3,0.3,0.6,0.2c0.9-0.5,1.7-1.2,2.4-2.1c0.2-0.3,0.3-0.7,0.2-1c-0.1-0.4-0.3-0.9-0.4-1.3
				c-0.1-0.5-0.4-0.8-0.9-0.9c-0.9-0.2-1.1-0.8-0.7-1.7c0.3-0.7,1-1,1.7-0.8c0.4,0.1,0.6,0.4,0.8,0.7c0.3,0.8,0.5,1.5,0.8,2.3
				c0.1,0.2,0.1,0.3,0.2,0.5c0.1,0.1,0.2,0.2,0.3,0c0.1-0.1,0.2-0.2,0.3-0.3c1.7-1.9,3.4-3.8,4.9-5.9c0.3-0.4,0.3-0.4,0-0.8
				c-0.7-0.9-1.5-1.6-2.3-2.4c-1.4-1.4-2.9-2.6-4.6-3.7c-0.9-0.6-1.9-1-2.9-1.5c-1.8-0.9-3.7-1.7-5.7-2.4c-2-0.7-4.1-1.3-6.3-1.6
				c-1.5-0.2-2.9-0.4-4.4-0.5c-0.9-0.1-1.7-0.2-2.6-0.3c-0.1,0-0.2,0-0.3-0.1c0.1,0,0.2-0.1,0.3-0.1c0.6-0.1,1.2-0.1,1.8-0.1
				c1.4-0.1,2.9-0.2,4.3-0.3c3.1-0.1,6.1,0.1,9.1,0.8c2.1,0.5,4.2,1.2,6.2,2.2c1.6,0.8,3.2,1.6,4.6,2.6c1.5,1.1,2.9,2.2,4.2,3.5
				c0.4,0.4,0.8,0.7,1.1,1.1c0.2,0.2,0.3,0.2,0.5,0c0.6-0.5,1.1-1,1.7-1.5c3-2.9,6.5-5.1,10.4-6.6c2.1-0.8,4.2-1.4,6.4-1.7
				c2-0.3,4.1-0.4,6.1-0.3c1.5,0,3.1,0.1,4.6,0.2c1.1,0.1,2.2,0.2,3.3,0.3c0.1,0,0.2,0,0.2,0.1c0,0,0,0,0,0.1
				c-0.3,0-0.6,0.1-0.8,0.1c-2,0.2-4,0.4-6,0.6c-2.6,0.3-5.2,0.9-7.7,1.7c-2.1,0.7-4.1,1.6-6.1,2.6c-2.7,1.4-5.1,3.2-7.3,5.3
				c-0.6,0.6-1.3,1.3-1.9,1.9c-0.3,0.3-0.3,0.4,0,0.7c1.6,2.1,3.3,4.1,5.1,6C142.2,80.6,142.4,80.8,142.6,81z M143.8,83.9
				c-0.4,0.4-0.4,0.8-0.1,1.2c0.8,0.8,1.6,1.6,2.7,2.1c0.8,0.4,1.6,0.6,2.5,0.6c0.6,0,1.2-0.2,1.5-0.9c0.3-0.7,0.1-1.5-0.5-2
				c-0.3-0.3-0.8-0.2-1,0.1c-0.1,0.1-0.2,0.3-0.2,0.5c-0.1,0.3-0.2,0.6-0.2,1c-0.1,0.5-0.2,0.6-0.7,0.5c-0.1,0-0.2-0.1-0.4-0.1
				c-1-0.3-1.7-1-2.4-1.7C144.6,84.7,144.2,84.3,143.8,83.9z M124.7,84c-0.2,0.1-0.4,0.3-0.6,0.4c-0.7,0.6-1.4,1.2-2.1,1.9
				c-0.4,0.4-0.9,0.6-1.5,0.6c-0.4,0-0.5-0.1-0.6-0.5c0-0.4-0.1-0.7-0.2-1.1c-0.1-0.4-0.3-0.5-0.7-0.6c-0.4,0-0.8,0.1-0.9,0.5
				c-0.3,0.5-0.3,1.1-0.1,1.7c0.1,0.4,0.4,0.7,0.8,0.8c0.2,0.1,0.5,0.1,0.8,0.1c1.2-0.1,2.3-0.4,3.2-1.1c0.6-0.5,1.2-1,1.8-1.5
				C125,84.8,125.1,84.4,124.7,84z M139.3,87.5c0.2-0.1,0.6-0.2,0.9-0.4c0.7-0.5,1.2-1.1,1.6-1.8c0.7-1.6,1.4-3.2,2.1-4.8
				c0.2-0.5,0.5-1,1.1-1.2c0.3-0.1,0.5-0.4,0.4-0.7c-0.1-0.3-0.2-0.5-0.5-0.6c-0.3-0.1-0.5,0.1-0.6,0.3c-0.2,0.3-0.3,0.6-0.5,0.9
				c-0.5,1.2-0.9,2.4-1.3,3.6c-0.4,1.1-0.9,2.1-1.7,3c-0.4,0.5-0.8,0.6-1.4,0.3c-0.3-0.1-0.5-0.2-0.8-0.3c-0.5-0.1-0.8,0.2-0.7,0.7
				C138,87.2,138.5,87.5,139.3,87.5z M130.4,86.5c0-0.4-0.3-0.6-0.7-0.5c-0.3,0.1-0.7,0.2-1,0.3c-0.4,0.1-0.8,0-1.1-0.3
				c-0.2-0.3-0.5-0.6-0.6-0.9c-0.8-1.7-1.5-3.5-2.2-5.2c-0.2-0.5-0.5-1.1-0.8-1.6c-0.1-0.2-0.3-0.3-0.5-0.2c-0.2,0-0.4,0.2-0.5,0.4
				c-0.1,0.4,0,0.7,0.4,0.8c0.5,0.2,0.8,0.6,1.1,1.1c0.5,1.3,1.1,2.5,1.6,3.8c0.4,0.9,0.8,1.7,1.5,2.4c0.5,0.5,1,0.8,1.7,0.8
				C129.9,87.5,130.4,87.1,130.4,86.5z M137.8,78C137.7,78,137.7,78,137.8,78c0,0.2,0.1,0.3,0.2,0.5c1,1.4,2,2.8,3,4.2
				c0.1,0.1,0.2,0.2,0.4,0.3c0,0,0.2,0,0.2-0.1c0.3-0.5,0.5-0.8-0.1-1.3c-0.6-0.6-1.2-1.3-1.8-1.9c-0.5-0.5-1-1-1.4-1.5
				C138,78.1,137.9,78,137.8,78z M130.4,78.1C130.4,78,130.4,78,130.4,78.1c-0.2,0-0.4,0.1-0.6,0.3c-1,1.1-2,2.2-3.1,3.3
				c-0.1,0.1-0.2,0.3-0.2,0.4c-0.1,0.3,0.1,0.6,0.4,0.8c0.3,0.1,0.3-0.1,0.4-0.3c1.1-1.3,2-2.7,2.9-4.2
				C130.3,78.3,130.4,78.2,130.4,78.1z"/>
		</g>
	</g>
</g>
</svg>
