<?xml version="1.0" encoding="UTF-8"?>
<svg id="Layer_1" xmlns="http://www.w3.org/2000/svg" xmlns:xlink="http://www.w3.org/1999/xlink" version="1.1" viewBox="0 0 607.2 433">
  <!-- Generator: Adobe Illustrator 29.0.1, SVG Export Plug-In . SVG Version: 2.1.0 Build 192)  -->
  <defs>
    <style>
      .st0 {
        fill: url(#linear-gradient2);
      }

      .st1 {
        fill: url(#linear-gradient1);
      }

      .st2 {
        fill: url(#linear-gradient9);
      }

      .st3 {
        fill: url(#linear-gradient3);
      }

      .st4 {
        fill: url(#linear-gradient6);
      }

      .st5 {
        fill: url(#linear-gradient8);
      }

      .st6 {
        fill: url(#linear-gradient7);
      }

      .st7 {
        fill: url(#linear-gradient5);
      }

      .st8 {
        fill: url(#linear-gradient4);
      }

      .st9 {
        fill: url(#linear-gradient31);
      }

      .st10 {
        fill: url(#linear-gradient30);
      }

      .st11 {
        fill: url(#linear-gradient32);
      }

      .st12 {
        fill: url(#linear-gradient34);
      }

      .st13 {
        fill: url(#linear-gradient33);
      }

      .st14 {
        fill: url(#linear-gradient28);
      }

      .st15 {
        fill: url(#linear-gradient29);
      }

      .st16 {
        fill: url(#linear-gradient18);
      }

      .st17 {
        fill: url(#linear-gradient13);
      }

      .st18 {
        fill: url(#linear-gradient12);
      }

      .st19 {
        fill: url(#linear-gradient15);
      }

      .st20 {
        fill: url(#linear-gradient16);
      }

      .st21 {
        fill: url(#linear-gradient11);
      }

      .st22 {
        fill: url(#linear-gradient10);
      }

      .st23 {
        fill: url(#linear-gradient17);
      }

      .st24 {
        fill: url(#linear-gradient14);
      }

      .st25 {
        fill: url(#linear-gradient19);
      }

      .st26 {
        fill: url(#linear-gradient23);
      }

      .st27 {
        fill: url(#linear-gradient22);
      }

      .st28 {
        fill: url(#linear-gradient24);
      }

      .st29 {
        fill: url(#linear-gradient25);
      }

      .st30 {
        fill: url(#linear-gradient21);
      }

      .st31 {
        fill: url(#linear-gradient20);
      }

      .st32 {
        fill: url(#linear-gradient27);
      }

      .st33 {
        fill: url(#linear-gradient26);
      }

      .st34 {
        fill: url(#linear-gradient);
      }
    </style>
    <linearGradient id="linear-gradient" x1="252.7" y1="118.5" x2="468.3" y2="237.9" gradientTransform="translate(40.6 383.1) rotate(1) scale(1 -1)" gradientUnits="userSpaceOnUse">
      <stop offset="0" stop-color="#7fffff"/>
      <stop offset=".5" stop-color="#42acfd"/>
      <stop offset="1" stop-color="#1249ff"/>
    </linearGradient>
    <linearGradient id="linear-gradient1" x1="144.1" y1="334.5" x2="359.7" y2="454" gradientTransform="translate(129.1 555.3) rotate(-.4) scale(1 -1)" gradientUnits="userSpaceOnUse">
      <stop offset="0" stop-color="#7fffff"/>
      <stop offset=".5" stop-color="#42acfd"/>
      <stop offset="1" stop-color="#1249ff"/>
    </linearGradient>
    <linearGradient id="linear-gradient2" x1="432.8" y1="-217.9" x2="648.4" y2="-98.4" gradientTransform="translate(-98.8 73.8) rotate(3.3) scale(1 -1)" gradientUnits="userSpaceOnUse">
      <stop offset="0" stop-color="#7fffff"/>
      <stop offset=".5" stop-color="#42acfd"/>
      <stop offset="1" stop-color="#1249ff"/>
    </linearGradient>
    <linearGradient id="linear-gradient3" x1="255.2" y1="114.6" x2="471.8" y2="234.6" gradientTransform="translate(40.6 383.1) rotate(1) scale(1 -1)" gradientUnits="userSpaceOnUse">
      <stop offset="0" stop-color="#7fffff"/>
      <stop offset=".5" stop-color="#42acfd"/>
      <stop offset="1" stop-color="#1249ff"/>
    </linearGradient>
    <linearGradient id="linear-gradient4" x1="-85.7" y1="141.9" x2="904.4" y2="638.3" gradientTransform="translate(0 432.1) scale(1 -1)" gradientUnits="userSpaceOnUse">
      <stop offset="0" stop-color="#010119"/>
      <stop offset="1" stop-color="#01012a"/>
    </linearGradient>
    <linearGradient id="linear-gradient5" x1="-71.2" y1="113" x2="918.9" y2="609.3" gradientTransform="translate(0 432.1) scale(1 -1)" gradientUnits="userSpaceOnUse">
      <stop offset="0" stop-color="#010119"/>
      <stop offset="1" stop-color="#01012a"/>
    </linearGradient>
    <linearGradient id="linear-gradient6" x1="-84.4" y1="139.4" x2="905.7" y2="635.8" gradientTransform="translate(0 432.1) scale(1 -1)" gradientUnits="userSpaceOnUse">
      <stop offset="0" stop-color="#010119"/>
      <stop offset="1" stop-color="#01012a"/>
    </linearGradient>
    <linearGradient id="linear-gradient7" x1="-83.1" y1="136.7" x2="907" y2="633" gradientTransform="translate(0 432.1) scale(1 -1)" gradientUnits="userSpaceOnUse">
      <stop offset="0" stop-color="#010119"/>
      <stop offset="1" stop-color="#01012a"/>
    </linearGradient>
    <linearGradient id="linear-gradient8" x1="-78.4" y1="127.6" x2="911.6" y2="623.9" gradientTransform="translate(0 432.1) scale(1 -1)" gradientUnits="userSpaceOnUse">
      <stop offset="0" stop-color="#010119"/>
      <stop offset="1" stop-color="#01012a"/>
    </linearGradient>
    <linearGradient id="linear-gradient9" x1="-64.4" y1="99.5" x2="925.6" y2="595.8" gradientTransform="translate(0 432.1) scale(1 -1)" gradientUnits="userSpaceOnUse">
      <stop offset="0" stop-color="#010119"/>
      <stop offset="1" stop-color="#01012a"/>
    </linearGradient>
    <linearGradient id="linear-gradient10" x1="-63.1" y1="96.9" x2="927" y2="593.2" gradientTransform="translate(0 432.1) scale(1 -1)" gradientUnits="userSpaceOnUse">
      <stop offset="0" stop-color="#010119"/>
      <stop offset="1" stop-color="#01012a"/>
    </linearGradient>
    <linearGradient id="linear-gradient11" x1="-65.7" y1="102.1" x2="924.3" y2="598.4" gradientTransform="translate(0 432.1) scale(1 -1)" gradientUnits="userSpaceOnUse">
      <stop offset="0" stop-color="#010119"/>
      <stop offset="1" stop-color="#01012a"/>
    </linearGradient>
    <linearGradient id="linear-gradient12" x1="-49.3" y1="69.3" x2="940.8" y2="565.6" gradientTransform="translate(0 432.1) scale(1 -1)" gradientUnits="userSpaceOnUse">
      <stop offset="0" stop-color="#010119"/>
      <stop offset="1" stop-color="#01012a"/>
    </linearGradient>
    <linearGradient id="linear-gradient13" x1="-52" y1="74.8" x2="938" y2="571.2" gradientTransform="translate(0 432.1) scale(1 -1)" gradientUnits="userSpaceOnUse">
      <stop offset="0" stop-color="#010119"/>
      <stop offset="1" stop-color="#01012a"/>
    </linearGradient>
    <linearGradient id="linear-gradient14" x1="-64.7" y1="100.2" x2="925.3" y2="596.5" gradientTransform="translate(0 432.1) scale(1 -1)" gradientUnits="userSpaceOnUse">
      <stop offset="0" stop-color="#010119"/>
      <stop offset="1" stop-color="#01012a"/>
    </linearGradient>
    <linearGradient id="linear-gradient15" x1="-66.1" y1="102.8" x2="924" y2="599.1" gradientTransform="translate(0 432.1) scale(1 -1)" gradientUnits="userSpaceOnUse">
      <stop offset="0" stop-color="#010119"/>
      <stop offset="1" stop-color="#01012a"/>
    </linearGradient>
    <linearGradient id="linear-gradient16" x1="-45.4" y1="61.6" x2="944.6" y2="558" gradientTransform="translate(0 432.1) scale(1 -1)" gradientUnits="userSpaceOnUse">
      <stop offset="0" stop-color="#010119"/>
      <stop offset="1" stop-color="#01012a"/>
    </linearGradient>
    <linearGradient id="linear-gradient17" x1="-44.1" y1="58.9" x2="945.9" y2="555.3" gradientTransform="translate(0 432.1) scale(1 -1)" gradientUnits="userSpaceOnUse">
      <stop offset="0" stop-color="#010119"/>
      <stop offset="1" stop-color="#01012a"/>
    </linearGradient>
    <linearGradient id="linear-gradient18" x1="-47.2" y1="65.2" x2="942.8" y2="561.6" gradientTransform="translate(0 432.1) scale(1 -1)" gradientUnits="userSpaceOnUse">
      <stop offset="0" stop-color="#010119"/>
      <stop offset="1" stop-color="#01012a"/>
    </linearGradient>
    <linearGradient id="linear-gradient19" x1="-41" y1="52.9" x2="949" y2="549.2" gradientTransform="translate(0 432.1) scale(1 -1)" gradientUnits="userSpaceOnUse">
      <stop offset="0" stop-color="#010119"/>
      <stop offset="1" stop-color="#01012a"/>
    </linearGradient>
    <linearGradient id="linear-gradient20" x1="-33.4" y1="37.6" x2="956.6" y2="534" gradientTransform="translate(0 432.1) scale(1 -1)" gradientUnits="userSpaceOnUse">
      <stop offset="0" stop-color="#010119"/>
      <stop offset="1" stop-color="#01012a"/>
    </linearGradient>
    <linearGradient id="linear-gradient21" x1="-30.7" y1="32.2" x2="959.4" y2="528.6" gradientTransform="translate(0 432.1) scale(1 -1)" gradientUnits="userSpaceOnUse">
      <stop offset="0" stop-color="#010119"/>
      <stop offset="1" stop-color="#01012a"/>
    </linearGradient>
    <linearGradient id="linear-gradient22" x1="-42" y1="54.7" x2="948.1" y2="551.1" gradientTransform="translate(0 432.1) scale(1 -1)" gradientUnits="userSpaceOnUse">
      <stop offset="0" stop-color="#010119"/>
      <stop offset="1" stop-color="#01012a"/>
    </linearGradient>
    <linearGradient id="linear-gradient23" x1="-38" y1="46.9" x2="952" y2="543.2" gradientTransform="translate(0 432.1) scale(1 -1)" gradientUnits="userSpaceOnUse">
      <stop offset="0" stop-color="#010119"/>
      <stop offset="1" stop-color="#01012a"/>
    </linearGradient>
    <linearGradient id="linear-gradient24" x1="-35.2" y1="41.3" x2="954.8" y2="537.7" gradientTransform="translate(0 432.1) scale(1 -1)" gradientUnits="userSpaceOnUse">
      <stop offset="0" stop-color="#010119"/>
      <stop offset="1" stop-color="#01012a"/>
    </linearGradient>
    <linearGradient id="linear-gradient25" x1="-32.6" y1="36" x2="957.5" y2="532.4" gradientTransform="translate(0 432.1) scale(1 -1)" gradientUnits="userSpaceOnUse">
      <stop offset="0" stop-color="#010119"/>
      <stop offset="1" stop-color="#01012a"/>
    </linearGradient>
    <linearGradient id="linear-gradient26" x1="-29.8" y1="30.4" x2="960.3" y2="526.7" gradientTransform="translate(0 432.1) scale(1 -1)" gradientUnits="userSpaceOnUse">
      <stop offset="0" stop-color="#010119"/>
      <stop offset="1" stop-color="#01012a"/>
    </linearGradient>
    <linearGradient id="linear-gradient27" x1="-28.4" y1="27.7" x2="961.7" y2="524" gradientTransform="translate(0 432.1) scale(1 -1)" gradientUnits="userSpaceOnUse">
      <stop offset="0" stop-color="#010119"/>
      <stop offset="1" stop-color="#01012a"/>
    </linearGradient>
    <linearGradient id="linear-gradient28" x1="-32.5" y1="35.9" x2="957.5" y2="532.2" gradientTransform="translate(0 432.1) scale(1 -1)" gradientUnits="userSpaceOnUse">
      <stop offset="0" stop-color="#010119"/>
      <stop offset="1" stop-color="#01012a"/>
    </linearGradient>
    <linearGradient id="linear-gradient29" x1="-28.7" y1="28.3" x2="961.3" y2="524.7" gradientTransform="translate(0 432.1) scale(1 -1)" gradientUnits="userSpaceOnUse">
      <stop offset="0" stop-color="#010119"/>
      <stop offset="1" stop-color="#01012a"/>
    </linearGradient>
    <linearGradient id="linear-gradient30" x1="-25.4" y1="21.6" x2="964.7" y2="518" gradientTransform="translate(0 432.1) scale(1 -1)" gradientUnits="userSpaceOnUse">
      <stop offset="0" stop-color="#010119"/>
      <stop offset="1" stop-color="#01012a"/>
    </linearGradient>
    <linearGradient id="linear-gradient31" x1="-22.4" y1="15.7" x2="967.6" y2="512" gradientTransform="translate(0 432.1) scale(1 -1)" gradientUnits="userSpaceOnUse">
      <stop offset="0" stop-color="#010119"/>
      <stop offset="1" stop-color="#01012a"/>
    </linearGradient>
    <linearGradient id="linear-gradient32" x1="-18.5" y1="8" x2="971.5" y2="504.4" gradientTransform="translate(0 432.1) scale(1 -1)" gradientUnits="userSpaceOnUse">
      <stop offset="0" stop-color="#010119"/>
      <stop offset="1" stop-color="#01012a"/>
    </linearGradient>
    <linearGradient id="linear-gradient33" x1="-15.4" y1="1.7" x2="974.6" y2="498" gradientTransform="translate(0 432.1) scale(1 -1)" gradientUnits="userSpaceOnUse">
      <stop offset="0" stop-color="#010119"/>
      <stop offset="1" stop-color="#01012a"/>
    </linearGradient>
    <linearGradient id="linear-gradient34" x1="-11.2" y1="-6.6" x2="978.8" y2="489.8" gradientTransform="translate(0 432.1) scale(1 -1)" gradientUnits="userSpaceOnUse">
      <stop offset="0" stop-color="#010119"/>
      <stop offset="1" stop-color="#01012a"/>
    </linearGradient>
  </defs>
  <g>
    <path class="st34" d="M443.7,209.5l39.4-23.9c7.4-4.5,9.8-14.2,5.3-21.6-4.5-7.4-14.2-9.8-21.6-5.3l-39.4,23.9c-7.4,4.5-9.8,14.2-5.3,21.6,4.5,7.4,14.2,9.8,21.6,5.3Z"/>
    <path class="st1" d="M383.7,166.6c0,8.7,7.1,15.7,15.8,15.6,3.1,0,5.9-.9,8.4-2.5,4.4-2.8,7.3-7.8,7.3-13.4l-.3-38c0-8.7-7.1-15.7-15.8-15.6-8.7,0-15.7,7.2-15.6,15.8l.3,38h0Z"/>
    <path class="st0" d="M484.8,244.7l-33.8-18.8c-7.6-4.2-17.2-1.5-21.4,6.1-4.2,7.6-1.5,17.2,6.1,21.4l33.8,18.8c4.9,2.8,10.7,2.6,15.3,0,2.5-1.4,4.6-3.4,6.1-6.1,4.2-7.6,1.5-17.2-6.1-21.4h0Z"/>
    <path class="st3" d="M414.7,207.8l-83.9-48.1c-7.5-4.3-17.2-1.7-21.5,5.8s-1.7,17.2,5.8,21.5l52.7,30.6c-.4.2-.8.4-1.2.7l-50.6,30.8c-7.3,4.4-10.1,13.9-5.9,21.3,4.4,7.8,14.3,10.4,21.9,5.8l50.9-31c.3-.2.5-.4.8-.5l.2,60.5c.3,8.7,8.6,15.5,17.2,15.2,2.8,0,5.4-.9,7.6-2.3,4.7-2.9,7.1-8.1,6.9-14l-1-96.2h.1Z"/>
  </g>
  <g>
    <path class="st8" d="M275.5,134.7c-5.7,0-10.1,4-10.1,9.8s.8,4.6,2,6.2h-11.6c1.4-9.4-2.2-16-11.9-16s-4.2.3-6.4,1.1l.8,3.3c1.9-.6,3.3-.8,5-.8,9.4,0,9.7,8.5,8.8,12.5h-38.1c-4,0-6.1-1.8-6.1-5.3v-16.9h-3.6v16c0,4.7-.9,6.2-5.3,6.2h-26.7c-4,0-6.1-1.8-6.1-5.3v-10.2h-3.6v9.3c0,4.5-1.3,6.2-4.8,6.2s-4.8-1.1-4.8-3.9v-8.2h-3.6v6.3c0,4.7-1.9,5.8-4.9,5.8s-4.5-.7-4.5-3.8v-8.3h-3.6v11c0,6.2-3.5,8.6-9,8.6s-8.9-2.4-8.9-7.8.4-4.1,1.5-6.7l-3.3-1.1c-1.4,3.2-2,6-2,8.3,0,6.2,4.1,10.9,12.5,10.9s11.6-3,12.6-8.9c1.1.9,2.8,1.4,4.8,1.4,3.4,0,5.6-1.1,6.9-3,1.1,1.8,3.4,2.8,6.3,2.8s5.6-1.1,7-3.1c1.3,2,3.7,3.1,7.4,3.1h26.7c3.6,0,6.3-.9,7.7-3,1.3,1.9,3.7,3,7.4,3h59.8c8.1,0,10.8-4.6,10.8-9.6s-3.3-9.8-9.2-9.8h.1ZM274.3,150.7h0c-2,0-3.9-1.2-4.6-3.1s-.6-2-.6-3.2c0-4.1,2.6-6.2,6-6.2s5.9,2.4,5.9,6.2-1.6,6.2-6.7,6.2h0Z"/>
    <path class="st7" d="M247.4,160.5c0-1.4-.9-2.3-2.2-2.3s-2.3,1-2.3,2.3.9,2.3,2.3,2.3,2.2-1,2.2-2.3Z"/>
    <path class="st4" d="M132.5,185.1c0-1.3-.9-2.3-2.3-2.3s-2.3,1-2.3,2.3,1,2.3,2.3,2.3,2.3-1,2.3-2.3Z"/>
    <path class="st6" d="M139.1,185.1c0-1.3-.9-2.3-2.2-2.3s-2.3,1-2.3,2.3,1,2.3,2.3,2.3,2.2-1,2.2-2.3Z"/>
    <path class="st5" d="M115.9,191.3c-.7,1.9-1.5,4.8-1.5,7.3,0,5.4,4,8.8,10.6,8.8h19.2c6,0,9.1-3.5,9.1-8.1v-10.9h-3.6v9.3c0,4.6-1.9,6.2-5.9,6.2h-18.3c-4.8,0-7.4-1.9-7.4-6s.4-3.3,1.1-5.8l-3.4-.9h.1Z"/>
    <path class="st2" d="M170.3,213.8c0,1.3,1,2.3,2.3,2.3s2.3-1,2.3-2.3-.9-2.3-2.3-2.3-2.3,1-2.3,2.3Z"/>
    <path class="st22" d="M176.8,213.8c0,1.3,1,2.3,2.3,2.3s2.2-1,2.2-2.3-.9-2.3-2.2-2.3-2.3,1-2.3,2.3Z"/>
    <path class="st21" d="M269.5,172.2v25.6c0,4.7-.9,6.2-5.3,6.2h-5.6c1.4-9.4-2.2-16-11.9-16s-4.1.3-6.4,1.1l.8,3.3c1.9-.6,3.3-.8,5-.8,9.4,0,9.7,8.5,8.8,12.5h-20.7c.5-1.3.7-2.7.7-4.2,0-4.8-2.4-9.8-9.2-9.8s-10.2,3.9-10.2,9.8.3,2.9.8,4.2h-8.1c-1.7,0-4.2-.2-6.4-.6,3.3-2.1,5.6-4.9,5.6-8.4s-3.6-6.9-9.1-6.9-8.1,1.9-10,3.1c-.4.9-.6,2.6-.8,3.9,2.4,2.8,4.9,5.2,6.9,8.1-2,.6-4.3.9-8,.9h-2.2c-4,0-6.1-1.8-6.1-5.3v-10.2h-3.6v9.3c0,4.4-1.4,6.2-5.2,6.2h-.3c-4,0-6-1.6-6-4.9v-26.8h-3.6v27.1c0,5.5,2.9,8.1,9.7,8.1h.2c3.6,0,6.1-1,7.6-3.2,1.3,2,3.7,3.2,7.5,3.2h1.9c4.9,0,8.1-.4,11.3-1.7,3.2,1.2,7.8,1.7,11.1,1.7h9.8c.9,1,2.7,1.7,3.7,2.1s1.6.4,2.4.4h0c1,0,1.9,0,2.8-.2h0c2.5-.6,3.8-1.9,4.2-2.2h32.4c2.9,0,5.1-.6,6.6-1.9,1.5-1.3,2.3-3.3,2.3-6.2v-27.2h-3.6l.2-.3ZM190.7,193.7v-.2c2.3-1.2,4.7-1.9,7-1.9,4.2,0,6.1,1.9,6.1,4s-2.2,4.4-5.7,6.1c-2.6-3.4-5.2-6.2-7.5-8h0ZM224.6,206.5c-1,0-1.9-.3-2.7-.8s-1.4-1.2-1.8-2.1c-.5-1.1-.7-2.4-.7-3.7,0-4.2,2.6-6.4,6.3-6.4s5.8,2.3,5.8,6.1-2.4,6.9-6.8,6.9h-.1Z"/>
    <path class="st18" d="M245.6,213.8c0,1.3.9,2.3,2.3,2.3s2.2-1,2.2-2.3-.9-2.3-2.2-2.3-2.3,1-2.3,2.3Z"/>
    <rect class="st17" x="280.1" y="172.2" width="3.6" height="35.2"/>
    <path class="st24" d="M128.1,234.1c0,1.4,1,2.3,2.3,2.3s2.2-1,2.2-2.3-.9-2.3-2.2-2.3-2.3,1-2.3,2.3Z"/>
    <path class="st19" d="M121.6,234.1c0,1.4,1,2.3,2.3,2.3s2.3-1,2.3-2.3-.9-2.3-2.3-2.3-2.3,1-2.3,2.3Z"/>
    <path class="st20" d="M162.9,267.2c0-1.4-.9-2.3-2.3-2.3s-2.3,1-2.3,2.3,1,2.3,2.3,2.3,2.3-1,2.3-2.3Z"/>
    <path class="st23" d="M169.5,267.2c0-1.4-.9-2.3-2.2-2.3s-2.3,1-2.3,2.3,1,2.3,2.3,2.3,2.2-1,2.2-2.3Z"/>
    <path class="st16" d="M242.8,260.8c.4-1.9.6-3.5.6-5.1,0-10.3-9.2-14.1-23-15l-.6,3.2c1.4,0,2.9.1,4.2.2-2.3,1.4-3.6,4.1-3.6,6.8s1.2,5,2.8,6.4h-35.8c-4,0-6.1-1.8-6.1-5.3v-22.1h-3.6v21.2c0,4.7-.9,6.2-5.3,6.2s-6.1-1.8-6.1-5.3v-10.2h-3.6v9.3c0,4.4-1.4,6.2-5.2,6.2h-17.3c-3.7,0-5-.9-5-4.7v-10.8h-7.9c-7,0-11.1,4-11.1,9.6s4,8.3,9.8,8.3,4.5-.6,6.4-1.4c1,1.7,3.5,2.4,7.8,2.4h17.2c3.5,0,6.1-1,7.6-3.2,1.3,2,3.7,3.2,7.5,3.2h0c3.6,0,6.3-.9,7.7-3,1.3,1.9,3.7,3,7.4,3h33.7c2.2,0,4.7-.3,6.4-.9,1.9.7,4,.9,6.3.9h8.9,0ZM131.3,255.1c-1.2.7-2.9,1.2-5,1.2-4,0-6.4-1.7-6.4-5.2s2.8-5.8,6.7-5.8h4.8v9.8h0ZM227.6,256.6c-2.1-1-3.9-2.9-3.9-5.9s1.7-5,4.1-5,4.1,2.1,4.1,5-2,5-4.3,5.8h0ZM235.2,250.8c0-1.5-.4-3-1.3-4.3,3.8,1.8,6.1,4.6,6.1,8.9s0,1.4-.1,2h-7.9c1.8-1.4,3.2-3.8,3.2-6.6h0Z"/>
    <path class="st25" d="M255.1,231.7h7.6v-1.8h-4c-.4-.7-.7-1.4-.7-2,0-1.3,1-1.9,2.4-1.9s1.1,0,1.5.2l.3-1.8c-.7-.1-1.4-.3-2.2-.3-2.3,0-3.9,1.4-3.9,3.5s.2,1.5.7,2.3h-1.6v1.8h0Z"/>
    <path class="st31" d="M273.1,252.2v-26.6h-3.6v25.6c0,4.6-1.9,6.2-5.9,6.2h-3v-22.2h-3.6v22.2h-9.8v3.4h16.9c6,0,9.1-3.3,9.1-8.6h-.1Z"/>
    <rect class="st30" x="280.1" y="225.5" width="3.6" height="35.2"/>
  </g>
  <g>
    <path class="st27" d="M130.2,298c-1.2,1.6-2.9,2.4-4.9,2.4-3.7,0-6.5-3-6.5-7.1s2.8-7.1,6.5-7.1,3.2.7,4.2,2v.2c.1,0,2.3-1.6,2.3-1.6v-.2c-1.5-1.8-3.8-2.8-6.5-2.8-5.2,0-9.1,4-9.1,9.4s3.9,9.4,9.1,9.4,5.2-1.1,6.8-3.1v-.2c.1,0-1.8-1.6-1.8-1.6v.2h-.1Z"/>
    <path class="st26" d="M139.5,289.9c-3.7,0-6.4,2.6-6.4,6.3s2.7,6.3,6.4,6.3,6.4-2.6,6.4-6.3-2.7-6.3-6.4-6.3ZM139.5,300.3c-2.3,0-3.9-1.7-3.9-4.1s1.6-4.1,3.9-4.1,3.9,1.7,3.9,4.1-1.6,4.1-3.9,4.1Z"/>
    <path class="st28" d="M158.5,299.5v-9.2h-2.3v5.9c0,1.5-.4,4.1-3.4,4.1s-2.4-1.8-2.4-2.9v-7.2h-2.3v7.5c0,3,1.7,4.8,4.6,4.8s3-.7,3.7-1.8v1.5h2.2v-2.8h-.1Z"/>
    <path class="st29" d="M167.2,289.9c-1.5,0-2.9.7-3.7,1.8v-1.4h-2.2v11.9h2.3v-5.9c0-2.7,1.2-4.2,3.4-4.2s2.4,1.8,2.4,2.9v7.2h2.3v-7.5c0-3.1-1.7-4.8-4.6-4.8h.1Z"/>
    <path class="st33" d="M180.2,292.1c1.1,0,2,.4,2.8,1.3v.2c.1,0,2-1.6,2-1.6v-.2c-1.3-1.2-2.9-1.9-4.7-1.9-3.7,0-6.2,2.6-6.2,6.3s2.6,6.3,6.2,6.3,3.4-.7,4.5-1.9h.1c0-.1-1.8-1.8-1.8-1.8v.2c-.8.9-1.7,1.3-2.9,1.3-2.1,0-3.7-1.7-3.7-4.1s1.5-4.1,3.7-4.1h0Z"/>
    <rect class="st32" x="186.3" y="290.2" width="2.3" height="12"/>
    <path class="st14" d="M187.4,284.3c-.9,0-1.6.7-1.6,1.6s.7,1.6,1.6,1.6,1.6-.7,1.6-1.6-.7-1.6-1.6-1.6Z"/>
    <rect class="st15" x="191.7" y="283.1" width="2.3" height="19.1"/>
    <path class="st10" d="M208.4,283.9c-5.4,0-9.4,4-9.4,9.4s3.9,9.4,9.4,9.4,9.4-4,9.4-9.4-3.9-9.4-9.4-9.4ZM208.4,300.3c-3.8,0-6.7-3-6.7-7.1s2.9-7.1,6.7-7.1,6.8,3,6.8,7.1-2.9,7.1-6.7,7.1h-.1Z"/>
    <path class="st9" d="M226.3,282.8c-2.8,0-4.3,1.7-4.3,5v2.4h-2.5v2h2.5v9.9h2.3v-9.9h2.8v-2h-2.8v-2.4c0-2.4.6-2.8,1.9-2.8s.8,0,1.2.2h.2l.3-2h-.1c-.4-.3-1.1-.4-1.6-.4h.1Z"/>
    <path class="st11" d="M247,298c-1.2,1.6-2.9,2.4-4.9,2.4-3.7,0-6.5-3-6.5-7.1s2.8-7.1,6.5-7.1,3.2.7,4.2,2v.2c.1,0,2.3-1.6,2.3-1.6v-.2c-1.5-1.8-3.8-2.8-6.5-2.8-5.2,0-9.1,4-9.1,9.4s3.9,9.4,9.1,9.4,5.2-1.1,6.8-3.1v-.2c.1,0-1.8-1.6-1.8-1.6v.2h-.1Z"/>
    <path class="st13" d="M258.5,292c-2.7-.8-3.6-1.6-3.6-3s1.4-2.7,3.5-2.7,2.4.6,3,1.5v.2c.1,0,2.2-1.8,2.2-1.8v-.2c-1.4-1.4-3-2.1-5.2-2.1-3.6,0-6.2,2.2-6.2,5.3s1.2,3.9,4.3,4.9c.4.1.7.2,1.1.4,2.3.8,3.6,1.2,3.6,3.1s-1.8,2.8-3.6,2.8-2.9-.7-3.6-1.9v-.2c-.1,0-2.2,1.7-2.2,1.7v.2c1.2,1.6,3.2,2.5,5.7,2.5,3.8,0,6.4-2.1,6.4-5.3s-1.4-4.2-5.3-5.4h-.1Z"/>
    <path class="st12" d="M276.1,284.4h0c0-.1-2.2-.1-2.2-.1l-7.9,17.9h2.8l1.8-4.3h8.5l1.8,4.3h2.9l-7.6-17.8h0ZM278.1,295.6h-6.5l3.4-7.9,3.2,7.9h-.1Z"/>
  </g>
</svg>