<?xml version="1.0" encoding="utf-8"?>
<!-- Generator: Adobe Illustrator 26.0.1, SVG Export Plug-In . SVG Version: 6.00 Build 0)  -->
<svg version="1.1" id="Layer_1" xmlns="http://www.w3.org/2000/svg" xmlns:xlink="http://www.w3.org/1999/xlink" x="0px" y="0px"
	 viewBox="0 0 595 568.04" style="enable-background:new 0 0 595 568.04;" xml:space="preserve">
<style type="text/css">
	.st0{fill:#007E40;}
</style>
<polygon class="st0" points="489.65,365.31 449.23,345.11 447.95,348.26 487.97,369.15 "/>
<path class="st0" d="M404.33,35.11l-197.63,0L66.96,174.85l0,197.63L206.7,512.22l197.63,0l139.74-139.7V174.77L404.33,35.11z
	 M528.41,365.29L395.74,497.59l-182.71,0.18L82.5,367.17l0.12-185.5L213.31,50.15l185.24-0.02l129.52,129.45L528.41,365.29z"/>
<g>
	<g>
		<g>
			<g>
				<path class="st0" d="M288.77,155.57c5.38-0.88,8.63-1.35,15.04-1.55v-3.29c-0.04-4.11-1.94-6.13-6.87-5.91
					c0,0-3.36,0.9-4.45-0.86c0,0,0.1,1.29-1.15,2.87c-0.84,1.07-2.8,2.24-2.8,2.24s4.43-0.85,5.51-0.9
					c2.13-0.11,6.44-1.55,6.23,2.78c0,0-0.04,0.01-0.06,0.01c-1.81,0.13-5.48,0.17-12.01,1.25L288.77,155.57z"/>
				<g>
					<path class="st0" d="M310.48,144.01c-0.32,0-0.58,0.05-0.88,0.07l0.1,14.78l-0.03,0.1c-0.23,4.88-5,2.68-5.23,2.43
						c2.35,3.24,8.1,2.87,8.41-2.68l0.7-16.68C313.56,142.03,312.59,144,310.48,144.01z"/>
					<path class="st0" d="M311.65,136.68c1.16,0.08,2.17-0.79,2.26-1.96c0.08-1.16-0.79-2.17-1.96-2.26
						c-1.16-0.08-2.17,0.79-2.26,1.96C309.61,135.59,310.49,136.6,311.65,136.68z"/>
				</g>
			</g>
			<g>
				<path class="st0" d="M351.81,152.29c-0.3-0.11-0.56-0.16-0.85-0.24l-5.15,13.86l-0.07,0.08c-1.95,4.48-5.62,0.73-5.75,0.41
					c1.05,3.87,6.55,5.56,8.82,0.48l6.57-15.35C355.39,151.53,353.79,153.03,351.81,152.29z"/>
				<path class="st0" d="M332.55,163.74c1.16,0.06,2.16-0.84,2.22-2c0.06-1.16-0.84-2.16-2-2.22c-1.16-0.06-2.16,0.84-2.22,2
					C330.49,162.69,331.39,163.68,332.55,163.74z"/>
				<path class="st0" d="M349.11,145.72c0,0-1.53,2.35-5.63,1.41c0,0,1.04,1.35,0.55,2.56c-0.2,0.51-1.14,3.26-2.15,6.26
					c-4.85-1.6-13.02-3.12-17.17-3.94c0,0,1.76-1.72,2.62-3.52c1.53-3.23,0.87-6.85,0.87-6.85c-0.09,1.84-0.73,8.3-11.39,12.99
					c0,0,6.82-0.58,27.42,5.53L349.11,145.72z"/>
			</g>
			<g>
				<path class="st0" d="M401.03,185.36l-6.22-6.55c-1.81-1.57-2.64-0.83-4.68,1.4l-3.48,3.98l5.34,5.01l-3.09,2.96l-0.09,0.05
					c-3.47,3.19-5.29-1.59-5.28-1.92c-0.56,3.83,3.69,7.51,7.67,3.93L401.03,185.36z M391.14,183.86l1.07-1.06
					c0.84-0.85,1.51-0.92,2.36-0.08l1.91,1.97l-2.26,2.19L391.14,183.86z"/>
				<path class="st0" d="M387.16,161.86c1.17,0.01,2.12-0.92,2.14-2.09c0.01-1.17-0.92-2.12-2.09-2.14
					c-1.17-0.01-2.12,0.92-2.14,2.09C385.06,160.89,385.99,161.84,387.16,161.86z"/>
				<path class="st0" d="M393.64,166.52c1.17,0.01,2.12-0.92,2.14-2.09c0.01-1.17-0.92-2.12-2.09-2.14
					c-1.17-0.01-2.12,0.92-2.14,2.09C391.54,165.55,392.47,166.51,393.64,166.52z"/>
				<path class="st0" d="M385.5,163.87c-2.05-1.23-3.13-1.03-4.76,1.52l-2.82,4.33l5.78,4.21l-1.59,2.11
					c-2.29-1.69-9.41-6.48-12.93-8.48l8.77-15.65c0,0-2.63,1.53-6.39,0.82c0,0,1.14,0.37,0.47,1.57c-0.16,0.3-8.05,15.89-8.09,15.95
					c-1.94,3.54-4.66,2.79-6,2.1c-2.67-1.43-2.95-3.94-2.62-5.51c0.32-1.49,0.97-4.35,5.41-6.32c0,0,0.66,1.18,2.05,0.27
					c1.35-0.89,1.74-3.3,1.74-3.3c-1.92,1.18-8.7,4.45-10.17,8.42c-1.55,4.18,0.71,7.73,3.24,8.82c1.52,0.65,6.16,2.27,8.97-2.54
					l0.98-1.74c4.52,2.52,8.83,5.21,15.19,10.4l9.43-11.87L385.5,163.87z M382.42,168.88l0.82-1.29c0.68-0.98,1.01-0.81,1.99-0.14
					l2.22,1.6l-1.82,2.33L382.42,168.88z"/>
			</g>
			<g>
				<path class="st0" d="M279.56,139.51c1.16-0.09,2.03-1.11,1.94-2.27c-0.09-1.16-1.11-2.03-2.27-1.94
					c-1.16,0.09-2.03,1.11-1.94,2.27C277.38,138.74,278.39,139.6,279.56,139.51z"/>
				<path class="st0" d="M258.79,171.66c1.16-0.09,2.03-1.11,1.94-2.27c-0.09-1.16-1.11-2.03-2.27-1.94
					c-1.16,0.09-2.03,1.11-1.94,2.27C256.61,170.89,257.63,171.76,258.79,171.66z"/>
				<path class="st0" d="M265.17,168.53c1.16-0.09,2.03-1.11,1.94-2.27c-0.09-1.16-1.11-2.03-2.27-1.94
					c-1.17,0.09-2.03,1.11-1.94,2.27C262.99,167.75,264.01,168.62,265.17,168.53z"/>
				<path class="st0" d="M280.76,153.67c-3.34,0.63-6.66,1.63-6.66,1.63l-7.5-7.95c0,0-1.19-1.69-3.3-1.38
					c-1.36,0.21-3.78,1.51-4.93,2.34c-1.26,0.97-2.18,2.64-1.01,3.97l5.86,6.52c-4.84,1.63-9.08,3.96-12.89,5.79
					c0,0,0.38-2.43-0.02-4.39c-0.71-3.5-3.41-6-3.41-6c1.03,1.53,4.4,7.08-1.31,17.23c0,0,5.96-5.12,23.54-11.35l-8.53-9.23
					c0.46-0.68,1.89-1.55,3.12-1.5l8.92,9.62c3.1-0.81,8.07-1.94,11.84-2.55L282.37,143c0,0-0.48,2.26-1.93,3.06
					c-1.6,0.6-3,1.12-3,1.12s1.87-0.83,2.51,2.33L280.76,153.67z"/>
			</g>
			<g>
				<path class="st0" d="M241.6,173.68l-2.78,0.04c-2.39,0-2.82-1.61-2.82-1.61c-0.25,1.66-2.23,2.56-4.22,2.13
					c-1.66-0.36-2.95-2.18-3.03-4.28c-0.1-2.93,2.38-4.69,4.24-3.82c-0.19,1,0.36,1.94,0.97,1.99c0.7,0.06,1.81-0.19,1.71-1.32
					c-0.1-1.13-1.1-1.35-1.16-1.37c-3.87-0.83-7.46,1.82-7.59,5.05c-0.13,3.02,1.89,5.88,4.63,6.08c-1.51,1.11-2.92,2.21-4.14,3.25
					l-12.42-14.05c0,0,0.44,2.54-1.33,5.28c0,0,0.66-0.79,1.45,0.1c0.56,0.65,6.53,7.21,9.84,10.86c-1.18,1.1-2.1,2.04-2.81,2.78
					c-0.62-0.32-1.31-0.53-2.05-0.59c-2.97-0.24-5.56,1.98-5.8,4.94c-0.09,1.16,0.2,2.26,0.76,3.19c-0.73,0.91-1.53,1.94-2.17,2.74
					l-14.89-11.45c0,0,0.91,2.41-0.3,5.44c0,0,0.5-0.9,1.44-0.17c0.94,0.73,14.35,10.75,14.35,10.75l0.7-1.12
					c0.17,0,0.31-0.03,0.41-0.14c0.4-0.47,1.73-2.33,2.95-3.89c0.53,0.23,1.09,0.4,1.7,0.44c2.96,0.24,5.56-1.97,5.79-4.94
					c0.08-1-0.14-1.95-0.55-2.79C230.47,181.12,237.77,175.95,241.6,173.68z M219.51,191.47c-1.05-0.08-1.83-1-1.74-2.04
					c0.08-1.05,1-1.83,2.04-1.74c1.05,0.08,1.83,1,1.75,2.04C221.48,190.77,220.56,191.55,219.51,191.47z"/>
				<g>
					<path class="st0" d="M200.5,181.58c0,0,5.25-3.55,6.57-8.09l0.87-0.02c0,0,0.27,2.36-2.13,5.03
						C203.4,181.16,200.5,181.58,200.5,181.58z"/>
					<path class="st0" d="M202.95,183.53c0,0,5.25-3.55,6.57-8.08l0.87-0.02c0,0,0.27,2.36-2.13,5.03
						C205.86,183.12,202.95,183.53,202.95,183.53z"/>
				</g>
			</g>
		</g>
		<g>
			<path class="st0" d="M283.92,75.03c-0.23-1.78,1.29-1.71,1.29-1.71c-4.75-0.83-7.13-3.89-7.13-3.89l4.48,32.34
				c0.18,1.11-0.56,2.15-1.64,2.34c-1.08,0.18-2.11-0.57-2.29-1.68l-5.31-32.14c0,0-1.37,3.65-5.66,5.9c0,0,1.42-0.54,1.73,1.23
				c0.13,0.76,1.68,8.76,3.02,15.64c-2.58,0.5-5.17,1.33-7.54,1.88l-2.17-10.15c0,0-1.16,3.73-5.3,6.24c0,0,1.39-0.62,1.8,1.12
				c0.17,0.71,0.61,2.52,0.97,4.02c-2,0.53-4.1,1.01-5.93,1.57l-2.79-9.9c0,0-0.94,3.79-4.93,6.55c0,0,1.35-0.71,1.86,1.01
				c0.21,0.69,1.38,3.8,1.38,3.8c-1.78,0.6-3.67,1.03-5.29,1.64l-3.27-9.37c0,0-0.77,3.83-4.63,6.77c0,0,1.32-0.77,1.9,0.92
				c0.15,0.42,5.99,16.17,5.99,16.17c0.67,1.69-0.07,4.26-3.44,4.69c-0.48,0.06-0.94-0.14-1.37-0.31c0.86,0.5,1.85,0.79,2.91,0.81
				c3.44,0.06,7.48-2.82,6.14-7.3l-2.56-7.62c8.11-3.04,17.62-5.63,27.14-7.43c0.59,3.06,1.1,4.96,1.1,4.96
				c0.46,2.87,2.72,4.95,5.41,5.31c1.47,0.09,1.99,1.94,1.99,1.94c0.01-1.08,0.67-2.13,1.03-2.56c2.66-0.9,4.24-3.52,4.09-6.35
				l-0.05,0.31C286.85,101.8,284.09,76.35,283.92,75.03z"/>
			<path class="st0" d="M347.86,74.34c1.58,0,2.85-1.28,2.85-2.85s-1.27-2.85-2.85-2.85c-1.57,0-2.85,1.28-2.85,2.85
				S346.29,74.34,347.86,74.34z"/>
			<path class="st0" d="M443.91,158.89l-2.85-3.55l20.31-17.95c0,0-1.21,3.71,0.69,8.23c0,0-0.77-1.34-2.1-0.17
				C458.62,146.61,443.91,158.89,443.91,158.89z"/>
			<path class="st0" d="M174.32,153.82l-2.97,3.61l-20.58-17.64c0,0,3.85,0.69,8.06-1.82c0,0-1.22,0.94,0.12,2.1L174.32,153.82z"/>
			<path class="st0" d="M245.18,81.67c1.54,0,2.79-1.28,2.79-2.85c0-1.57-1.25-2.85-2.79-2.85c-1.54,0-2.79,1.28-2.79,2.85
				C242.4,80.39,243.64,81.67,245.18,81.67z"/>
			<path class="st0" d="M247.52,88.9c1.54,0,2.79-1.28,2.79-2.85c0-1.57-1.25-2.85-2.79-2.85c-1.54,0-2.79,1.28-2.79,2.85
				C244.73,87.62,245.98,88.9,247.52,88.9z"/>
			<path class="st0" d="M266.09,113.79c1.54,0,2.79-1.28,2.79-2.85c0-1.57-1.25-2.85-2.79-2.85c-1.54,0-2.79,1.28-2.79,2.85
				C263.3,112.52,264.55,113.79,266.09,113.79z"/>
			<path class="st0" d="M131.05,242.39c1.33-8.19,2.11-11.8,4.91-21.16l-4.75-1.59c-4.06-1.02-10.75,0.34-12.22,6.82
				c0,0-0.74,5.93-2.99,6.27c0,0,1.5,0.28,3.19,2.84c1.14,1.73,1.9,5.15,1.9,5.15s1.31-6.63,1.75-8.21
				c0.87-3.13,0.87-10.04,7.01-7.66c0,0-0.01,0.06-0.01,0.09c-0.68,2.68-2.25,6.68-3.83,16.63L131.05,242.39z"/>
			<path class="st0" d="M227.24,95.01c0,0-0.39,3.14-2.95,4.43c-6.18,3.11-6.81,7.74-5.11,11.39l2.93,5.67l7.65-3.96l2.53,5.47
				l0.02,0.14c2.67,6.09-4.48,6.27-4.91,6.1c4.82,2.54,11.6-1.38,8.64-8.33L227.24,95.01z M223.69,109.87
				c-0.8-1.5-1.1-2.56-0.69-3.64c0.4-1.08,2.7-2.32,2.7-2.32l1.88,4.02L223.69,109.87z"/>
			<path class="st0" d="M177.5,127.16c0,0,0.59,3.1-1.46,5.14c-4.93,4.91-4.13,9.51-1.41,12.44l4.5,4.46l6.07-6.18l4.07,4.4
				l0.07,0.13c4.38,4.94-2.36,7.38-2.82,7.35c5.35,0.88,10.61-4.98,5.7-10.65L177.5,127.16z M178.64,142.41
				c-1.22-1.17-1.82-2.09-1.76-3.24c0.06-1.15,1.86-3.06,1.86-3.06l3.01,3.23L178.64,142.41z"/>
			<path class="st0" d="M205.41,102.09c-0.91-1.54,0.51-2.09,0.51-2.09c-4.67,1.19-8.05-0.65-8.05-0.65l11.26,18.8
				c-2.94,1.84-7.51,5.26-12.09,8.68c0,0-0.71-3.92-1.81-5.61c-1.85-2.84-4.96-3.65-4.96-3.65c1.83,1.72,6.72,7.67,2,19.28
				c0,0,4.48-5.02,23.39-16.76C215.65,120.1,206.31,103.63,205.41,102.09z"/>
			<path class="st0" d="M366.85,76.78c0,0-2.29,2.13-5.05,1.4c-6.66-1.75-10.09,1.35-11.12,5.26l-1.38,6.26l8.41,1.99l-3.3,11.84
				c0,0-0.57,4.28-2.89,3.66c-2.19-0.58-0.94-4.38-0.94-4.38l1.61-7.15c0,0-9.18-2.11-10.49-2.35c0,0,1.36-5.59-1.69-9.57
				c-2.88-3.76-5.6-3.81-5.6-3.81l1.41-10.59c0,0-2.04,5.03-7.87,4.87c-0.01,0-0.02,0-0.03,0c-0.05,0-0.07,0,0.01,0
				c0.8,0.18,2.51,0.61,2.22,3.16l-0.24,2.16c0,0-3.61-0.6-7.26,2.72c-3.1,2.88-3.24,8.18-3.24,8.18s-2.66-0.17-3.41-0.19l0.04-3.92
				c-0.26-3.14-3.21-6.98-8.91-7.04c0,0-6.36,0.72-7.87-1.65c0,0-0.02,2.13-1.35,3.46c-1.5,1.5-3.86,2.42-3.86,2.42s6.4-0.3,8-0.18
				c5.36,0.43,9.76-1.2,9.68,6.41c0,0.09-17.53,0.6-17.53,0.6l0.27,5.15c0,0,16.26-1.12,24.68-0.19l0.01,6.38
				c0,0,0.27,5.71,5.41,6.22c6.03,0.59,6.73-5.08,6.73-5.08l0.83-6.15c3.16,0.54,9.77,1.64,14.72,2.8l-0.67,4.4
				c0,0-1.2,5.32,3.44,7.22c0.55,0.85,0.48,1.64,0.29,2.11c0,0,0.64-1.02,1.62-1.57c3.59,0.5,5.04-1.71,6-4.74
				C357.56,106.92,366.35,78.35,366.85,76.78z M327.16,102.46c0,0-0.24,1.68-2.1,1.66c-1.35-0.01-2.06-2.04-2.06-2.04l0.25-6.42
				l4.67,0.5L327.16,102.46z M328.49,91.17c0,0-4.71-0.58-4.71-0.62c0.25-3.36,2.11-6.47,5.54-6.44L328.49,91.17z M337.67,92.6
				l-4.81-0.83l0.84-7.27c1.74,0.69,3.26,1.96,3.9,3.51C338.36,89.81,337.67,92.6,337.67,92.6z M354.71,85.73
				c0.35-1.68,0.77-2.72,1.79-3.23c1.54-0.77,3.83,0.04,3.83,0.04l-1.25,4.35L354.71,85.73z"/>
			<path class="st0" d="M111,252.36c3.29,1.41,4.56,3.13,4.56,3.13c3.61-3.34,9.27-1.25,9.38,3.16c0.14,5.37-4.22,5.93-5.56,5.97
				c-1.57,0.04-3.92,0.1-9.21-5.18c-5.78-5.76-8.39-4.04-9.48-2.89c0,0,0.02,0.03,0.05,0.07c-0.33,0.44-0.55,0.96-0.53,1.55
				c0.04,1.4,1.2,2.5,2.6,2.47c1.4-0.04,2.5-1.2,2.47-2.6c-0.01-0.43-0.16-0.82-0.36-1.17c1.24,0.17,1.86,0.66,4.27,3.32
				c5.07,5.58,8.57,6.61,11.14,6.55c3.58-0.09,8.54-3.47,8.39-9.1c-0.18-6.94-6.84-9.12-9.53-9.05
				C113.71,248.71,111,252.36,111,252.36z"/>
			<path class="st0" d="M447.4,129.07c0,0,1.21,0.93-0.07,2.15c-1.92,1.96-11.09,11.47-11.09,11.47c-0.74-0.75-2.37-2.22-4.34-3.94
				c0.25-0.73,0.42-1.5,0.42-2.31c0.01-1.55-1.22-4.19-1.22-4.19c-0.77-1.24,0.13-2.8,0.13-2.8s-1.22,1.18-2.97,0.44
				c-0.96-0.48-2.03-0.77-3.18-0.78c-1.34-0.01-2.58,0.37-3.66,0.99c-1.27-0.96-5.88-4.35-5.88-4.35l13.16-18.48
				c0,0-3.52,1.54-8.08-0.03c0,0,1.37,0.67,0.34,2.13c-0.74,1.05-13.71,20.62-13.71,20.62c-0.6,0.94-1.83,1.21-2.75,0.6
				c-0.92-0.61-1.19-1.87-0.59-2.81l6.7-10.6c1.51-2.01,1.84-6.64-2.81-9.39c-3.77-2.23-20.43-10.69-29.72-14.14l24.53,5.29
				c3.06,0.81,3.65,1.88,3.84,2.37c0,0,1.17-4.04,7.97-3.53l-39.81-8.78l-2.47,7.18c7.36,2.52,20.64,8.53,28.59,12.78
				c3.57,1.9,7.77,3.31,3.87,9.27c0,0-15.86-9.93-31.98-16.11c0,0-3.48-0.95-3.63-2.89c0,0-0.73,4.6-7.31,4.09
				c0,0,19.47,5.22,40.55,18.85l-1.92,3.22c-1.54,2.44-1.24,5.54,0.51,7.65c1.03,1.09,0.2,2.8,0.2,2.8
				c0.72-0.79,1.89-1.12,2.44-1.18c2.56,1.16,5.19,0.47,6.94-1.73l0.02,0.04l2.58-3.63c0,0,1.01,0.85,2.58,2.16
				c0.57,0.4,1.54,1.19,2.72,2.18c-0.34,0.83-0.53,1.73-0.54,2.68c-0.02,4.02,3.22,7.3,7.24,7.33c1.34,0.01,2.59-0.37,3.67-1
				c1.48,1.31,2.52,2.24,2.62,2.33l4.37,4.58l19.66-18.89C455.32,130.69,451.58,131.51,447.4,129.07z M425.03,139.4
				c-1.66-0.01-3-1.37-2.99-3.03c0.01-1.66,1.37-3,3.03-2.99c1.66,0.01,3,1.36,2.99,3.03C428.05,138.07,426.69,139.41,425.03,139.4z
				"/>
			<g>
				<path class="st0" d="M475.77,256.5c1.54,0,2.79-1.28,2.79-2.85c0-1.57-1.25-2.85-2.79-2.85c-1.54,0-2.79,1.28-2.79,2.85
					C472.99,255.23,474.23,256.5,475.77,256.5z"/>
				<path class="st0" d="M496.76,246.39c-1.64-1.23-3.61-3.81-3.61-3.81s1.09,6.31,1.2,7.95c0.22,3.25,2.52,9.74-4.05,9.63
					c0,0-0.01-0.06-0.02-0.09c-0.96-11.74-4.12-27.08-4.12-27.08c-0.03-0.17,21.18-5.46,21.18-5.46s-3.64-1.19-6.07-5.44
					c0,0,0.12,1.6-1.59,2.01l-19.51,5.12c0.35,1.31,0.76,2.82,1.17,4.53l-0.03,0.01c1.63,6.93,3.38,16.86,4.42,31.94l5-0.16
					c4.16-0.45,9.86-3.7,9.09-10.3c0,0-1.42-4.48,0.88-7.28C500.7,247.96,499.19,248.21,496.76,246.39z"/>
				<path class="st0" d="M469.11,154.26c1.54,0.05,2.83-1.19,2.88-2.76c0.05-1.57-1.16-2.89-2.7-2.93
					c-1.54-0.05-2.83,1.19-2.87,2.76C466.37,152.9,467.58,154.22,469.11,154.26z"/>
				<path class="st0" d="M475.72,163.66c1.54,0.05,2.83-1.19,2.88-2.76c0.05-1.57-1.16-2.89-2.7-2.94
					c-1.54-0.05-2.83,1.19-2.88,2.76C472.97,162.3,474.19,163.61,475.72,163.66z"/>
				<path class="st0" d="M491.44,215.15c-1.68-4.47-5.98-9.6-12.45-6.77c-0.65-1.87-5.08-11.37-5.97-13.61
					c2.69,0.22,6.83,3.81,6.83,3.81s2.99-2.66,2.35-6.72c0,0,0.95-1.47,0.73-2.71c-0.5-2.78,0.95-3.56,0.95-3.56s-1.7,0.75-3.6-1.5
					c-0.66-0.79-2.22-0.98-2.22-0.98c-4.24-3.78-8.07-1.78-8.07-1.78c0.8,2.82-0.45,6.83-0.45,6.83c-4.93-8.51-7.9-13.23-7.9-13.23
					l5.36-3.6l8.92-5.89c0,0-3.82,0.13-7.51-3.03c0,0,0.69,1.18-0.78,2.15c-0.27,0.18-0.81,0.55-1.49,1.03
					c-4.31-5.54-9.29-8.12-17.34-1.49c5.31,6.96,12.99,19.57,17.39,27.85l2.62,1.08l-0.6,2.84c6.48,12.93,10.78,27.17,10.78,27.17
					l16.28-4.87C495.27,218.18,492.46,217.87,491.44,215.15z M473.69,185.02c0,0,2.69,0.11,4.2,3.38c1.35,2.91,0.28,5.24,0.28,5.24
					s-1.32-1.42-5-2.57C473.16,191.07,473.99,189.05,473.69,185.02z M455.54,165.95c2.89-1.84,5.04-0.1,6.62,2.4l-3.34,2.38
					L455.54,165.95z M481.95,217.65l-1.53-4.75c1.66-0.75,2.87-1.13,4.49-0.2c1.75,1.01,2.36,3.21,2.36,3.21L481.95,217.65z"/>
			</g>
			<path class="st0" d="M167.75,161.59l-20.6-17.53c0,0,1.28,3.69-0.55,8.24c0,0,0.74-1.35,2.1-0.22l12.4,10.01l-3.85,5.04
				l0.09,0.07c-0.56-0.14-1.13-0.24-1.73-0.25c-1.98-0.02-3.77,0.77-5.08,2.05c-0.87,0.39-2.2-0.07-2.2-0.07s0.94,1.17,0.67,2.27
				c-0.39,0.88-0.62,1.84-0.63,2.86c-0.01,1.68,0.57,3.2,1.53,4.44c-1.13,2.06-5.31,9.01-5.34,8.67c-0.17-1.85,0.24-6.09,0.24-6.09
				c-2.57-1.39-5.81-0.67-8.44,1.5c-1.12-0.1-2.3,0.75-3.26,2.09c-1.01,0.73-2.3,0.31-2.3,0.31s1.11,1.06,1.02,2.24
				c-0.4,1.31-0.36,2.49,0.19,3.29c-0.43,3.44,0.74,6.61,3.34,8.02c0,0,2.59-2.22,5.28-3.46c0,0-3.14,6.94-4.57,11.26l-20.63-7.84
				c0,0,2.4,3.04,2.16,7.96c0,0,0.26-1.53,1.91-0.92c1.64,0.61,19.61,6.85,19.61,6.85s5.01-12.72,6.8-16.75l-0.89-2.91l3.14-1.01
				c1.98-3.84,3.89-7.19,5.55-10l0.27-0.6c0.49,0.11,1,0.18,1.53,0.18c3.97,0.03,7.21-3.15,7.24-7.12c0.01-1.54-0.47-2.97-1.29-4.15
				L167.75,161.59z M138.96,191.51c-1.59,0.79-2.6,2-2.6,2c-0.99-2.11-0.59-4.21,0.13-5.61c0.73-1.4,2.69-3.22,4.48-3.33
				c0,0-0.22,1.79-0.11,3.25c0.09,1.23,0.34,2.8,0.34,2.8S139.85,191.07,138.96,191.51z M155.53,177.1
				c-1.63-0.01-2.94-1.35-2.93-2.98c0.01-1.63,1.35-2.95,2.98-2.93c1.63,0.01,2.94,1.35,2.93,2.98
				C158.5,175.8,157.16,177.11,155.53,177.1z"/>
		</g>
	</g>
	<g>
		<path class="st0" d="M469.82,397.49l-16.16-12.04l1.32-1.68l-2.87-2.12l-1.21,1.67l-6.27-4.9l-2.06,2.61l6.2,5.01l-2.34,3.06
			c-0.92,1.14-2.73-0.45-2.73-0.45l-10.14-8.42c-1.64-1.34-1.11-2.57-1.11-2.57l4.12-5.4l-2.69-2.02c0,0-4.69,5.94-4.88,6.16
			c-2.25,2.61,0.54,4.58,0.54,4.58l12.66,11.05c1.85,1.62,2.78,1.01,3.61,0.47c-1.42,1.92,0.84,3.47,0.84,3.47
			s12.12,10.63,12.11,10.52c0,0,2.51,1.82,4.65-0.83L469.82,397.49z M464.39,399.73c-0.15,0.2-1.63,2.04-1.63,2.04
			c-1.56,1.72-3.01,0.38-3.01,0.38l-9.32-7.83c-1.59-1.41-1.82-1.94-1.35-2.62l2.49-3.44l11.42,9.29
			C463.83,398.17,465.2,398.66,464.39,399.73z"/>
		<path class="st0" d="M479.15,280.01l-10.24-0.36c-1.85,0.03-3.28,0.82-3.34,5.79c-0.52,4.64,0.74,5.37,3.11,5.75l14,1.31
			c0,0,1.46,0.31,3.78-2.79l3.61-4.98c1.07-1.29,2.31-0.94,5.67-0.79l8.79,0.6c1.03,0.09,2.24,0.45,2.18,1.85l-0.36,3.1
			c-0.06,1.4-0.88,1.82-2.48,1.36l-9.5-0.84l-0.25,3.57l12.4,1.31c2.8,0.12,3.78-2,3.87-3.79l0.42-6.08c0.12-2.8-1.5-4.03-4.3-4.16
			l-13.85-0.46c-2.24,0-3.82-0.12-4.44,0.98l-4.08,5.52c-1.93,2.82-3.02,1.87-3.02,1.87l-9.4-0.46c-2.23,0-2.84-0.69-2.58-2.91
			c0.26-2.24,0.41-2.75,3.03-2.62l6.73,0.43L479.15,280.01z"/>
		<polygon class="st0" points="500.85,338.44 497.04,337.2 495.59,341.35 480.36,335.75 481.47,332.65 478,331.49 476.94,334.47 
			460.18,328.51 461.21,325.33 458.12,324.23 455.95,330.35 497.97,346.34 		"/>
		<polygon class="st0" points="509.81,296.39 506.43,296.21 505.85,300.98 464.75,295.41 464.24,298.33 508.62,305.09 		"/>
		<polygon class="st0" points="486.29,372.03 446.68,350.42 445.29,353.06 463.28,368.09 441.55,359.35 439.73,362.13 
			477.24,386.98 479.56,383.66 455.83,368.35 482.02,379.22 459.61,361.4 484.31,375.37 		"/>
		<path class="st0" d="M486.91,321.71l17.31,4.59l1.09-3.89l-18.47-4.56c0,0-2.55,0.03-3.14,1.31c-0.19-0.88-0.4-2.64-2.78-2.64
			l-15.62-3.83c0,0-3.64-1.34-4.35,1.62l-2.47,8.32l43.01,13.75l1.15-4l-19.37-5.7l1.07-4.05
			C484.76,321.23,485.77,321.43,486.91,321.71z M479.68,325.61l-16.64-4.93l0.85-3.26c0,0-0.02-1.86,2-1.26
			c2.02,0.61,13.26,3.52,13.26,3.52s2.29,0.29,1.82,1.88L479.68,325.61z"/>
		<polygon class="st0" points="450.73,342.51 491.49,362.01 493.12,358.48 462.77,344.71 495.25,352.99 496.86,349.32 
			455.08,332.49 453.77,335.41 477,345.15 451.93,339.59 		"/>
		<path class="st0" d="M507.94,310.33l0.56-3.51l-44.96-3.68l-0.74,3.37l43.08,13.77l0.91-3.8l-10.29-2.74l0.92-4.36L507.94,310.33z
			 M493.76,312.93l-22.53-6.4l23.29,2.61L493.76,312.93z"/>
		<g>
			<polygon class="st0" points="147.53,292.07 147.87,295.1 103.52,300.92 103.07,296.89 			"/>
			<polygon class="st0" points="148.58,297.46 104.1,303.97 104.64,307.64 135.88,302.38 105.65,314.14 106.21,317.72 
				150.54,308.06 149.98,305.26 122.11,310.78 149.09,300.33 			"/>
			<polygon class="st0" points="102.95,295.18 124.22,284.99 147.42,290.51 147.08,287.48 129.28,283 146.96,282.3 146.86,279.42 
				101.84,280.87 101.94,284.65 119.42,283.56 102.62,291.29 			"/>
			<path class="st0" d="M128.26,330.45l-1.71-6.36l-3.29,0.91l0.81,2.94l-8.33,2.54c-1.28,0.27-2.74-0.37-3.09-1.64l-0.63-2.73
				c-0.43-1.6,1.03-2.08,2.38-2.46l31.44-8.1c2.14-0.44,2.88-0.44,3.65,2.37c0.62,2.27-0.69,2.97-2.39,3.38l-9.32,2.62l0.89,3.24
				l11.9-3.62c2.46-0.71,3.71-1.72,2.24-6.65c-1.23-4.89-2.24-5.59-5.27-4.82l-35.82,8.56c-2.92,0.8-4.37,1.9-3.58,5.38
				c0,0,1.02,5.48,4.24,5.34l-2.34,0.7l1.23,3.81L128.26,330.45z"/>
		</g>
		<path class="st0" d="M406.21,398.77l23.53,29.93c1.24,1.79,1.57,2.8,0.65,3.77l-2.14,1.67c-1.43,1.05-2.51-0.01-3.67-1.64
			l-22.63-30.49l-2.58,1.79l24,33.89c1.35,1.9,3.26,2.11,4.82,0.98l5.77-4.51c1.69-1.22,2.9-2.54,1.14-4.92l-26.66-32.28
			L406.21,398.77z"/>
		<path class="st0" d="M304.48,437.51c0.03-2.47-0.44-4.06-5.59-4.25c-5.02-0.4-6.11,0.99-6.26,3.45l-3.6,37.43
			c-0.15,2.8,2.1,3.87,4.9,4.01l5.48,0.23c2.8,0.15,4.18-0.97,4.33-3.77L304.48,437.51z M297.53,474.88l-2.83-0.25
			c-1.4-0.07-1.78-1.53-1.7-2.93l2.4-32.27c0.23-2.09,0.5-2.87,3.41-2.7c2.35,0.13,2.64,0.88,2.51,3.06l-1.15,32.69
			C300.09,473.89,298.94,474.95,297.53,474.88z"/>
		<path class="st0" d="M385,417.56c-1.19-2.16-2.38-3.32-6.95-0.95c-4.57,2.12-4.83,3.88-3.75,6.09l15.3,34.35
			c1.25,2.51,3.73,2.33,6.24,1.08l4.88-2.5c2.51-1.25,3.07-2.65,1.82-5.16L385,417.56z M397.35,453.51l-2.58,1.18
			c-1.26,0.63-2.15-0.43-2.77-1.69l-13.96-29.3c-0.83-1.94-0.97-2.74,1.64-4.03c2.11-1.04,2.73-0.53,3.7,1.43l14.68,29.02
			C398.68,451.38,398.61,452.88,397.35,453.51z"/>
		<polygon class="st0" points="314.41,458.5 314.29,454.6 311.14,454.76 310.73,437.21 314.65,437.13 314.52,433.54 307.75,433.71 
			307.67,478.7 311.48,478.65 311.19,458.53 		"/>
		<path class="st0" d="M341.95,450.72l-3.38-17.11c0,0-0.51-3.29-3.47-2.59l-8.5,1.49l5.29,44.29l4.14-0.6l-2.87-19.8l6.7-1.32
			C339.86,455.08,342.83,454.87,341.95,450.72z M336.69,451.78l-4.14,0.82l-2.25-17.26l2.75-0.52c1.34-0.27,2.31,0.12,2.47,1.06
			l2.48,13.64C338.02,449.52,338.33,451.48,336.69,451.78z"/>
		<polygon class="st0" points="358.1,471.93 357.3,468.6 352.71,469.72 348.9,453.59 352.04,452.81 351.22,449.27 348.11,450.01 
			344.08,432.65 347.68,431.63 346.85,428.39 340.19,430.09 349.45,474.09 		"/>
		<polygon class="st0" points="423.65,442.07 421.77,439.26 417.53,442.02 408.09,427.96 410.92,425.79 409.05,423.02 
			406.22,425.11 396.28,410.1 399.95,407.53 398.18,404.74 392.01,408.92 416.02,447.15 		"/>
		<polygon class="st0" points="414.76,447.85 412.94,444.82 408.8,447.18 387.98,411.49 385.33,413.01 407.16,452.24 		"/>
		<polygon class="st0" points="368.5,468.91 356,429.49 358.96,428.59 357.97,425.3 348.64,427.97 349.61,431.46 352.93,430.4 
			364.66,470.12 		"/>
		<polygon class="st0" points="452.69,417.05 420.77,385.44 418.3,387.68 431.42,407.2 413.45,392.7 410.76,395.08 440.02,429.13 
			442.98,426.45 424.43,405.16 446.44,423.46 430,399.52 449.88,419.88 		"/>
		<path class="st0" d="M377.49,446.79l6.67,16.4l3.81-1.46l-7.84-18.37c0,0-1.16-0.99-2.54-0.69c0.59-0.68,1.87-1.91,0.45-3.81
			l-6.29-14.8c0,0-1.11-3.71-3.91-2.51l-8.14,3.01l14.76,42.68l3.87-1.37l-7.01-19.02l3.88-1.57
			C376.58,444.78,377.03,445.71,377.49,446.79z M370.03,443.34l-6.01-16.28l3.12-1.27c0,0,1.48-1.14,2.2,0.85
			c0.73,1.98,5.12,12.73,5.12,12.73s0.84,1.87-0.72,2.44L370.03,443.34z"/>
		<path class="st0" d="M243.54,435.24l3.86-9.49c0.61-1.75,0.36-3.36-4.28-5.13c-4.18-2.09-5.29-1.15-6.47,0.94l-6.05,12.7
			c0,0-0.8,1.26,1.32,4.51l3.43,5.1c1.11,1.74,0.32,2.41-0.35,3.87l-4.37,9.97c-0.43,0.94-1.27,1.75-2.57,1.21l-2.79-1.41
			c-1.3-0.54-1.02-1.48-0.35-2.94l3.92-8.51l-3.31-1.61l-5.39,11.37c-1.08,2.59,0.57,4.24,2.22,4.94l5.56,2.49
			c2.59,1.08,4.54,0.19,5.62-2.4l5.26-13.1c0.77-2.11,1.12-3.47-0.22-5.26l-3.23-4.92c-1.98-2.79-0.93-3.55-0.93-3.55l3.82-8.43
			c0.98-2.02,1.91-2.35,3.68-1.57c2.06,0.91,2.44,1.33,1.41,3.75l-2.72,6.17L243.54,435.24z"/>
		<path class="st0" d="M189.77,382.59l-28.59,26.42c-1.42,1.4-2.33,1.97-3.28,0.93l-2.2-2.57c-0.94-1.04-0.71-1.88,0.78-3.21
			l29.57-25.55l-1.93-2.16l-31.74,26.44c-1.74,1.55-1.75,3.46-0.46,4.9l4.02,4.56c1.94,2.32,3.53,2.77,5.61,0.89l30.09-28.68
			L189.77,382.59z"/>
		<polygon class="st0" points="199.46,448.72 201.17,445.89 196.83,443.1 206.27,429.11 208.89,430.9 210.89,427.86 208.33,426.07 
			218.14,411.42 221.73,413.73 223.56,410.79 217.47,406.82 191.67,443.68 		"/>
		<polygon class="st0" points="251.45,471.44 262.77,431.16 266.68,432.17 267.47,428.89 257.05,426.08 255.97,429.48 
			259.74,430.49 247.76,470.25 		"/>
		<path class="st0" d="M219.28,440.5l-7.66,14.76l3.57,1.67l8.35-16.38c1.36-2.58,0-3.63-0.6-4.11c0.91,0.03,2.49,0.52,3.46-1.26
			c2.03-3.73,7.51-14.64,7.51-14.64s1.87-3.29-0.83-4.69l-7.5-4.02l-22.95,38.54l3.4,2.04l10.08-17.47l2.49,1.47
			C220.73,437.75,219.82,439.47,219.28,440.5z M217.9,431.68l8.62-15.12l3.14,1.47c1.64,0.96,0.42,2.21-0.12,3.25l-6.16,11.64
			c0,0-0.56,1.62-1.98,0.78L217.9,431.68z"/>
		<polygon class="st0" points="252.19,424.15 254.88,425.15 240.52,467.81 236.61,466.54 		"/>
		<polygon class="st0" points="203.87,396.37 206.1,398.35 177.66,433.18 174.85,430.71 		"/>
		<polygon class="st0" points="193.74,387.04 161.86,418.62 164.44,421.19 185.94,399.02 168.7,425 171.48,427.59 201.06,394.21 
			198.82,392.08 181.91,410.56 195.59,388.97 		"/>
		<polygon class="st0" points="280.6,431.43 277.25,430.95 271.83,448.03 272.78,430.13 269.31,429.42 268.6,454.73 264.2,474.29 
			268.12,474.99 271.88,455.54 		"/>
		<polygon class="st0" points="207.24,399.3 183.42,437.61 186.11,439.72 216.18,405.94 213.49,403.95 192.44,428.47 209.91,401.26 
					"/>
		<g>
			<path class="st0" d="M122.43,363.19l1.62,3.17l38.4-23.4l-1.51-3.25l-42.71,14.22l1.5,3.61l9.93-3.85l1.83,4.07L122.43,363.19z
				 M132.36,352.73l21.98-8.1l-20.36,11.61L132.36,352.73z"/>
			<polygon class="st0" points="130.01,377.33 131.74,380.54 170.26,357.25 168.58,354.79 149.99,365.65 147.34,360.85 
				166.23,350.64 165.1,348.05 125.07,368.57 126.81,372.03 144.39,362.41 147.19,367.33 			"/>
			<path class="st0" d="M175.02,371.23c0,0,3.46-1.29,1.06-5.07c-2.41-3.78-4.01-6.12-4.01-6.12l-37.98,24.09l5.86,8.56
				c0,0,1.96,3.15,5.11,0.63C148.22,390.79,175.02,371.23,175.02,371.23z M140.81,387.82l-1.79-2.58l32.35-21.47
				c0,0,1.35,1.97,2.19,3.21c0.84,1.23-1.38,2.21-1.79,2.67c-0.41,0.46-24.52,17.19-27.6,19.29
				C142.63,390,142.04,389.61,140.81,387.82z"/>
			<polygon class="st0" points="135.32,342.58 136.71,345.92 139.97,344.54 138.68,341.12 154.81,334.85 156.81,339.2 
				160.08,337.78 157.36,330.78 115.28,346.61 116.51,350.08 			"/>
		</g>
		<g>
			<polygon class="st0" points="296.5,196.28 291.35,199.02 293.11,211.28 297.62,209.77 			"/>
			<polygon class="st0" points="297.86,212.03 293.36,213.46 294.37,223.88 298.29,223.43 			"/>
			<polygon class="st0" points="298.4,193.04 295.99,175.3 306.58,173.67 306.54,192.6 			"/>
			<polygon class="st0" points="287.2,180.65 290.95,196.72 296.43,193.82 294,176.25 			"/>
			<polygon class="st0" points="298.63,195.21 299.75,209.21 306.54,209.06 306.54,194.84 			"/>
			<polygon class="st0" points="300.08,211.34 300.42,223.32 306.65,223.28 306.65,211.3 			"/>
			<polygon class="st0" points="318.6,196.28 323.75,199.02 321.98,211.28 317.48,209.77 			"/>
			<polygon class="st0" points="317.24,212.03 321.73,213.46 320.72,223.88 316.81,223.43 			"/>
			<polygon class="st0" points="316.69,193.04 319.1,175.3 308.55,173.67 308.55,192.6 			"/>
			<polygon class="st0" points="327.89,180.65 324.14,196.72 318.66,193.82 321.1,176.25 			"/>
			<polygon class="st0" points="316.47,195.21 315.35,209.21 308.55,209.06 308.55,194.84 			"/>
			<polygon class="st0" points="315.13,211.34 314.79,223.32 308.55,223.28 308.55,211.3 			"/>
			<path class="st0" d="M296.72,337.69l-3.58,3.29h28.86l-3.58-3.29h-0.26c0-0.78,0-0.78,0-1.04c0-5.09,1.48-7.1,2.35-7.99V226.12
				l-3.81-0.43v112h-4.14c0-0.6,0-1.23,0-1.88c0-4.15,0.99-6.32,2.05-7.6l-0.04-102.66l-6.01-0.04l0.02,102.6
				c1.19,1.21,2.41,3.42,2.41,8.02c0,0.56,0,1.03,0,1.55h-6.76c0-0.52,0-0.99,0-1.55c0-4.61,1.22-6.82,2.41-8.02l-0.09-102.6
				l-5.9,0.04l-0.04,102.66c1.06,1.28,2.05,3.45,2.05,7.6c0,0.66,0,1.28,0,1.88h-4.25v-112l-3.81,0.43v102.54
				c0.87,0.89,2.35,2.9,2.35,7.99c0,0.26,0,0.27,0,1.04H296.72z"/>
			<g>
				<path class="st0" d="M335.62,322.09c0,0,0,2.39-1.79,2.69c0,0,5.67,4.48,5.52,14.93C339.35,339.71,342.19,328.51,335.62,322.09z
					"/>
				<g>
					<path class="st0" d="M356.41,322.33c0.01,0.61-0.26,1.74-2.39,1.74c-2.35,0-2.46-2.13-2.46-2.13c-0.67,1.57-1.57,2.13-2.92,2.1
						c-1.45,0.03-2.27-1.58-2.72-2.03l-0.46,1.73c-0.26,0.45-0.68,0.85-1.34,0.96c0,0,5.67,4.48,5.52,14.93c0,0,1.76-7-0.75-13.11
						c2.77,0.01,2.66-2.23,2.66-2.23s0.22,1.9,2.69,1.9C356.55,326.2,356.5,323.35,356.41,322.33z"/>
					<path class="st0" d="M356.37,321.94c0,0,0.02,0.17,0.04,0.39C356.41,322.1,356.37,321.94,356.37,321.94z"/>
				</g>
				<g>
					<path class="st0" d="M383.63,322.44c0.01,0.61-0.26,1.74-2.39,1.74c-2.35,0-2.46-2.13-2.46-2.13c-0.67,1.57-1.57,2.13-2.92,2.1
						c-1.45,0.03-2.26-1.58-2.72-2.03l-0.46,1.73c-0.26,0.45-0.67,0.85-1.34,0.96c0,0,5.67,4.48,5.53,14.93c0,0,1.76-7-0.75-13.11
						c2.77,0,2.65-2.24,2.65-2.24s0.22,1.9,2.69,1.9C383.76,326.31,383.72,323.46,383.63,322.44z"/>
					<path class="st0" d="M383.59,322.05c0,0,0.02,0.17,0.04,0.39C383.62,322.21,383.59,322.05,383.59,322.05z"/>
				</g>
				<path class="st0" d="M363.88,322.28c0,0-0.34,7.84-5.94,14.45l1.34,3.25c0,0,4.59-5.49,4.59-12.88c0,0,0.78,8.4,5.82,12.88
					l0.78-3.14C365.11,331.01,363.88,322.28,363.88,322.28z"/>
			</g>
			<g>
				<path class="st0" d="M242.77,330.1c-0.43-0.53-0.64-1.32-0.64-2.37c0-1.25,0.34-2.14,1-2.66c0.42-0.34,0.93-0.5,1.53-0.5
					c0.82,0,1.46,0.29,1.93,0.88c0.47,0.59,0.7,1.38,0.7,2.39c0,1.25-0.4,2.13-1.19,2.63c-0.42,0.28-0.88,0.42-1.36,0.42
					C243.86,330.89,243.2,330.63,242.77,330.1z M240.23,332.27c1.09,0.98,2.35,1.46,3.76,1.46c0.96,0,1.76-0.2,2.41-0.59
					c0.36-0.21,0.7-0.52,1.02-0.92c-0.07,1.35-0.23,2.37-0.48,3.07c-0.46,1.27-1.27,1.91-2.43,1.91c-0.6,0-1.07-0.16-1.43-0.49
					c-0.36-0.33-0.58-0.75-0.66-1.27h-3.48c0.16,1.51,0.76,2.66,1.82,3.45c1.06,0.79,2.26,1.18,3.59,1.18c2.79,0,4.71-1.37,5.76-4.1
					c0.55-1.44,0.82-3.23,0.82-5.38c0-2.21-0.29-4-0.86-5.35c-1-2.39-2.86-3.59-5.56-3.59c-1.75,0-3.18,0.59-4.28,1.77
					c-1.1,1.18-1.65,2.72-1.65,4.62C238.59,329.88,239.13,331.29,240.23,332.27z"/>
				<path class="st0" d="M268.96,334.18h3.43c0,0.71,0.11,1.3,0.34,1.76c0.42,0.86,1.2,1.29,2.31,1.29c0.69,0,1.28-0.23,1.79-0.7
					c0.51-0.47,0.77-1.14,0.77-2.03c0-1.17-0.47-1.95-1.42-2.34c-0.54-0.22-1.39-0.33-2.55-0.33v-2.5c1.14-0.02,1.93-0.13,2.38-0.33
					c0.77-0.34,1.16-1.04,1.16-2.08c0-0.68-0.2-1.23-0.59-1.66c-0.39-0.42-0.95-0.64-1.67-0.64c-0.82,0-1.43,0.26-1.82,0.78
					c-0.39,0.52-0.57,1.22-0.56,2.09h-3.26c0.03-0.88,0.18-1.72,0.45-2.51c0.29-0.69,0.74-1.33,1.35-1.92
					c0.46-0.42,1-0.74,1.63-0.96c0.63-0.22,1.4-0.33,2.31-0.33c1.7,0,3.07,0.44,4.11,1.32c1.04,0.88,1.56,2.06,1.56,3.53
					c0,1.04-0.31,1.93-0.93,2.64c-0.39,0.45-0.8,0.75-1.22,0.92c0.32,0,0.78,0.27,1.37,0.82c0.89,0.82,1.33,1.95,1.33,3.38
					c0,1.5-0.52,2.82-1.56,3.96c-1.04,1.14-2.58,1.71-4.62,1.71c-2.51,0-4.26-0.82-5.24-2.46
					C269.31,336.74,269.02,335.6,268.96,334.18z"/>
				<path class="st0" d="M258.27,331.41c0.46-0.36,0.98-0.54,1.58-0.54c0.73,0,1.35,0.28,1.86,0.83c0.51,0.55,0.76,1.35,0.76,2.38
					c0,0.93-0.22,1.69-0.67,2.27c-0.45,0.58-1.06,0.88-1.83,0.88c-0.79,0-1.45-0.3-1.96-0.91c-0.52-0.6-0.77-1.38-0.77-2.34
					C257.24,332.8,257.58,331.95,258.27,331.41z M263.98,322.95c-0.98-0.85-2.29-1.27-3.94-1.27c-1.14,0-2.13,0.26-2.95,0.78
					c-0.82,0.52-1.49,1.21-1.99,2.07c-0.59,1-0.98,2.26-1.19,3.77c-0.11,0.85-0.17,1.95-0.17,3.31c0,2.31,0.41,4.2,1.24,5.66
					c1.06,1.87,2.71,2.81,4.95,2.81c2.08,0,3.62-0.63,4.61-1.9c0.99-1.27,1.48-2.73,1.48-4.38c0-1.67-0.51-3.03-1.51-4.1
					c-1.01-1.07-2.3-1.61-3.88-1.61c-0.74,0-1.39,0.12-1.96,0.36c-0.57,0.24-1.08,0.61-1.51,1.13c0.1-1.37,0.28-2.41,0.54-3.11
					c0.48-1.27,1.29-1.91,2.43-1.91c0.76,0,1.33,0.28,1.7,0.83c0.22,0.34,0.33,0.66,0.33,0.94h3.48
					C265.51,324.92,264.96,323.79,263.98,322.95z"/>
				<path class="st0" d="M236.64,337h-2.13v-14.68h-2.9c0,0.16-0.05,0.39-0.13,0.71c-0.16,0.53-0.38,0.96-0.69,1.27
					c-0.44,0.47-1.01,0.78-1.72,0.93c-0.19,0.04-0.46,0.07-0.76,0.11v2.49h2.63V337h-2.56v2.97h8.26V337z"/>
			</g>
			<path class="st0" d="M368.78,387.55l-19.7-4.67l16.63-1.37l-13.33-27.34c-14.81,4.22-27.22-4.75-32.07-5.32
				c-5.69-0.86-9.02,1.42-13.38,4.98c-3.99-4.21-9.4-6.69-15.04-4.9c-10.14,2.05-16.29,8.17-30.87,4.67l-12.87,26.77l16.97,2.73
				l-19.85,3.05l-4.76,9.26l59-7.86c1.37,2.16,4.33,4.56,7.4,4.33c2.51-0.46,4.9-1.82,6.27-4.1l60.37,8.06L368.78,387.55z
				 M306.7,387.44c-2.33-0.2-3.42-2.84-3.36-3.05c-0.29-2.46,2.66-10.1,3.36-13.64c0.7,3.53,3.73,11.5,3.19,13.77
				C309.95,384.73,309.03,387.24,306.7,387.44z"/>
		</g>
	</g>
</g>
</svg>
