<?xml version="1.0" encoding="UTF-8"?>
<svg xmlns="http://www.w3.org/2000/svg" xmlns:xlink="http://www.w3.org/1999/xlink" id="Layer_1" data-name="Layer 1" version="1.1" viewBox="0 0 1417.3 566.9">
  <defs>
    <style>
      .cls-1 {
        fill: #4abfee;
      }

      .cls-1, .cls-2, .cls-3, .cls-4, .cls-5, .cls-6, .cls-7, .cls-8 {
        stroke-width: 0px;
      }

      .cls-2 {
        fill: #0fa47e;
      }

      .cls-3 {
        fill: url(#linear-gradient);
      }

      .cls-4 {
        fill: #5757a6;
      }

      .cls-5 {
        fill: #2d59a9;
      }

      .cls-6 {
        fill: #223b71;
      }

      .cls-7 {
        fill: #1e4176;
      }

      .cls-8 {
        fill: #4aba7d;
      }
    </style>
    <linearGradient id="linear-gradient" x1="1084.1" y1="359.2" x2="1084.1" y2="239.3" gradientUnits="userSpaceOnUse">
      <stop offset=".1" stop-color="#b28d6e"></stop>
      <stop offset=".3" stop-color="#cdb29b"></stop>
      <stop offset=".5" stop-color="#e2cfbe"></stop>
      <stop offset=".7" stop-color="#f2e4d8"></stop>
      <stop offset=".9" stop-color="#fbf1e7"></stop>
      <stop offset="1" stop-color="#fff6ed"></stop>
    </linearGradient>
  </defs>
  <g>
    <g>
      <polygon class="cls-6" points="690 252.1 683.6 245.8 676.9 252.5 683.6 259.3 690 252.9 696.4 259.3 703.1 252.5 696.4 245.8 690 252.1"></polygon>
      <polygon class="cls-6" points="532.2 185.1 538.6 191.5 545.3 184.8 538.6 178 532.2 184.4 525.9 178 519.1 184.8 525.9 191.5 532.2 185.1"></polygon>
      <path class="cls-6" d="M666.8,190.2h-5.5c-2.9,0-3.6-1.4-3.6-3.2s1.1-3,3.8-3,2.4.2,3.8.4v-4c-1.8-.2-3.7-.5-5.3-.5-5.1,0-8.2,2-8.2,6.2s.4,3,1.4,4.1h-2.8v3.9h16.3v-3.9Z"></path>
      <path class="cls-6" d="M531.8,237.8c4.9,0,9.6-1.5,14.3-3.9,2,2.2,5,3.4,8.6,3.4h96.4c5.8,0,9.9-3.2,11.5-6.6,1,3.3,4.3,6.6,8.5,6.6h16.9c5.8,0,9.9-3.2,11.5-6.6,1,3.3,4.3,6.6,8.5,6.6h53.2c6.8,0,11.7-2.4,14.8-6.6h0c1,3.4,4.3,6.6,8.5,6.6h8.1c7.7,0,13.9-6.2,13.9-13.9v-45.7h-11.7v46.6c0,1.7-1.4,3.1-3.1,3.1h-6.4c-3.8,0-5.5-2.3-5.5-6.2h0c.3-1.8.5-3.8.5-5.8,0-14-9.7-22-21-22.1-8.2,0-14.5,4.3-20,9.8h-1.5c-9.1,0-17,4.7-17,14.6s1.3,7.3,4.3,9.6h0s-6.7,0-6.7,0h-10.7c-3.8,0-5.5-2.3-5.5-6.2v-22.2h-11.7v25.2c0,1.7-1.4,3.1-3.1,3.1h-16.5c-3.8,0-5.5-2.3-5.5-6.2v-22.2h-11.7v25.2c0,1.7-1.4,3.1-3.1,3.1h-35s-55.7,0-55.7,0c-2.8,0-4.5-2-4.5-4.8v-29.5h-11.7v4.3c-2.3-.2-4.4-.5-6.5-.5-12.1,0-21.7,6.4-21.7,17.8v6.1c0,10,6.3,16.8,16.8,16.8ZM757.7,203.3c5.6,0,10.7,4.3,10.7,12.8s-3,11.5-9.3,11.5h-4.1c.3-2,.3-3.8.3-5.7,0-6.8-2.2-12-6.4-15.2,2.6-1.9,5.4-3.4,8.8-3.4ZM737.9,212.2c5.5,0,7.2,4.6,7.2,9.9s-.2,3.7-.6,5.5h-5.6c-4.9,0-7.9-3.2-7.9-7.9s2.5-7.5,7-7.5ZM526.8,215.5c0-5.9,4.5-8.6,10.5-8.6s3.9.3,6,.6v18.5c-2.7,1.2-5.3,2.1-8,2.1-5.1,0-8.5-3.3-8.5-7.5v-5Z"></path>
      <rect class="cls-6" x="817.6" y="177.8" width="11.7" height="59.5"></rect>
      <polygon class="cls-6" points="392.2 343.2 385.9 336.8 379.1 343.6 385.9 350.3 392.2 344 398.6 350.3 405.3 343.6 398.6 336.8 392.2 343.2"></polygon>
      <path class="cls-6" d="M431.7,289.8c-11.8,0-19.1,8.1-19.1,19.8s6.9,18.6,18.2,18.6h8.6c-.5,7.8-6.6,10.1-14.4,10.1s-4.3-.2-6.6-.4v9.6c2.8.3,5.2.5,7.7.4,14.8-.2,25.1-7.5,25.1-22.1v-15.2c0-12.3-7.2-20.8-19.5-20.8ZM439.4,318.7h-8c-5.1,0-7.2-4.2-7.2-9.3s2.2-9.8,7.5-9.8,7.7,4.6,7.7,10.1v9Z"></path>
      <rect class="cls-6" x="360.6" y="271.3" width="9.8" height="9.8" transform="translate(-88.2 339.3) rotate(-45)"></rect>
      <rect class="cls-6" x="318.4" y="338.7" width="9.8" height="9.8" transform="translate(-148.3 329.2) rotate(-45)"></rect>
      <path class="cls-6" d="M387.5,328.4h2.8c7.7,0,13.9-6.2,13.9-13.9v-24.2h-11.7v25.2c0,1.7-1.4,3.1-3.1,3.1h-12.5c-3.8,0-5.5-2.3-5.5-6.2v-22.2h-11.7v25.2c0,1.7-1.4,3.1-3.1,3.1h-16.6c-3.8,0-5.5-2.3-5.5-6.2v-22.2h-11.7v25.2c0,1.7-1.4,3.1-3.1,3.1h-186.6c3.4-2.9,5.2-7.2,5.2-12.3,0-11-8.5-16.7-19.6-16.7s-12.5,1.9-18.3,5.1l-3.4,9.3,10.6,17.4c-8.2,1.6-13.5,7.5-13.5,16.2s10.4,16.7,22.7,16.7,8.6-.4,13.2-1.1v-9.4c-4,.5-7.8.8-11.9.8-6.5,0-12.2-1.3-12.2-7.8s4.3-8.4,9.9-8.4h204.8c5.8,0,9.9-3.2,11.5-6.6,1,3.3,4.3,6.6,8.5,6.6h16.9c5.8,0,9.9-3.2,11.5-6.6,1,3.3,4.3,6.6,8.5,6.6h10.1ZM118.6,318.7h-1.4l-9.8-16.1c2.9-1.9,5.9-3.2,9.5-3.2,5.5,0,9.7,3.1,9.7,8.9s-3.3,8.5-8,10.4Z"></path>
      <rect class="cls-6" x="740.5" y="338.7" width="9.8" height="9.8" transform="translate(-24.6 627.7) rotate(-45)"></rect>
      <rect class="cls-6" x="691.5" y="338.7" width="9.8" height="9.8" transform="translate(-39 593.1) rotate(-45)"></rect>
      <path class="cls-6" d="M817.6,315.5c0,1.7-1.4,3.1-3.1,3.1h-8.1c-3.8,0-5.5-2.3-5.5-6.2v-43.6h-11.7v46.6c0,1.7-1.4,3.1-3.1,3.1h-11.6c-3.8,0-5.5-2.3-5.5-6.2v-8.6c0-12.9-9.4-19.6-22.2-19.6s-16.4,1-22.1,1.9v9.4c5.1-.8,15-1.6,20.2-1.5,7.1,0,12.3,3.2,12.3,10.2v11.4c0,1.7-1.4,3.1-3.1,3.1h-40.9c-3.8,0-5.5-2.3-5.5-6.2v-22.2h-11.7v25.2c0,1.7-1.4,3.1-3.1,3.1h-16.5c-3.8,0-5.5-2.3-5.5-6.2v-22.2h-11.7v25.2c0,1.7-1.4,3.1-3.1,3.1h-127.5c-3.8,0-5.5-2.3-5.5-6.2v-43.6h-11.7v56.9c0,6.9-4.7,11-11.6,11s-11.7-5.6-11.7-14.2.8-7.7,1.2-11.6h-11.7c-.6,4.2-1.3,9.5-1.3,13.6,0,13.9,9.9,21.5,23.7,21.5s22.2-6.5,22.9-18.2c0-1.2,0-3.9,0-6,1.1,3.3,4.4,6.5,8.5,6.5h70.5s55,0,55,0c5.8,0,9.9-3.2,11.5-6.6,1,3.3,4.3,6.6,8.5,6.6h16.9c5.8,0,9.9-3.2,11.5-6.6,1,3.3,4.3,6.6,8.5,6.6h41.2c5.8,0,9.9-3.2,11.5-6.6,1,3.3,4.3,6.6,8.5,6.6h12c5.8,0,9.9-3.2,11.5-6.6,1,3.3,4.3,6.6,8.5,6.6h8.6c7.7,0,13.9-6.2,13.9-13.9v-45.7h-11.7v46.6Z"></path>
      <polygon class="cls-6" points="658.7 343.2 652.3 336.8 645.6 343.6 652.3 350.3 658.7 344 665.1 350.3 671.8 343.6 665.1 336.8 658.7 343.2"></polygon>
      <polygon class="cls-6" points="112.1 185.1 118.5 191.5 125.2 184.8 118.5 178 112.1 184.4 105.7 178 99 184.8 105.7 191.5 112.1 185.1"></polygon>
      <rect class="cls-6" x="477" y="177.8" width="11.7" height="59.5"></rect>
      <path class="cls-6" d="M454.1,224.5c0,1.7-1.4,3.1-3.1,3.1h-11c-3.8,0-5.5-2.3-5.5-6.2h0c.2-1,.3-2,.3-3,0-11.3-8.1-19-19.7-19s-19.7,7.6-19.7,19,1.3,7.9,1.8,9.1h-10.4c-3.8,0-5.5-2.3-5.5-6.2v-43.6h-11.7v46.6c0,1.7-1.4,3.1-3.1,3.1h-10.9c-3.8,0-5.5-2.3-5.5-6.2v-1.5c0-10.5-8.5-18.9-18.9-18.9h-46.9l24-15.8-5.4-7.8-35.2,24.7,3.3,8.6h59.5c4.4,0,7.9,3.6,7.9,7.9v5.7c0,1.7-1.4,3.1-3.1,3.1h-79.3c-3.8,0-5.5-2.3-5.5-6.2v-22.2h-11.7v25.2c0,1.7-1.4,3.1-3.1,3.1h-96.1c-2.8,0-4.5-2-4.5-4.8v-29.5h-11.7v4.3c-2.3-.2-4.4-.5-6.5-.5-12.1,0-21.7,6.4-21.7,17.8v6.2c0,10,6.3,16.8,16.8,16.8s9.6-1.5,14.3-3.9c2,2.2,5,3.4,8.6,3.4h101.8c5.8,0,9.9-3.2,11.5-6.6,1,3.3,4.3,6.6,8.5,6.6h79.6c5.8,0,9.9-3.2,11.5-6.6,1,3.3,4.3,6.6,8.5,6.6h11.3c5.8,0,9.9-3.2,11.5-6.6,1,3.3,4.3,6.6,8.5,6.6h29.9c5.3,0,9.8-2.8,12.8-6.6,1,3.3,4.3,6.6,8.5,6.6h13.3c7.7,0,13.9-6.2,13.9-13.9v-45.7h-11.7v46.6ZM123.1,226c-2.7,1.2-5.3,2.1-8,2.1-5.1,0-8.5-3.3-8.5-7.5v-5c0-5.9,4.5-8.6,10.5-8.6s3.9.3,6,.6v18.5ZM423,219.7c0,4.3-3.5,7.9-7.9,7.9h-6.8s-1.2-3.6-1.2-8,2.3-10.3,7.9-10.4h.1c5.6,0,7.9,4.2,7.9,10.4h0Z"></path>
      <polygon class="cls-6" points="238.3 252.9 244.7 259.3 251.4 252.5 244.7 245.8 238.3 252.1 231.9 245.8 225.2 252.5 231.9 259.3 238.3 252.9"></polygon>
    </g>
    <g>
      <path class="cls-6" d="M114.2,412.5l-6.1-9.2c-1-1.4-2.3-2.3-4-2.3h-3v11.5h-6.2v-30.6h12.7c6.3,0,11.4,3,11.4,9.2s-2.8,7.7-7.1,8.9c1.7,1.2,3,2.7,4.2,4.4l5.3,8.2h-7.2ZM107,396.4c3.2,0,5.9-1.6,5.7-4.8-.1-3.1-2.7-4.6-5.7-4.6h-5.9v9.4h5.9Z"></path>
      <path class="cls-6" d="M145.6,401.5c0,7-4.8,11.5-11.8,11.4-7,0-11.7-4.5-11.7-11.4s4.8-11.3,11.8-11.4c6.9,0,11.8,4.4,11.8,11.4ZM139.4,401.5c0-3.6-2-6.2-5.5-6.2s-5.5,2.7-5.5,6.3,1.9,6.2,5.5,6.2,5.5-2.7,5.5-6.3Z"></path>
      <path class="cls-6" d="M153.7,390.8l5.9,14.8,5.1-14.8h5.9l-11.6,30.9h-5.5l3.4-9.3-10.1-21.7h6.9Z"></path>
      <path class="cls-6" d="M194.6,390.7v21.8h-5.9v-3.4c-1.6,2.3-4,3.7-7.4,3.7-6.3,0-9.4-5.1-9.4-11.4s3-11.4,9.4-11.4,5.8,1.4,7.4,3.8v-3.1h5.9ZM188.3,401.5h0c0-3.6-1.6-6.4-5.1-6.4s-5.1,2.8-5.1,6.3,1.6,6.4,5.1,6.4,5-2.8,5-6.3Z"></path>
      <path class="cls-6" d="M205.4,381.4v31.2h-5.9v-31.2h5.9Z"></path>
      <path class="cls-6" d="M242.4,383.2v4.6l-.5.4c-2.5-1-4.9-1.7-7.5-1.7-6.4,0-10.2,4.3-10.2,10.7s4,10.8,10.5,10.8,5.1-.7,7.4-2l.5.4v4.8c-2.8,1.1-5.5,1.8-8.5,1.8-9.8,0-16.4-6.2-16.4-16s5.8-15.5,15.1-15.5,6.5.5,9.6,1.8Z"></path>
      <path class="cls-6" d="M268.7,401.5c0,7-4.8,11.5-11.8,11.4-7,0-11.7-4.5-11.7-11.4s4.8-11.3,11.8-11.4c6.9,0,11.8,4.4,11.8,11.4ZM262.4,401.5c0-3.6-2-6.2-5.5-6.2s-5.5,2.7-5.5,6.3,1.9,6.2,5.5,6.2,5.5-2.7,5.5-6.3Z"></path>
      <path class="cls-6" d="M307.5,399.6v12.9h-5.9v-11.4c0-3.2-.9-5.9-4.2-5.9s-4.4,3.6-4.5,7.5v9.8h-5.9v-11.4c0-3.2-.9-5.9-4.2-5.9s-4.4,3.6-4.5,7.5v9.8h-5.9v-21.8h5.6v3.5c1.4-2.5,3.7-4.1,7.1-4.1s6,2,7.1,4.9c1.4-2.9,3.8-4.9,7.5-4.9,5.5,0,7.8,4.2,7.8,9.5Z"></path>
      <path class="cls-6" d="M347.1,399.6v12.9h-5.9v-11.4c0-3.2-.9-5.9-4.2-5.9s-4.4,3.6-4.5,7.5v9.8h-5.9v-11.4c0-3.2-.9-5.9-4.2-5.9s-4.4,3.6-4.5,7.5v9.8h-5.9v-21.8h5.6v3.5c1.4-2.5,3.7-4.1,7.1-4.1s6,2,7.1,4.9c1.4-2.9,3.8-4.9,7.5-4.9,5.5,0,7.8,4.2,7.8,9.5Z"></path>
      <path class="cls-6" d="M379.2,391.1v4.9l-.3.2c-2.6-.5-5-1-7.3-1s-4.1.4-4.1,1.6,2.7,1.8,5.2,2.3c4.4.9,8.1,2.5,8.1,6.9s-4.8,6.9-10.6,6.9-5.7-.3-8.4-1.3v-4.8l.3-.2c2.5.8,5,1.2,7.8,1.2s4.5-.5,4.5-1.9-2.8-2-5.2-2.5c-4.4-1-8-2.5-8-6.6s4.7-6.6,10.3-6.6,5.2.4,7.7,1Z"></path>
      <path class="cls-6" d="M401.4,391.1v4.9l-.3.2c-2.6-.5-5-1-7.3-1s-4.1.4-4.1,1.6,2.7,1.8,5.2,2.3c4.4.9,8.1,2.5,8.1,6.9s-4.8,6.9-10.6,6.9-5.7-.3-8.4-1.3v-4.8l.3-.2c2.5.8,5,1.2,7.8,1.2s4.5-.5,4.5-1.9-2.8-2-5.2-2.5c-4.4-1-8-2.5-8-6.6s4.7-6.6,10.3-6.6,5.2.4,7.7,1Z"></path>
      <path class="cls-6" d="M439.8,401.5c0,7-4.8,11.5-11.8,11.4-7,0-11.7-4.5-11.7-11.4s4.8-11.3,11.8-11.4c6.9,0,11.8,4.4,11.8,11.4ZM433.5,401.5c0-3.6-2-6.2-5.5-6.2s-5.5,2.7-5.5,6.3,1.9,6.2,5.5,6.2,5.5-2.7,5.5-6.3Z"></path>
      <path class="cls-6" d="M449,390.7v3.6c1.4-2.5,3.7-4.1,7.1-4.1,5.5,0,7.8,4.2,7.8,9.5v12.9h-5.9v-11.4c0-3.2-.9-5.9-4.1-5.9s-4.6,4.4-4.6,8.8h0s0,8.5,0,8.5h-5.9v-21.8h5.6Z"></path>
      <path class="cls-6" d="M474.8,390.9h3.2v-3.3c0-4.7,3.6-7.3,8.3-7.3s3.9.4,5.7,1.3v4.5s-.2.3-.2.3c-1.4-.5-2.7-.9-4.2-.9-2.2,0-3.6,1.3-3.6,3.6v1.9h6.8v5.1h-6.8v16.5h-5.9v-16.5h-3.2v-5.1Z"></path>
      <path class="cls-6" d="M515.5,401.5c0,7-4.8,11.5-11.8,11.4-7,0-11.7-4.5-11.7-11.4s4.8-11.3,11.8-11.4c6.9,0,11.8,4.4,11.8,11.4ZM509.3,401.5c0-3.6-2-6.2-5.5-6.2s-5.5,2.7-5.5,6.3,1.9,6.2,5.5,6.2,5.5-2.7,5.5-6.3Z"></path>
      <path class="cls-6" d="M524.7,390.7v3.7c1.9-3.1,4.8-4.5,8.6-4.3v5.2c-.6-.1-1.2-.2-1.8-.2-3.6,0-6.4,1.9-6.4,5.8v11.6h-5.9v-21.8h5.5Z"></path>
      <path class="cls-6" d="M558.4,381.9v21.7c0,5.8-4,9.4-9.9,9.4s-4-.4-6.1-.9v-4.5l.5-.4c1.3.4,2.6.7,3.9.7,3.2,0,5.1-2.1,5.1-5.2v-20.7h6.4Z"></path>
      <path class="cls-6" d="M578.2,412.5v-3.4c-1.3,2.3-3.7,3.7-7.2,3.7-5.6,0-8.7-3.7-8.7-9.4v-12.8h5.9v11.4c0,3.2,1.3,5.7,4.5,5.7s5-3.2,5-7h0s0-10.1,0-10.1h5.9v21.8h-5.6Z"></path>
      <path class="cls-6" d="M611,401.5c0,6.3-3,11.4-9.4,11.4s-5.8-1.4-7.3-3.8v3.3h-1.7s-3.9,0-3.9,0v-31.2h5.9v12c1.6-2.1,3.9-3.3,7-3.3,6.3,0,9.4,5.1,9.4,11.4ZM604.8,401.5c0-3.5-1.6-6.3-5.1-6.3s-5.1,2.9-5.1,6.3,1.6,6.3,5,6.3,5.1-2.9,5.1-6.3Z"></path>
      <path class="cls-6" d="M636.1,390.7v21.8h-5.9v-3.4c-1.6,2.3-4,3.7-7.4,3.7-6.3,0-9.4-5.1-9.4-11.4s3-11.4,9.4-11.4,5.8,1.4,7.4,3.8v-3.1h5.9ZM629.9,401.5h0c0-3.6-1.6-6.4-5.1-6.4s-5.1,2.8-5.1,6.3,1.6,6.4,5.1,6.4,5-2.8,5-6.3Z"></path>
      <path class="cls-6" d="M647,390.7v21.8h-5.9v-21.8h5.9ZM647.7,383.8l-3.7,3.7-3.7-3.7,3.7-3.7,3.7,3.7Z"></path>
      <path class="cls-6" d="M657.8,381.4v31.2h-5.9v-31.2h5.9Z"></path>
      <path class="cls-6" d="M697.9,412.5h-7.3l-2.3-2.1c-2.7,1.8-5.7,2.8-8.7,2.8-5.7,0-9.4-3.3-9.4-7.7s2.3-5.7,5-7.1c-1.8-1.8-3-4-3-6.5,0-4,3.6-7.4,8.6-7.4s8.4,3,8.4,7.1-2.9,5.9-5.9,7.5l5.2,4.8c1.2-1.7,1.9-3.8,1.9-6.2h5.4c0,3.6-1.5,6.9-3.7,9.5l5.8,5.4ZM684.7,407.1l-6.2-5.7c-1.5.9-2.6,2-2.6,3.5s1.7,3.3,4.2,3.3,3.2-.4,4.6-1.1ZM680.2,396c2.3-1.1,4.1-2.2,4.1-4.1s-1.5-2.9-3.3-2.9-3.4,1.5-3.4,3,1,2.4,2.6,4Z"></path>
      <path class="cls-6" d="M733.9,381.9l-9.8,17.6v13h-6.4v-13l-10.7-17.6h7.5l6.8,12.2,6.4-12.2h6.2Z"></path>
      <path class="cls-6" d="M752.5,390.7v21.8h-5.9v-3.4c-1.6,2.3-4,3.7-7.4,3.7-6.3,0-9.4-5.1-9.4-11.4s3-11.4,9.4-11.4,5.8,1.4,7.4,3.8v-3.1h5.9ZM746.3,401.5h0c0-3.6-1.6-6.4-5.1-6.4s-5.1,2.8-5.1,6.3,1.6,6.4,5.1,6.4,5-2.8,5-6.3Z"></path>
      <path class="cls-6" d="M763,390.7v3.6c1.4-2.5,3.7-4.1,7.1-4.1,5.5,0,7.8,4.2,7.8,9.5v12.9h-5.9v-11.4c0-3.2-.9-5.9-4.1-5.9s-4.6,4.4-4.6,8.8h0s0,8.5,0,8.5h-5.9v-21.8h5.6Z"></path>
      <path class="cls-6" d="M804.7,401.5c0,6.3-3,11.4-9.4,11.4s-5.8-1.4-7.3-3.8v3.3h-1.7s-3.9,0-3.9,0v-31.2h5.9v12c1.6-2.1,3.9-3.3,7-3.3,6.3,0,9.4,5.1,9.4,11.4ZM798.5,401.5c0-3.5-1.6-6.3-5.1-6.3s-5.1,2.9-5.1,6.3,1.6,6.3,5,6.3,5.1-2.9,5.1-6.3Z"></path>
      <path class="cls-6" d="M823.8,412.5v-3.4c-1.3,2.3-3.7,3.7-7.2,3.7-5.6,0-8.7-3.7-8.7-9.4v-12.8h5.9v11.4c0,3.2,1.3,5.7,4.5,5.7s5-3.2,5-7h0s0-10.1,0-10.1h5.9v21.8h-5.6Z"></path>
      <g>
        <rect class="cls-6" x="406.6" y="390.7" width="5.9" height="21.8"></rect>
        <rect class="cls-6" x="407" y="381.2" width="5.3" height="5.3" transform="translate(-151.4 402) rotate(-45)"></rect>
      </g>
      <g>
        <rect class="cls-6" x="351.5" y="390.7" width="5.9" height="21.8"></rect>
        <rect class="cls-6" x="351.8" y="381.2" width="5.3" height="5.3" transform="translate(-167.6 363) rotate(-45)"></rect>
      </g>
    </g>
  </g>
  <g>
    <g>
      <path class="cls-1" d="M1323.4,296.4v54.4c0,6-3.8,11.3-9.5,13.2l-9.7,3.2-97.3-121.1,107.2,37.2c5.6,1.9,9.3,7.2,9.3,13.1Z"></path>
      <polygon class="cls-5" points="1206.9 246.2 1304.3 367.2 1136.9 423.1 1136.9 221.9 1206.9 246.2"></polygon>
      <polygon class="cls-4" points="1136.9 159 1206.9 246.2 1136.9 221.9 1136.9 159"></polygon>
      <polygon class="cls-6" points="1136.9 221.9 1136.9 423.1 1068.8 405.3 1031.2 352.2 1031.2 185.2 1031.2 185.2 1031.2 185.2 1136.9 221.9"></polygon>
      <polygon class="cls-7" points="1136.9 159 1136.9 221.9 1031.2 185.2 1136.9 159 1136.9 159"></polygon>
      <path class="cls-4" d="M1136.9,159l-105.7,26.2h0s-100.7,25-100.7,25l-55.6-78.5c-5.9-8.3,0-19.7,10.2-19.7h204c6.3,0,12.3,2.9,16.2,7.8l31.6,39.3Z"></path>
      <polygon class="cls-5" points="1136.9 423.1 1092 438 1068.8 405.3 1136.9 423.1"></polygon>
      <path class="cls-1" d="M1068.8,405.3l23.2,32.8-44.4,14.8c-8.1,2.7-16.4-3.3-16.4-11.8v-45.5l37.6,9.8Z"></path>
      <polygon class="cls-2" points="1031.2 352.2 1068.8 405.3 1031.2 395.4 1031.2 352.2"></polygon>
      <path class="cls-8" d="M1031.2,352.2v43.2l-90.3-23.6c-6.1-1.6-10.4-7.1-10.4-13.4v-148.2l100.7,142.1Z"></path>
      <polygon class="cls-7" points="1031.2 185.2 1031.2 352.2 930.5 210.2 1031.2 185.2"></polygon>
    </g>
    <path class="cls-3" d="M1108.1,316.5c.3,0,.7,0,1,.1l-5.6,6.1-.3.3c-.6-.1-1.1-.2-1.7-.3-.3,0-.5-.1-.8-.2-.3,0-.7-.2-1-.2-.2,0-.4-.1-.6-.2-.2,0-.3,0-.5-.1-.3,0-.6-.2-.9-.2-.4-.1-.9-.3-1.3-.4-.3,0-.6-.2-.8-.3-1.1-.4-2.2-.8-3.2-1.2-.2-.1-.5-.2-.7-.3-.1,0-.2,0-.3-.1-.3-.1-.5-.2-.8-.3-.3-.1-.6-.3-.8-.4-.2-.1-.4-.2-.6-.3-.2-.1-.4-.2-.7-.3-.3-.2-.7-.3-1-.5-.3-.2-.7-.4-1-.5,1.1-.7,2.1-1.4,3.2-2.2.8-.6,1.6-1.2,2.5-1.7.4-.3.8-.5,1.2-.8.3.1.6.3.9.4.6.3,1.2.5,1.8.7.4.2.8.3,1.2.5.2,0,.5.2.7.3.3,0,.5.2.8.3.3.1.6.2,1,.3.3.1.7.2,1,.3,1.1.3,2.3.6,3.5.8.2,0,.4,0,.6.1.3,0,.6.1.9.2.3,0,.7.1,1,.2.2,0,.5,0,.7,0,.2,0,.4,0,.6,0ZM1087.7,304.6h0v-38.5c5.3,5.6,9.6,12.2,10.3,19.8,2.4-1.6,4.5-3.7,6.2-6.1-1.8-6.6-5.6-12.4-10.1-17.4,6.5,2,11.5,5.3,14.3,7.5.3-1.4.4-2.9.4-4.4s-.1-3-.4-4.4c-3.6-2.3-8.4-4.7-14.1-6.1,3.7-2.4,6.9-4.1,8.8-5.1-1.6-2-3.6-3.7-5.8-5.1-2.6,1.4-6,3.4-9.7,6v-8.7h0v-.9c-1.2-.2-2.4-.3-3.6-.3s-2.4,0-3.6.3v9.6c-3.7-2.6-7.1-4.6-9.7-6-2.2,1.4-4.1,3.1-5.8,5.1,1.9,1,5.1,2.7,8.8,5.1-5.7,1.4-10.4,3.9-14.1,6.1-.3,1.4-.4,2.9-.4,4.4s.1,3,.4,4.4c2.8-2.2,7.8-5.6,14.3-7.5-4.5,5-8.3,10.8-10.1,17.4,1.7,2.4,3.8,4.4,6.2,6.1.7-7.5,5-14.2,10.3-19.8v38.4h0c-7.5-4.8-17.8-9.7-30.1-10.7l3,4.5,2.4,3.5c8.7,1.8,16.1,5.6,21.7,9.3-5.7,3-11.9,4.8-18.4,5.4l5.6,6.1.3.3c6.8-1.3,13.2-3.7,19.1-7.3,1.4-.8,2.8-1.8,4.1-2.7.8-.6,1.7-1.2,2.6-1.8,5.5-3.7,13-7.5,21.7-9.3l2.4-3.5,3-4.5c-12.3,1-22.6,5.9-30.1,10.8Z"></path>
  </g>
</svg>
