<?xml version="1.0" encoding="UTF-8"?>
<svg xmlns="http://www.w3.org/2000/svg" id="Layer_1" data-name="Layer 1" viewBox="0 0 810.34 373.75">
  <defs>
    <style>
      .cls-1 {
        fill: #003b71;
        stroke-width: 0px;
      }
    </style>
  </defs>
  <g id="_عرضي" data-name="عرضي">
    <g id="_شعار" data-name="شعار">
      <path class="cls-1" d="M810.32,142.2v-.34s-.09-.07-.15-.07c-.05,0-.09.02-.12.05,0,.1-.02.21-.03.32-1.21,8.49-8.89,33.45-56.65,55.59-3.96,1.84-8.19,3.65-12.73,5.44-2.76,1.09-5.39,2.33-7.89,3.7-53.91,29.58-52.41,121.88-47.69,146.97.08.44.64.43.7-.01,3.49-22.85,6.7-108.71,56.9-126.46,2.03-.71,3.99-1.45,5.9-2.21,7.09-2.8,13.42-5.85,19.04-9.12,35.18-20.44,43.14-49.07,42.72-73.86Z"></path>
      <path class="cls-1" d="M731.28,205.24c2.75-1.53,5.6-2.88,8.57-4.05,4.2-1.65,8.22-3.37,12.06-5.13-9.11-10.44-18.7-20.48-26.78-31.77-9.98-13.94-16.71-29.77-19.47-46.73-3.06-18.88-1.37-39.33,6.02-57.07.09-.17,1.44-3.01.97-3.28-.47-.28-2.24,2.29-2.36,2.48-3.08,4.24-6.02,9.08-8.04,13.92-13.38,32.04-12.73,68.94,4.52,99.5,6.65,11.77,15.49,22.02,24.51,32.12Z"></path>
      <path class="cls-1" d="M768.78,217.85c-5.72,3.34-11.99,6.37-18.83,9.1,5.88,7.55,11.13,15.53,15.02,24.44,8.04,18.39,9,40.67,1.07,59.29,0-.02-1.46,3.01-.97,3.29.49.28,2.36-2.47,2.36-2.49,3.08-4.25,5.98-9.08,8.04-13.92,7.17-16.83,9.54-34.96,5.26-52.88-2.31-9.69-6.61-18.56-11.94-26.83Z"></path>
      <path class="cls-1" d="M710.42,352.49c-1.63.53-3.26,1.08-4.88,1.64-4.51,1.56-8.91,3.37-13.47,4.75-4.52,1.37-9.12,2.49-13.77,3.37-9.31,1.74-18.79,2.51-28.25,2.35-1.22-.02-2.46-.01-3.69-.1-7.58-.32-15.21-1.23-22.34-3.8-7.13-2.57-13.78-6.92-18.16-13.11-8.61-12.18-5.82-27.77,3.17-38.75,9.31-11.36,23.32-17.53,36.26-23.71,4.01-1.91,8.01-3.84,11.9-5.99,1.14-.62,2.22-1.28,3.28-1.98,1.77-1,3.53-1.98,5.25-2.97,4.54-2.61,9.09-5.5,12.47-9.57,4.24-5.1,5.85-11.76,7.41-18.06.65-2.63,1.28-5.36,1.51-8.07.04-.39.4-3.01-.45-2.02-7.32,8.48-19.54,7.23-28.99,11.79,1.78-1.9,3.68-3.68,5.64-5.38,4.47-3.89,9.31-7.35,14.29-10.56,10-6.43,21.89-11.09,30.34-19.63,2.88-2.91,4.97-6.85,6.94-10.39,1.06-1.9,2.11-3.82,3-5.81.13-.3,1.2-3.35.97-3.29-15.02,3.79-30.9-.64-45.78,3.85-5.55,1.67-10.53,4.64-14.43,8.95-6.24,6.89-11.75,16.36-14.6,25.24-1.36,4.24,3.02-2.19,3.39-2.75,1.65-2.5,3.04-5.15,5.31-7.17,2.22-1.98,4.99-3.2,7.78-4.17,3.03-1.06,6.17-1.66,9.36-2.02,1.39-.15,2.79-.26,4.18-.34,3.86-.22,7.73-.18,11.59-.14-.56.37-1.14.74-1.7,1.12-12.01,8.28-21.32,18.4-29.07,30.73-1.39,2.22-2.7,4.55-3.9,6.9-2.6,3.13-4.13,6.96-5.38,10.97-.66,2.11-1.27,4.24-1.82,6.39-.16.08-.32.15-.49.22-.61.25-1.19.57-1.78.89-20.47,10.98-43.01,21.92-49.33,46.57-3.35,13.07-1.15,27.52,7.26,38.27,6.77,8.66,17.79,13.58,28.34,15.6,10.96,2.11,22.77,1.83,33.76.08,8.88-1.42,17.61-3.75,26.03-6.91,8.83-3.32,17.39-7.5,25.28-12.68.4-.26.8-.53,1.2-.8-.66-.78-2.86.29-3.61.54Z"></path>
      <path class="cls-1" d="M640.62,180.03c6.73-2.13,13.95-7.39,21.5-15.71,2.3,3.17,3.73,4.75,4.23,4.59.84-.27.92-1.77.12-4.3-.22-.67-.75-1.8-1.4-3.26,2.7-4.93,3.49-9.44,2.26-13.31-.91-2.86-2.26-5.4-4.14-7.21-2.48-2.55-4.97-3.42-7.33-2.67-5.38,1.7-8.23,9.09-6.31,15.15.8,2.52,2.77,5.23,6.07,8.08-5.03,8.08-12.66,14.39-22.78,18.7l3.56.73c1.45-.09,2.85-.35,4.2-.78ZM653.59,149.06c1.02-.88,1.75-1.48,2.26-1.64,2.19-.7,3.79.27,4.65,2.97.59,1.85-.06,3.9-1.83,6.5-2.85-3.73-4.43-6.37-5.08-7.84Z"></path>
      <path class="cls-1" d="M746.59,111.49c-3.25,2.08-5.47,3.71-6.66,4.89-.66.56-1.29,1.35-1.9,2.37-.61,1.02-1.23,2.15-1.86,3.38-1.07,2.26-1.61,3.9-1.62,4.93,5.74-3.66,11.65-7.26,17.73-10.82,6.09-3.56,12.2-6.7,18.35-9.42,1.49-1.84,2.62-3.44,3.38-4.78.77-1.35,1.26-2.26,1.49-2.73.32-.58.59-1.29.8-2.14.21-.85.32-1.49.35-1.93-1.94.74-4.69,2.04-8.28,3.89-3.58,1.85-7.29,3.85-11.13,6.01-3.84,2.16-7.39,4.28-10.65,6.36Z"></path>
      <path class="cls-1" d="M759.76,160.41c-6.95,0-12.58,5.64-12.58,12.58s5.63,12.58,12.58,12.58,12.58-5.63,12.58-12.58-5.63-12.58-12.58-12.58Z"></path>
      <path class="cls-1" d="M789.45,155.89c6.95,0,12.58-5.64,12.58-12.58s-5.63-12.58-12.58-12.58-12.58,5.63-12.58,12.58,5.63,12.58,12.58,12.58Z"></path>
      <path class="cls-1" d="M739.85,29c-18.92,13.48-31.82,36.65-32.23,60.09,18.24-6.6,35.51-14.95,45.29-32.57,10.37-18.7,7.22-36.64,4.17-56.53-3.11,2.93-6.35,5.57-9.7,8.04-7.6,5.62-15.7,10.34-23.9,15.43-8.94,5.57-17.04,11.1-21.37,21.06-2.03,4.67-3.18,9.77-3.55,14.95v.02c-.4,5.58.11,11.24,1.38,16.54,4.53-20.45,21.99-37.3,39.91-47.04Z"></path>
    </g>
    <g id="_نص" data-name="نص">
      <path class="cls-1" d="M355.56,203.68c0-1.78-1.41-3.31-3.14-3.31s-3.14,1.54-3.14,3.31,1.41,3.36,3.14,3.36,3.14-1.54,3.14-3.36Z"></path>
      <path class="cls-1" d="M225.69,203.78c0,1.87,1.46,3.36,3.14,3.36s3.14-1.49,3.14-3.36-1.41-3.32-3.14-3.32-3.14,1.54-3.14,3.32Z"></path>
      <path class="cls-1" d="M22.54,190.28h-11.66c-3.05-1.87-4.14-4.9-4.1-6.97-.05-3.22,1.91-5.28,4.55-5.28s4.42,2.02,4.92,5.62l4.83-.14c-.64-7.64-3.78-11.05-9.84-11.05-5.33,0-9.43,3.8-9.43,10.09,0,3.36,1.09,5.91,2.82,7.74H0v5.57h22.54v-5.57Z"></path>
      <path class="cls-1" d="M197.74,167.46c1.68,0,3.14-1.49,3.14-3.32s-1.46-3.32-3.14-3.32-3.19,1.54-3.19,3.32,1.46,3.32,3.19,3.32Z"></path>
      <path class="cls-1" d="M46.58,169.57c1.73,0,3.14-1.54,3.14-3.36s-1.41-3.32-3.14-3.32-3.19,1.54-3.19,3.32,1.46,3.36,3.19,3.36Z"></path>
      <path class="cls-1" d="M329.24,167.46c1.73,0,3.14-1.49,3.14-3.32s-1.41-3.32-3.14-3.32-3.14,1.54-3.14,3.32,1.46,3.32,3.14,3.32Z"></path>
      <path class="cls-1" d="M365.44,169.57c1.73,0,3.14-1.54,3.14-3.36s-1.41-3.32-3.14-3.32-3.19,1.54-3.19,3.32,1.46,3.36,3.19,3.36Z"></path>
      <path class="cls-1" d="M423.91,195.85h5.51v.86c0,3.89-2.78,6.01-11.8,4.32v5.14c11.07,2.74,17.03-1.39,17.03-8.12v-2.16h6.33c3.05,0,5.42-2.5,5.42-5.76v-27.67h-5.24v25.75c0,1.49-1,2.16-1.91,2.16h-4.6v-8.5c0-6.01-4.24-10.52-9.93-10.52h-.5c-5.69,0-9.97,4.52-9.97,10.52v3.41c0,5.81,4.33,10.52,9.66,10.57ZM419.49,181.87c0-2.98,1.96-5,4.74-5h.5c2.78,0,4.69,2.02,4.69,5v8.46h-5.47c-2.37,0-4.46-2.31-4.46-5.04v-3.41Z"></path>
      <path class="cls-1" d="M320.31,167.46c1.69,0,3.14-1.49,3.14-3.32s-1.46-3.32-3.14-3.32-3.19,1.54-3.19,3.32,1.46,3.32,3.19,3.32Z"></path>
      <path class="cls-1" d="M284.16,196.48v-.58h7.78c3.05,0,5.42-2.5,5.42-5.76v-27.67h-5.24v25.75c0,1.49-1,2.16-1.91,2.16h-6.05v-17.63h-5.28v23.73c0,2.88-1.87,4.85-4.55,4.85h-2.28v5.53h2.28c5.6,0,9.84-4.47,9.84-10.38Z"></path>
      <path class="cls-1" d="M244.18,195.9h26.05v-5.52h-6.97c-4.01,0-7.06-1.54-7.06-6.97,0-7.35,5.69-9.22,12.07-6.68v-5.09c-8.15-3.12-17.9-.29-17.9,11.58,0,2.93.82,5.33,2.37,7.16h-6.87c-.91,0-1.91-.67-1.91-2.16v-25.75h-5.24v27.67c0,3.27,2.41,5.76,5.47,5.76Z"></path>
      <path class="cls-1" d="M206.66,167.46c1.73,0,3.14-1.49,3.14-3.32s-1.41-3.32-3.14-3.32-3.14,1.54-3.14,3.32,1.46,3.32,3.14,3.32Z"></path>
      <path class="cls-1" d="M541.1,203.01c0-1.78-1.46-3.27-3.19-3.27s-3.14,1.49-3.14,3.27c0,1.87,1.46,3.36,3.14,3.36s3.19-1.49,3.19-3.36Z"></path>
      <rect class="cls-1" x="169.23" y="162.46" width="5.24" height="33.44"></rect>
      <rect class="cls-1" x="586.44" y="162.46" width="5.24" height="33.44"></rect>
      <path class="cls-1" d="M230.89,190.13v-17.01h-5.24v15.09c0,1.49-1.05,2.16-1.91,2.16h-9.1c-1.78,0-2.96-1.3-2.96-3.12v-15.95h-10.43c-5.69,0-9.93,4.56-9.93,10.57v3.31c0,5.77,4.33,10.57,9.7,10.57,3.19,0,5.46-1.15,7.1-3.07,1.5,1.97,3.78,3.22,6.51,3.22h10.79c3.05,0,5.47-2.5,5.47-5.76ZM206.43,187.54c-1.23,1.73-3.23,2.64-5.42,2.64-2.46,0-4.46-2.21-4.46-5v-3.31c0-3.03,1.91-5.04,4.69-5.04h5.19v10.71Z"></path>
      <path class="cls-1" d="M346.63,203.68c0-1.78-1.46-3.31-3.14-3.31s-3.19,1.54-3.19,3.31,1.46,3.36,3.19,3.36,3.14-1.54,3.14-3.36Z"></path>
      <path class="cls-1" d="M579.07,190.13v-27.67h-5.24v25.75c0,1.49-1,2.16-1.91,2.16h-3.69c-2.69,0-3.51-1.78-3.51-3.94v-23.97h-5.24v23.97c0,2.16-.77,3.94-3.46,3.94h-4.69v-.05c-.96-.14-2.05-.29-4.65-6.49-4.6-10.28-11.8-14.32-19.99-11.15v5.09c6.83-2.79,10.89,0,14.21,6.82,1.18,2.5,2.19,4.95,2.91,5.77h-20.17c-2.69,0-3.51-1.78-3.51-3.94v-13.26h-5.24v13.26c0,2.16-.73,3.94-3.46,3.94h-12.27c-1.78,0-2.96-1.3-2.96-3.12v-15.95h-10.43c-5.69,0-9.93,4.56-9.93,10.57v3.31c0,5.77,4.33,10.57,9.7,10.57,3.19,0,5.47-1.15,7.1-3.07,1.5,1.97,3.78,3.22,6.51,3.22h12.23c2.87,0,4.83-1.1,6.15-2.69,1.37,1.59,3.28,2.69,5.37,2.69h33.06c2.87,0,4.83-1.1,6.15-2.69,1.37,1.59,3.28,2.69,5.37,2.69h6.15c3.05,0,5.42-2.5,5.42-5.76ZM490.98,187.54c-1.23,1.73-3.23,2.64-5.42,2.64-2.46,0-4.46-2.21-4.46-5v-3.31c0-3.03,1.91-5.04,4.69-5.04h5.19v10.71Z"></path>
      <path class="cls-1" d="M396,171.69c-4.96,0-9.43,3.65-12.98,7.74v-16.96h-5.19v27.91h-5.78c-2.69,0-3.51-1.78-3.51-3.94v-13.26h-5.24v13.26c0,2.16-.73,3.94-3.46,3.94h-4.92c-2.64,0-3.51-1.78-3.51-3.94v-.82c.05-.48.05-.91.05-1.35v-11.1h-5.28l.05,13.4c-.05,2.07-.82,3.8-3.46,3.8h-5.55c-1.78,0-2.96-1.3-2.96-3.12v-15.95h-10.43c-5.69,0-9.93,4.56-9.93,10.57v3.31c0,5.77,4.33,10.57,9.7,10.57,3.19,0,5.46-1.15,7.1-3.07,1.5,1.97,3.78,3.22,6.51,3.22h5.46c2.87,0,4.83-1.1,6.15-2.69,1.41,1.59,3.32,2.69,5.42,2.69h5.55c2.87,0,4.83-1.1,6.15-2.69,1.37,1.59,3.28,2.69,5.37,2.69h25.41c6.01,0,10.93-5.19,10.93-11.58,0-7.11-3.92-12.64-11.66-12.64ZM329.01,187.54c-1.23,1.73-3.23,2.64-5.42,2.64-2.46,0-4.46-2.21-4.46-5v-3.31c0-3.03,1.91-5.04,4.69-5.04h5.19v10.71ZM397.32,190.38h-14.3v-5.48c4.05-5.09,8.2-7.73,12.39-7.73s7.15,2.83,7.15,7.69c0,3.03-2.32,5.53-5.24,5.53Z"></path>
      <path class="cls-1" d="M223.05,203.78c0-1.78-1.41-3.32-3.14-3.32s-3.19,1.54-3.19,3.32c0,1.87,1.46,3.36,3.19,3.36s3.14-1.49,3.14-3.36Z"></path>
      <path class="cls-1" d="M94.42,206.37c1.73,0,3.19-1.49,3.19-3.36s-1.46-3.27-3.19-3.27-3.14,1.49-3.14,3.27c0,1.87,1.46,3.36,3.14,3.36Z"></path>
      <rect class="cls-1" x="453.78" y="162.46" width="5.24" height="33.44"></rect>
      <path class="cls-1" d="M482.28,167.46c1.69,0,3.14-1.49,3.14-3.32s-1.46-3.32-3.14-3.32-3.19,1.54-3.19,3.32,1.46,3.32,3.19,3.32Z"></path>
      <path class="cls-1" d="M156.62,188.21c0,1.49-1,2.16-1.91,2.16h-5.14c-1.87,0-3.01-1.25-3.01-3.12v-15.13h-5.1v15.13c0,1.87-1,3.12-2.78,3.12h-2.1c-1.82,0-2.96-1.25-2.96-3.12v-10.57h-5.1v10.57c0,1.87-1.14,3.12-2.87,3.12h-2.05c-1.59,0-2.82-1.01-2.82-3.12v-10.57h-5.19v10.57c0,1.87-.96,3.12-3.23,3.12h-4.5v-.05c-.96-.14-2.05-.29-4.65-6.49-4.6-10.28-11.8-14.32-19.99-11.15v5.09c6.83-2.79,10.88,0,14.21,6.82,1.18,2.5,2.19,4.95,2.91,5.77h-47.15c-2.69,0-3.51-1.78-3.51-3.94v-13.26h-5.24v13.26c0,2.16-.73,3.94-3.46,3.94h-3.46c-.91,0-1.91-.67-1.91-2.16v-25.75h-5.24v27.67c0,3.27,2.41,5.76,5.46,5.76h5.1c2.87,0,4.83-1.1,6.15-2.69,1.37,1.59,3.28,2.69,5.37,2.69h60.35c3.6,0,5.19-.96,6.24-2.55.77,1.44,2.5,2.55,4.6,2.55h2.96c2.46,0,4.28-.86,5.28-2.45.82,1.3,2.5,2.45,4.55,2.45h3.19c2.55,0,4.14-.91,5.33-2.45.96,1.54,2.64,2.5,4.6,2.45h6.87c3.05,0,5.42-2.5,5.42-5.76v-27.67h-5.24v25.75Z"></path>
      <path class="cls-1" d="M517.05,169.57c1.73,0,3.14-1.54,3.14-3.36s-1.41-3.32-3.14-3.32-3.19,1.54-3.19,3.32,1.46,3.36,3.19,3.36Z"></path>
      <path class="cls-1" d="M491.21,167.46c1.73,0,3.14-1.49,3.14-3.32s-1.41-3.32-3.14-3.32-3.14,1.54-3.14,3.32,1.46,3.32,3.14,3.32Z"></path>
      <path class="cls-1" d="M152.46,245.45c0,1.97-1.46,3.56-3.32,3.56-2.32,0-3.64-1.25-3.64-3.27v-10.43h-5.24v10.43c0,2.11-1.46,3.41-3.55,3.36-2.23,0-3.42-1.25-3.42-3.36v-10.43h-5.19v10.43c0,1.92-1.32,3.27-3.1,3.27h-23.08v-17.63h-5.28v23.73c0,2.88-1.87,4.85-4.55,4.85h-2.28v5.52h2.28c5.6,0,9.84-4.47,9.84-10.38v-.58h22.95c2.32,0,4.37-.96,5.78-2.5,1.55,1.68,3.55,2.59,5.92,2.59s4.65-.86,6.29-2.64c1.41,1.59,3.51,2.55,6.29,2.55,4.74,0,8.61-4.08,8.61-9.08v-15.04h-5.28v15.04Z"></path>
      <path class="cls-1" d="M385.91,260.82c0,1.87,1.46,3.36,3.19,3.36s3.14-1.49,3.14-3.36c0-1.78-1.46-3.31-3.14-3.31s-3.19,1.54-3.19,3.31Z"></path>
      <path class="cls-1" d="M401.62,242.47c-4.51-10.33-11.75-14.32-19.95-11.15v5.09c6.06-2.74,10.84-.34,14.03,6.53,1.18,2.55,2.23,5.48,3.92,6.05h-12.52c-6.7.05-11.84,4.71-11.84,11.92,0,10.43,11.02,15.76,21.18,10.57v-5.09c-7.7,3.6-15.94.67-15.94-5.48,0-4.18,2.82-6.39,6.69-6.39h19.13v-5.57c-2-.14-2.09-.29-4.69-6.49Z"></path>
      <path class="cls-1" d="M326.67,224.83c0-1.78-1.41-3.32-3.14-3.32s-3.19,1.54-3.19,3.32,1.46,3.36,3.19,3.36,3.14-1.54,3.14-3.36Z"></path>
      <path class="cls-1" d="M546.19,246.84c0,1.49-1,2.16-1.91,2.16h-29.46c-1.73,0-2.92-1.3-2.92-3.12v-5.38c0-6.01-4.28-10.57-9.97-10.57h-.5c-5.69,0-9.97,4.56-9.97,10.57v5.38c0,1.83-1.18,3.12-2.91,3.12h-23.72c1.14-1.3,1.87-3.07,1.87-5.04v-3.41c0-6.1-4.01-10.52-10.16-10.52s-10.16,4.52-10.16,10.52v3.41c0,1.97.73,3.75,1.82,5.04h-25.91v-17.63h-5.28v23.73c0,2.88-1.87,4.85-4.55,4.85h-2.28v5.52h2.28c5.6,0,9.84-4.47,9.84-10.38v-.58h66.25c2.5,0,4.69-1.15,6.01-3.03,2.05,1.83,4.74,2.88,7.61,2.88,2.6,0,4.96-1.25,6.56-3.17,1.28,2.02,3.46,3.31,6.1,3.31h31.19c3.05,0,5.42-2.5,5.42-5.76v-27.67h-5.24v25.75ZM461.46,243.96c0,2.79-1.82,5.04-4.92,5.04-2.55,0-4.92-2.26-4.92-5.04v-3.41c0-3.07,1.78-5,4.96-5s4.87,2.02,4.87,5v3.41ZM506.67,243.81c0,2.79-2.1,5-4.51,5-2.19,0-4.24-.91-5.47-2.64v-5.67c0-3.03,1.96-5.04,4.74-5.04h.5c2.78,0,4.74,2.02,4.74,5.04v3.32Z"></path>
      <path class="cls-1" d="M591.14,240.5c0-6.01-4.24-10.52-9.93-10.52h-.5c-5.69,0-9.97,4.52-9.97,10.52v3.41c0,5.81,4.33,10.52,9.65,10.57h5.51v.87c0,3.89-2.78,6.01-11.8,4.32v5.14c11.07,2.74,17.03-1.39,17.03-8.12v-16.19ZM585.91,248.95h-5.47c-2.37,0-4.46-2.31-4.46-5.04v-3.41c0-2.98,1.96-5,4.74-5h.5c2.78,0,4.69,2.02,4.69,5v8.46Z"></path>
      <rect class="cls-1" x="558.81" y="221.09" width="5.24" height="33.44"></rect>
      <path class="cls-1" d="M348.02,242.03c0-7.35,5.69-9.22,12.07-6.68v-5.09c-8.15-3.12-17.9-.29-17.9,11.58,0,2.93.82,5.33,2.37,7.16h-14.43c-2.69,0-3.51-1.78-3.51-3.94v-13.26h-5.24v13.26c0,2.16-.73,3.94-3.46,3.94h-14.84c1.05-1.83,1.64-3.99,1.64-6.34,0-7.64-4.19-12.68-10.43-12.68s-10.38,4.95-10.38,11.67v7.35h-32.73c-1.69,0-2.82-1.2-2.82-3.03v-5.53c0-6.1-4.33-10.67-10.11-10.67s-10.07,4.56-10.07,10.67l-.05,6.25c-3.92.86-6.7,4.42-6.7,8.89v11.29h5.28v-11.29c0-1.97,1.09-3.41,3.05-3.6,2.14,2.31,4.78,3.31,8.47,3.31,3.05,0,5.65-1.35,7.33-3.56,1.23,1.73,3.23,2.79,5.6,2.79h32.73v.53c0,6.73,3.46,11.87,10.02,11.87,6.97,0,9.97-4.56,9.97-11v-1.39h13.97c2.87,0,4.83-1.1,6.15-2.69,1.37,1.59,3.28,2.69,5.37,2.69h32.65v-5.52h-6.97c-4.01,0-7.06-1.54-7.06-6.97ZM243.12,244.63c0,3.07-1.96,5.14-4.87,5.14-2.37,0-3.73-.53-4.83-1.83v-7.49c0-3.03,1.96-5.14,4.83-5.14s4.87,2.11,4.87,5.14v4.18ZM299.07,255.05c0,3.99-1.78,6.77-5.15,6.77-3.6,0-5.19-2.79-5.19-6.77v-.53h4.74c2.1,0,3.96-.53,5.6-1.44v1.97ZM293.47,249h-4.74v-6.82c0-4.08,2.37-7.06,5.6-7.06s5.6,2.64,5.6,7.54c0,3.99-2.69,6.34-6.47,6.34Z"></path>
      <path class="cls-1" d="M456.22,226.37c1.73,0,3.14-1.54,3.14-3.36s-1.41-3.31-3.14-3.31-3.14,1.54-3.14,3.31,1.46,3.36,3.14,3.36Z"></path>
      <rect class="cls-1" x="165.61" y="221.09" width="5.24" height="33.44"></rect>
      <path class="cls-1" d="M62.34,230.79v2.79c-3.69.96-6.15,4.18-6.28,8.41v2.55c0,1.78.64,3.36,1.59,4.47h-24.99c-1.69,0-2.82-1.2-2.82-3.03v-5.53c0-6.1-4.33-10.67-10.11-10.67s-10.06,4.56-10.06,10.67l-.05,6.25c-3.92.86-6.69,4.42-6.69,8.89v11.29h5.28v-11.29c0-1.97,1.09-3.41,3.05-3.6,2.14,2.31,4.78,3.31,8.47,3.31,3.05,0,5.65-1.35,7.33-3.56,1.23,1.73,3.23,2.79,5.6,2.79h43.53c5.42,0,9.79-4.61,9.79-10.33v-3.32c-.18-7.88-9.47-13.69-23.64-10.09ZM24.59,244.63c0,3.07-1.96,5.14-4.87,5.14-2.37,0-3.73-.53-4.83-1.83v-7.49c0-3.03,1.96-5.14,4.83-5.14s4.87,2.11,4.87,5.14v4.18ZM69.35,249h-4.55c-2.28-.19-4.28-2.11-4.28-4.61v-2.16c0-2.83,1.55-4.52,4.46-4.52s4.37,1.78,4.37,4.52v6.77ZM76.05,249h-2.23v-6.63c0-3.99-2.19-6.63-5.33-7.4,6.88-.72,12.07,2.11,12.21,5.91l.05,3.17c0,2.74-2.1,4.95-4.69,4.95Z"></path>
      <path class="cls-1" d="M166.61,211.57c0-1.25.64-1.78,1.64-1.78s1.73.67,1.91,2.02h2.69c-.23-3.36-2-5.09-4.65-5.09-2.78,0-4.33,1.83-4.33,4.52,0,1.35.46,2.35,1.14,3.07h-1.69v3.07h9.75v-3.07h-4.78c-1.32-.77-1.69-1.97-1.69-2.74Z"></path>
      <path class="cls-1" d="M196.99,229.98h-.5c-5.69,0-9.97,4.52-9.97,10.52v3.41c0,5.81,4.33,10.52,9.66,10.57h5.51v.87c0,3.89-2.78,6.01-11.8,4.32v5.14c11.07,2.74,17.03-1.39,17.03-8.12v-16.19c0-6.01-4.24-10.52-9.93-10.52ZM201.68,248.95h-5.47c-2.37,0-4.46-2.31-4.46-5.04v-3.41c0-2.98,1.96-5,4.74-5h.5c2.78,0,4.69,2.02,4.69,5v8.46Z"></path>
    </g>
  </g>
</svg>
